G04*
G04 #@! TF.GenerationSoftware,Altium Limited,Altium Designer,26.2.0 (7)*
G04*
G04 Layer_Color=32896*
%FSTAX25Y25*%
%MOIN*%
G70*
G04*
G04 #@! TF.SameCoordinates,DDC7E0C6-02D7-4959-A8D0-6A7BEAAAFFDF*
G04*
G04*
G04 #@! TF.FilePolarity,Positive*
G04*
G01*
G75*
%ADD10C,0.00787*%
G36*
X0089862Y-0127454D02*
X0089924Y-0127457D01*
X0089982Y-0127468D01*
X0090036Y-0127479D01*
X0090087Y-0127494D01*
X0090135Y-0127508D01*
X0090178Y-0127527D01*
X0090218Y-0127545D01*
X0090255Y-0127563D01*
X0090284Y-0127581D01*
X0090309Y-0127596D01*
X0090331Y-012761D01*
X009035Y-0127621D01*
X009036Y-0127632D01*
X0090368Y-0127636D01*
X0090371Y-0127639D01*
X0090408Y-0127676D01*
X009044Y-0127716D01*
X0090473Y-012776D01*
X0090499Y-0127803D01*
X0090542Y-0127891D01*
X0090571Y-0127978D01*
X0090582Y-0128018D01*
X0090593Y-0128058D01*
X0090601Y-0128091D01*
X0090608Y-012812D01*
X0090611Y-0128145D01*
Y-0128164D01*
X0090615Y-0128175D01*
Y-0128178D01*
X0090298Y-0128211D01*
X0090291Y-0128127D01*
X0090277Y-0128054D01*
X0090255Y-0127989D01*
X0090229Y-0127938D01*
X0090207Y-0127894D01*
X0090186Y-0127865D01*
X0090171Y-0127847D01*
X0090164Y-012784D01*
X0090109Y-0127796D01*
X0090051Y-0127763D01*
X0089989Y-0127738D01*
X0089934Y-0127723D01*
X0089884Y-0127712D01*
X008984Y-0127709D01*
X0089825Y-0127705D01*
X0089803D01*
X0089727Y-0127709D01*
X0089658Y-0127723D01*
X00896Y-0127745D01*
X0089549Y-0127767D01*
X0089509Y-0127792D01*
X0089483Y-0127811D01*
X0089465Y-0127825D01*
X0089458Y-0127832D01*
X0089414Y-0127883D01*
X0089381Y-0127934D01*
X0089356Y-0127985D01*
X0089341Y-0128036D01*
X008933Y-0128076D01*
X0089327Y-0128113D01*
X0089323Y-0128135D01*
Y-0128138D01*
Y-0128142D01*
X008933Y-0128207D01*
X0089345Y-0128277D01*
X008937Y-0128338D01*
X0089396Y-0128397D01*
X0089425Y-0128444D01*
X008945Y-0128484D01*
X0089458Y-0128498D01*
X0089465Y-0128509D01*
X0089472Y-0128513D01*
Y-0128517D01*
X0089501Y-0128557D01*
X0089538Y-0128597D01*
X0089578Y-012864D01*
X0089622Y-0128684D01*
X0089713Y-0128771D01*
X0089803Y-0128859D01*
X0089851Y-0128899D01*
X0089891Y-0128935D01*
X0089931Y-0128968D01*
X0089964Y-0128997D01*
X0089989Y-0129019D01*
X0090011Y-0129037D01*
X0090026Y-0129048D01*
X0090029Y-0129052D01*
X009012Y-0129128D01*
X0090204Y-0129201D01*
X0090273Y-0129267D01*
X0090328Y-0129321D01*
X0090375Y-0129368D01*
X0090408Y-0129401D01*
X0090426Y-0129423D01*
X0090433Y-0129427D01*
Y-012943D01*
X0090484Y-0129492D01*
X0090524Y-0129551D01*
X0090561Y-0129609D01*
X009059Y-012966D01*
X0090611Y-0129703D01*
X0090626Y-0129736D01*
X0090633Y-0129758D01*
X0090637Y-0129762D01*
Y-0129765D01*
X0090652Y-0129805D01*
X0090659Y-0129842D01*
X0090666Y-0129878D01*
X009067Y-0129911D01*
X0090673Y-012994D01*
Y-0129962D01*
Y-0129976D01*
Y-012998D01*
X0089003D01*
Y-0129682D01*
X0090244D01*
X00902Y-012962D01*
X0090178Y-0129594D01*
X009016Y-0129569D01*
X0090142Y-0129547D01*
X0090127Y-0129532D01*
X0090117Y-0129521D01*
X0090113Y-0129518D01*
X0090095Y-0129499D01*
X0090073Y-0129481D01*
X0090022Y-0129434D01*
X0089964Y-0129379D01*
X0089902Y-0129325D01*
X0089843Y-0129278D01*
X0089818Y-0129256D01*
X0089796Y-0129234D01*
X0089778Y-0129219D01*
X0089763Y-0129208D01*
X0089756Y-0129201D01*
X0089753Y-0129197D01*
X0089694Y-0129146D01*
X0089636Y-0129099D01*
X0089585Y-0129052D01*
X0089538Y-0129012D01*
X0089494Y-0128972D01*
X0089458Y-0128935D01*
X0089421Y-0128903D01*
X0089392Y-0128873D01*
X0089363Y-0128844D01*
X0089341Y-0128823D01*
X0089323Y-0128804D01*
X0089305Y-0128786D01*
X0089287Y-0128764D01*
X0089279Y-0128757D01*
X0089228Y-0128695D01*
X0089185Y-012864D01*
X0089148Y-0128586D01*
X0089119Y-0128542D01*
X0089097Y-0128502D01*
X0089083Y-0128473D01*
X0089075Y-0128455D01*
X0089072Y-0128448D01*
X008905Y-0128393D01*
X0089035Y-0128338D01*
X0089021Y-0128287D01*
X0089014Y-0128244D01*
X008901Y-0128204D01*
X0089006Y-0128175D01*
Y-0128156D01*
Y-0128149D01*
X008901Y-0128094D01*
X0089017Y-0128043D01*
X0089025Y-0127993D01*
X0089039Y-0127949D01*
X0089075Y-0127861D01*
X0089112Y-0127792D01*
X0089134Y-012776D01*
X0089152Y-0127734D01*
X008917Y-0127709D01*
X0089188Y-012769D01*
X0089203Y-0127676D01*
X008921Y-0127661D01*
X0089217Y-0127658D01*
X0089221Y-0127654D01*
X0089261Y-0127618D01*
X0089305Y-0127585D01*
X0089352Y-0127559D01*
X0089399Y-0127538D01*
X0089494Y-0127501D01*
X0089589Y-0127476D01*
X0089629Y-0127468D01*
X0089669Y-0127461D01*
X0089705Y-0127457D01*
X0089734Y-0127454D01*
X008976Y-012745D01*
X0089796D01*
X0089862Y-0127454D01*
D02*
G37*
G36*
X0093039Y-0128917D02*
Y-012899D01*
X0093036Y-0129059D01*
X0093032Y-0129125D01*
X0093025Y-0129186D01*
X0093018Y-0129241D01*
X009301Y-0129292D01*
X0092999Y-0129339D01*
X0092992Y-0129383D01*
X0092985Y-0129423D01*
X0092974Y-0129456D01*
X0092967Y-0129485D01*
X0092959Y-0129507D01*
X0092952Y-0129525D01*
X0092948Y-012954D01*
X0092945Y-0129547D01*
Y-0129551D01*
X0092905Y-0129631D01*
X0092854Y-0129703D01*
X0092803Y-0129762D01*
X0092748Y-0129813D01*
X0092701Y-0129853D01*
X0092661Y-0129882D01*
X0092646Y-0129889D01*
X0092635Y-0129896D01*
X0092628Y-0129904D01*
X0092624D01*
X0092533Y-0129944D01*
X0092439Y-0129973D01*
X009234Y-0129995D01*
X009225Y-0130009D01*
X009221Y-0130013D01*
X0092169Y-0130016D01*
X0092133Y-013002D01*
X0092104D01*
X0092079Y-0130024D01*
X0092046D01*
X0091915Y-0130016D01*
X0091856Y-0130009D01*
X0091802Y-0130002D01*
X0091747Y-0129991D01*
X00917Y-012998D01*
X0091656Y-0129969D01*
X0091616Y-0129955D01*
X009158Y-012994D01*
X0091551Y-0129929D01*
X0091522Y-0129918D01*
X00915Y-0129907D01*
X0091482Y-0129896D01*
X0091471Y-0129893D01*
X0091463Y-0129885D01*
X009146D01*
X009138Y-0129831D01*
X0091314Y-0129769D01*
X0091263Y-0129711D01*
X0091219Y-0129652D01*
X0091187Y-0129601D01*
X0091165Y-0129561D01*
X0091158Y-0129547D01*
X009115Y-0129536D01*
X0091147Y-0129529D01*
Y-0129525D01*
X0091132Y-0129481D01*
X0091118Y-0129434D01*
X0091096Y-0129336D01*
X0091081Y-0129234D01*
X009107Y-0129136D01*
X0091066Y-0129092D01*
X0091063Y-0129048D01*
Y-0129012D01*
X0091059Y-0128979D01*
Y-0128954D01*
Y-0128935D01*
Y-0128921D01*
Y-0128917D01*
Y-0127461D01*
X0091394D01*
Y-0128917D01*
Y-0129001D01*
X0091401Y-0129081D01*
X0091409Y-012915D01*
X009142Y-0129216D01*
X009143Y-0129274D01*
X0091445Y-0129328D01*
X0091456Y-0129376D01*
X0091471Y-0129416D01*
X0091485Y-0129449D01*
X00915Y-0129481D01*
X0091514Y-0129503D01*
X0091525Y-0129525D01*
X0091536Y-012954D01*
X0091543Y-0129551D01*
X0091547Y-0129554D01*
X0091551Y-0129558D01*
X0091583Y-0129587D01*
X009162Y-0129612D01*
X00917Y-0129652D01*
X0091784Y-0129682D01*
X0091871Y-01297D01*
X0091951Y-0129714D01*
X0091984Y-0129718D01*
X0092017D01*
X0092038Y-0129722D01*
X0092075D01*
X0092151Y-0129718D01*
X009222Y-0129707D01*
X0092286Y-0129696D01*
X0092337Y-0129678D01*
X0092381Y-0129663D01*
X0092413Y-0129652D01*
X0092431Y-0129641D01*
X0092439Y-0129638D01*
X009249Y-0129605D01*
X0092533Y-0129565D01*
X009257Y-0129525D01*
X0092595Y-0129489D01*
X0092617Y-0129452D01*
X0092635Y-0129427D01*
X0092643Y-0129409D01*
X0092646Y-0129401D01*
X0092657Y-0129368D01*
X0092664Y-0129336D01*
X0092679Y-0129259D01*
X009269Y-0129179D01*
X0092697Y-0129099D01*
X0092701Y-012903D01*
Y-0128997D01*
X0092704Y-0128972D01*
Y-012895D01*
Y-0128932D01*
Y-0128921D01*
Y-0128917D01*
Y-0127461D01*
X0093039D01*
Y-0128917D01*
D02*
G37*
D10*
X0108382Y-0143222D02*
Y-0116825D01*
X0077696Y-0143222D02*
X0108382D01*
X0077696D02*
Y-0116825D01*
X0108382D01*
M02*
