G04*
G04 #@! TF.GenerationSoftware,Altium Limited,Altium Designer,26.2.0 (7)*
G04*
G04 Layer_Color=16711935*
%FSTAX25Y25*%
%MOIN*%
G70*
G04*
G04 #@! TF.SameCoordinates,DDC7E0C6-02D7-4959-A8D0-6A7BEAAAFFDF*
G04*
G04*
G04 #@! TF.FilePolarity,Positive*
G04*
G01*
G75*
%ADD14C,0.01000*%
%ADD83C,0.01378*%
%ADD84C,0.00025*%
D14*
X-0072643Y-0064089D02*
X-0047143D01*
X-0072643Y-0011089D02*
X-0047143D01*
Y-0064089D02*
Y-0011089D01*
X-0072643Y-0064089D02*
Y-0011089D01*
X0043123Y-0011161D02*
X0068623D01*
X0043123Y-0063661D02*
X0068623D01*
X0043123D02*
Y-0011161D01*
X0068623Y-0063661D02*
Y-0011161D01*
X0043123D02*
X0123865D01*
X0043123Y-0063661D02*
X0123865D01*
X0043123D02*
Y-0011161D01*
X0123865Y-0063661D02*
Y-0011161D01*
X-0130393Y-0064089D02*
X-0046893D01*
X-0130393Y-0011089D02*
X-0046893D01*
Y-0064089D02*
Y-0011089D01*
X-0130393Y-0064089D02*
Y-0011089D01*
D83*
X0038774Y0201507D02*
G03*
X0033944Y0202135I-0031436J-0222875D01*
G01*
X0047118Y0200169D02*
G03*
X0038774Y0201507I-0039713J-0221008D01*
G01*
X0012276Y0203705D02*
G03*
X0004895Y0203795I-0006614J-02391D01*
G01*
X0004895D02*
G03*
X0000408Y0203739I0000776J-0239795D01*
G01*
X0079737Y019193D02*
G03*
X0064384Y0196389I-0079926J-0246576D01*
G01*
X-0047974Y0198299D02*
G03*
X-0054568Y0196916I0051583J-0262382D01*
G01*
X008796Y0189114D02*
G03*
X0079737Y019193I-0089042J-0246541D01*
G01*
X0132429Y0169406D02*
G03*
X0132419Y016941I-0000195J-0000519D01*
G01*
X0132419Y016941D02*
G03*
X013241Y0169413I-0000147J-0000414D01*
G01*
X013241D02*
G03*
X0132402Y0169415I-0000109J-000033D01*
G01*
Y0169415D02*
G03*
X0132395Y0169417I-000008J-0000264D01*
G01*
Y0169417D02*
G03*
X0132388Y0169419I-0000058J-0000211D01*
G01*
X0132388D02*
G03*
X0132382Y0169421I-0000041J-000017D01*
G01*
X0132382Y0169421D02*
G03*
X0132377Y0169422I-0000028J-0000138D01*
G01*
X0132377D02*
G03*
X0132371Y0169422I-0000018J-0000115D01*
G01*
X0132371D02*
G03*
X0132367Y0169423I-0000011J-0000097D01*
G01*
D02*
G03*
X0132362Y0169423I-0000006J-0000085D01*
G01*
D02*
G03*
X0132355Y0169422I-0000001J-0000076D01*
G01*
Y0169422D02*
G03*
X0132351Y0169422I0000007J-0000078D01*
G01*
Y0169422D02*
G03*
X0132348Y0169422I0000012J-0000089D01*
G01*
X0132348Y0169422D02*
G03*
X0132344Y0169421I000002J-0000116D01*
G01*
X0132327Y0169417D02*
G03*
X0132331Y0169418I-0000025J0000142D01*
G01*
X0132323Y0169417D02*
G03*
X0132327Y0169417I-0000017J000012D01*
G01*
X0132319Y0169416D02*
G03*
X0132323Y0169417I-0000012J0000114D01*
G01*
X0132314Y0169416D02*
G03*
X0132319Y0169416I-0000007J0000116D01*
G01*
X0132309Y0169416D02*
G03*
X0132314Y0169416I-0000003J0000125D01*
G01*
X0132304Y0169416D02*
G03*
X0132309Y0169416I0000002J0000139D01*
G01*
X0132298Y0169416D02*
G03*
X0132304Y0169416I0000008J0000159D01*
G01*
X0132291Y0169416D02*
G03*
X0132298Y0169416I0000016J0000186D01*
G01*
X0132284Y0169417D02*
G03*
X0132291Y0169416I0000026J000022D01*
G01*
X0132277Y0169418D02*
G03*
X0132284Y0169417I000004J0000263D01*
G01*
X0132268Y0169419D02*
G03*
X0132277Y0169418I0000056J0000316D01*
G01*
X0132259Y0169421D02*
G03*
X0132268Y0169419I0000077J0000381D01*
G01*
X0132249Y0169423D02*
G03*
X0132259Y0169421I0000104J0000459D01*
G01*
X0132238Y0169426D02*
G03*
X0132249Y0169423I0000137J0000554D01*
G01*
X0132226Y0169429D02*
G03*
X0132238Y0169426I0000177J0000667D01*
G01*
X0099802Y0184514D02*
G03*
X0094396Y0186695I-0102845J-0247168D01*
G01*
D02*
G03*
X008796Y0189114I-0096423J-0246745D01*
G01*
X-009135Y-016852D02*
X0086997D01*
X-0104914Y-0154956D02*
X-009135Y-016852D01*
X0086997D02*
X0136831Y-0118686D01*
X-0014296Y0202978D02*
X-0013076Y0203074D01*
X-0002158Y0203669D02*
X0000408Y0203739D01*
X-0004177Y0203595D02*
X-0002158Y0203669D01*
X-0015523Y0202876D02*
X-0014296Y0202978D01*
X-0013076Y0203074D02*
X-0011865Y0203163D01*
X-0010661Y0203246D01*
X-0009168Y0203341D01*
X-0007687Y0203427D01*
X-0005924Y0203517D01*
X-0004177Y0203595D01*
X-0039584Y0199816D02*
X-0039231Y0199875D01*
X-0038526Y019999D02*
X-0038175Y0200047D01*
X-0039231Y0199875D02*
X-0038878Y0199933D01*
X-0038526Y019999D01*
X-0038175Y0200047D02*
X-0037825Y0200103D01*
X-0037475Y0200159D01*
X-0037126Y0200215D01*
X-0036083Y0200378D01*
X-0035047Y0200537D01*
X-0034017Y0200692D01*
X-0032993Y0200843D01*
X-0031975Y020099D01*
X-0030962Y0201132D01*
X-0029956Y0201271D01*
X-0028956Y0201405D01*
X-0019257Y0202532D02*
X-0018004Y0202653D01*
X-0027961Y0201535D02*
X-0026972Y0201661D01*
X-0020203Y0202436D02*
X-0019257Y0202532D01*
X-0028956Y0201405D02*
X-0027961Y0201535D01*
X-0026972Y0201661D02*
X-0025989Y0201784D01*
X-0025012Y0201902D01*
X-0024039Y0202017D01*
X-0023072Y0202127D01*
X-0022111Y0202234D01*
X-0021155Y0202337D01*
X-0020203Y0202436D01*
X-0018004Y0202653D02*
X-0016759Y0202768D01*
X-0015523Y0202876D01*
X0029337Y0202636D02*
X0031389Y0202425D01*
X0053435Y0198942D02*
X0054955Y019862D01*
X0027535Y0202806D02*
X0029337Y0202636D01*
X0025984Y0202942D02*
X0027535Y0202806D01*
X0023128Y0203165D02*
X0024429Y0203067D01*
X0025984Y0202942D01*
X0031389Y0202425D02*
X0033944Y0202135D01*
X0047118Y0200169D02*
X0049643Y0199701D01*
X0051665Y0199304D01*
X0053435Y0198942D01*
X-0068188Y0193514D02*
X-0067283Y0193762D01*
X-0070951Y0192738D02*
X-0070022Y0193002D01*
X-0069101Y0193261D01*
X-0068188Y0193514D01*
X-0067283Y0193762D02*
X-0066386Y0194005D01*
X-0065496Y0194243D01*
X-0064614Y0194476D01*
X-0063739Y0194704D01*
X-006244Y0195037D01*
X-0061158Y019536D02*
X-0059891Y0195672D01*
X-0058638Y0195975D01*
X-006244Y0195037D02*
X-0061158Y019536D01*
X-0058638Y0195975D02*
X-0056991Y0196364D01*
X-0072835Y0192193D02*
X-0071889Y0192468D01*
X-0070951Y0192738D01*
X0017879Y0203486D02*
X0020513Y0203339D01*
X0021823Y0203255D01*
X0023128Y0203165D01*
X0012276Y0203705D02*
X0014423Y0203636D01*
X0016289Y0203561D01*
X0017879Y0203486D01*
X0062334Y0196907D02*
X0063358Y019665D01*
X0064384Y0196389D01*
X0061312Y0197159D02*
X0062334Y0196907D01*
X0060291Y0197405D02*
X0061312Y0197159D01*
X0054955Y019862D02*
X0056476Y0198286D01*
X0057746Y0198D01*
X0059017Y0197707D01*
X0060291Y0197405D01*
X-0039939Y0199757D02*
X-0039584Y0199816D01*
X-0056991Y0196364D02*
X-0054568Y0196916D01*
X-0047974Y0198299D02*
X-0046475Y0198589D01*
X-0045363Y0198799D01*
X-0044627Y0198935D01*
X-0043895Y0199068D01*
X-0043167Y0199199D01*
X-0042443Y0199328D01*
X-0041723Y0199453D01*
X-0041007Y0199577D01*
X-0040294Y0199697D01*
X-0039939Y0199757D01*
X-0085957Y0188076D02*
X-008489Y0188431D01*
X-0083833Y0188779D01*
X-0082786Y018912D01*
X-0073789Y0191913D02*
X-0072835Y0192193D01*
X-0076705Y0191036D02*
X-0075724Y0191334D01*
X-0077695Y0190732D02*
X-0076705Y0191036D01*
X-0078694Y0190422D02*
X-0077695Y0190732D01*
X-0079703Y0190106D02*
X-0078694Y0190422D01*
X-0082786Y018912D02*
X-0081748Y0189455D01*
X-0080721Y0189784D01*
X-0079703Y0190106D01*
X-0075724Y0191334D02*
X-0074752Y0191627D01*
X-0073789Y0191913D01*
X-0146379Y0095866D02*
Y016221D01*
Y0095866D02*
X-0139791Y0089278D01*
X-0146379Y016221D02*
X-0143225Y0165364D01*
X-0139791Y0089278D02*
X-0119023D01*
X0140619Y016492D02*
X0144337Y0161202D01*
X0140369Y0165059D02*
X0140619Y016492D01*
X0140124Y0165194D02*
X0140369Y0165059D01*
X0139884Y0165327D02*
X0140124Y0165194D01*
X0139649Y0165457D02*
X0139884Y0165327D01*
X0139419Y0165585D02*
X0139649Y0165457D01*
X0139194Y0165709D02*
X0139419Y0165585D01*
X0138974Y0165831D02*
X0139194Y0165709D01*
X0138758Y016595D02*
X0138974Y0165831D01*
X0138548Y0166067D02*
X0138758Y016595D01*
X0138342Y0166181D02*
X0138548Y0166067D01*
X0138141Y0166292D02*
X0138342Y0166181D01*
X0137944Y0166401D02*
X0138141Y0166292D01*
X0137752Y0166507D02*
X0137944Y0166401D01*
X0137565Y0166611D02*
X0137752Y0166507D01*
X0137382Y0166712D02*
X0137565Y0166611D01*
X0137204Y0166811D02*
X0137382Y0166712D01*
X0137029Y0166907D02*
X0137204Y0166811D01*
X0136859Y0167001D02*
X0137029Y0166907D01*
X0136694Y0167093D02*
X0136859Y0167001D01*
X0136532Y0167182D02*
X0136694Y0167093D01*
X0136375Y0167269D02*
X0136532Y0167182D01*
X0136221Y0167354D02*
X0136375Y0167269D01*
X0136072Y0167437D02*
X0136221Y0167354D01*
X0135927Y0167517D02*
X0136072Y0167437D01*
X0135785Y0167595D02*
X0135927Y0167517D01*
X0135648Y0167671D02*
X0135785Y0167595D01*
X0135514Y0167745D02*
X0135648Y0167671D01*
X0135384Y0167817D02*
X0135514Y0167745D01*
X0135257Y0167886D02*
X0135384Y0167817D01*
X0135135Y0167954D02*
X0135257Y0167886D01*
X0135015Y016802D02*
X0135135Y0167954D01*
X01349Y0168083D02*
X0135015Y016802D01*
X0134788Y0168145D02*
X01349Y0168083D01*
X0134679Y0168205D02*
X0134788Y0168145D01*
X0134574Y0168263D02*
X0134679Y0168205D01*
X0134471Y0168319D02*
X0134574Y0168263D01*
X0134373Y0168374D02*
X0134471Y0168319D01*
X0134277Y0168426D02*
X0134373Y0168374D01*
X0134185Y0168477D02*
X0134277Y0168426D01*
X0134095Y0168526D02*
X0134185Y0168477D01*
X0134009Y0168573D02*
X0134095Y0168526D01*
X0133926Y0168619D02*
X0134009Y0168573D01*
X0133845Y0168663D02*
X0133926Y0168619D01*
X0133768Y0168705D02*
X0133845Y0168663D01*
X0133693Y0168746D02*
X0133768Y0168705D01*
X0133621Y0168785D02*
X0133693Y0168746D01*
X0133552Y0168823D02*
X0133621Y0168785D01*
X0133485Y0168859D02*
X0133552Y0168823D01*
X0133421Y0168894D02*
X0133485Y0168859D01*
X013336Y0168927D02*
X0133421Y0168894D01*
X0133301Y0168959D02*
X013336Y0168927D01*
X0133244Y016899D02*
X0133301Y0168959D01*
X013319Y0169019D02*
X0133244Y016899D01*
X0133138Y0169047D02*
X013319Y0169019D01*
X0133089Y0169073D02*
X0133138Y0169047D01*
X0133041Y0169099D02*
X0133089Y0169073D01*
X0132996Y0169123D02*
X0133041Y0169099D01*
X0132953Y0169146D02*
X0132996Y0169123D01*
X0132912Y0169167D02*
X0132953Y0169146D01*
X0132873Y0169188D02*
X0132912Y0169167D01*
X0132836Y0169208D02*
X0132873Y0169188D01*
X0132801Y0169226D02*
X0132836Y0169208D01*
X0132767Y0169243D02*
X0132801Y0169226D01*
X0132736Y016926D02*
X0132767Y0169243D01*
X0132706Y0169275D02*
X0132736Y016926D01*
X0132678Y0169289D02*
X0132706Y0169275D01*
X0132651Y0169303D02*
X0132678Y0169289D01*
X0132626Y0169315D02*
X0132651Y0169303D01*
X0132603Y0169327D02*
X0132626Y0169315D01*
X0132581Y0169338D02*
X0132603Y0169327D01*
X013256Y0169348D02*
X0132581Y0169338D01*
X0132541Y0169357D02*
X013256Y0169348D01*
X0132523Y0169366D02*
X0132541Y0169357D01*
X0132506Y0169373D02*
X0132523Y0169366D01*
X0132491Y016938D02*
X0132506Y0169373D01*
X0132476Y0169387D02*
X0132491Y016938D01*
X0132463Y0169393D02*
X0132476Y0169387D01*
X0132451Y0169398D02*
X0132463Y0169393D01*
X0132439Y0169402D02*
X0132451Y0169398D01*
X0132429Y0169406D02*
X0132439Y0169402D01*
X0132341Y016942D02*
X0132344Y0169421D01*
X0132338Y016942D02*
X0132341Y016942D01*
X0132334Y0169419D02*
X0132338Y016942D01*
X0132331Y0169418D02*
X0132334Y0169419D01*
X0132213Y0169432D02*
X0132226Y0169429D01*
X0132199Y0169437D02*
X0132213Y0169432D01*
X0132184Y0169441D02*
X0132199Y0169437D01*
X0132168Y0169446D02*
X0132184Y0169441D01*
X013215Y0169452D02*
X0132168Y0169446D01*
X0132131Y0169459D02*
X013215Y0169452D01*
X0132111Y0169466D02*
X0132131Y0169459D01*
X013209Y0169474D02*
X0132111Y0169466D01*
X0132067Y0169482D02*
X013209Y0169474D01*
X0132043Y0169492D02*
X0132067Y0169482D01*
X0132017Y0169501D02*
X0132043Y0169492D01*
X0131989Y0169512D02*
X0132017Y0169501D01*
X013196Y0169524D02*
X0131989Y0169512D01*
X0131929Y0169537D02*
X013196Y0169524D01*
X0131896Y016955D02*
X0131929Y0169537D01*
X0131862Y0169565D02*
X0131896Y016955D01*
X0131826Y016958D02*
X0131862Y0169565D01*
X0131788Y0169597D02*
X0131826Y016958D01*
X0131747Y0169614D02*
X0131788Y0169597D01*
X0131705Y0169633D02*
X0131747Y0169614D01*
X0131661Y0169652D02*
X0131705Y0169633D01*
X0131614Y0169673D02*
X0131661Y0169652D01*
X0131566Y0169695D02*
X0131614Y0169673D01*
X0131515Y0169718D02*
X0131566Y0169695D01*
X0131461Y0169742D02*
X0131515Y0169718D01*
X0131406Y0169767D02*
X0131461Y0169742D01*
X0131348Y0169794D02*
X0131406Y0169767D01*
X0131287Y0169822D02*
X0131348Y0169794D01*
X0131224Y0169852D02*
X0131287Y0169822D01*
X0131159Y0169882D02*
X0131224Y0169852D01*
X013109Y0169914D02*
X0131159Y0169882D01*
X013102Y0169948D02*
X013109Y0169914D01*
X0130946Y0169983D02*
X013102Y0169948D01*
X013087Y0170019D02*
X0130946Y0169983D01*
X013079Y0170057D02*
X013087Y0170019D01*
X0130708Y0170096D02*
X013079Y0170057D01*
X0130623Y0170137D02*
X0130708Y0170096D01*
X0130536Y0170179D02*
X0130623Y0170137D01*
X0130446Y0170223D02*
X0130536Y0170179D01*
X0130352Y0170268D02*
X0130446Y0170223D01*
X0130257Y0170314D02*
X0130352Y0170268D01*
X0130158Y0170362D02*
X0130257Y0170314D01*
X0130057Y0170411D02*
X0130158Y0170362D01*
X0129954Y0170462D02*
X0130057Y0170411D01*
X0129847Y0170514D02*
X0129954Y0170462D01*
X0129738Y0170567D02*
X0129847Y0170514D01*
X0129627Y0170622D02*
X0129738Y0170567D01*
X0129513Y0170678D02*
X0129627Y0170622D01*
X0129396Y0170735D02*
X0129513Y0170678D01*
X0129277Y0170793D02*
X0129396Y0170735D01*
X0129155Y0170853D02*
X0129277Y0170793D01*
X0129031Y0170914D02*
X0129155Y0170853D01*
X0128905Y0170976D02*
X0129031Y0170914D01*
X0128776Y017104D02*
X0128905Y0170976D01*
X0128645Y0171105D02*
X0128776Y017104D01*
X0128511Y0171171D02*
X0128645Y0171105D01*
X0128375Y0171238D02*
X0128511Y0171171D01*
X0128236Y0171306D02*
X0128375Y0171238D01*
X0128095Y0171376D02*
X0128236Y0171306D01*
X0127952Y0171446D02*
X0128095Y0171376D01*
X0127807Y0171518D02*
X0127952Y0171446D01*
X0127659Y0171591D02*
X0127807Y0171518D01*
X0127509Y0171665D02*
X0127659Y0171591D01*
X0127357Y017174D02*
X0127509Y0171665D01*
X0127203Y0171816D02*
X0127357Y017174D01*
X0127046Y0171893D02*
X0127203Y0171816D01*
X0126888Y0171971D02*
X0127046Y0171893D01*
X0126727Y0172051D02*
X0126888Y0171971D01*
X0126564Y0172131D02*
X0126727Y0172051D01*
X0126399Y0172213D02*
X0126564Y0172131D01*
X0126232Y0172295D02*
X0126399Y0172213D01*
X0126062Y0172379D02*
X0126232Y0172295D01*
X0125891Y0172463D02*
X0126062Y0172379D01*
X0125718Y0172548D02*
X0125891Y0172463D01*
X0125543Y0172635D02*
X0125718Y0172548D01*
X0125365Y0172722D02*
X0125543Y0172635D01*
X0125186Y017281D02*
X0125365Y0172722D01*
X0125005Y0172899D02*
X0125186Y017281D01*
X0124822Y0172989D02*
X0125005Y0172899D01*
X0124637Y017308D02*
X0124822Y0172989D01*
X012445Y0173172D02*
X0124637Y017308D01*
X0124261Y0173265D02*
X012445Y0173172D01*
X0124071Y0173358D02*
X0124261Y0173265D01*
X0123879Y0173452D02*
X0124071Y0173358D01*
X0123684Y0173547D02*
X0123879Y0173452D01*
X0123488Y0173643D02*
X0123684Y0173547D01*
X0123291Y017374D02*
X0123488Y0173643D01*
X0123091Y0173838D02*
X0123291Y017374D01*
X012289Y0173936D02*
X0123091Y0173838D01*
X0122687Y0174035D02*
X012289Y0173936D01*
X0122483Y0174135D02*
X0122687Y0174035D01*
X0122277Y0174235D02*
X0122483Y0174135D01*
X0122069Y0174337D02*
X0122277Y0174235D01*
X012186Y0174439D02*
X0122069Y0174337D01*
X0121649Y0174541D02*
X012186Y0174439D01*
X0121436Y0174645D02*
X0121649Y0174541D01*
X0121222Y0174749D02*
X0121436Y0174645D01*
X0121006Y0174853D02*
X0121222Y0174749D01*
X0120789Y0174959D02*
X0121006Y0174853D01*
X0120571Y0175064D02*
X0120789Y0174959D01*
X012035Y0175171D02*
X0120571Y0175064D01*
X0120129Y0175278D02*
X012035Y0175171D01*
X0119906Y0175386D02*
X0120129Y0175278D01*
X0119682Y0175494D02*
X0119906Y0175386D01*
X0119456Y0175603D02*
X0119682Y0175494D01*
X0119229Y0175712D02*
X0119456Y0175603D01*
X0119Y0175822D02*
X0119229Y0175712D01*
X011877Y0175933D02*
X0119Y0175822D01*
X0118539Y0176044D02*
X011877Y0175933D01*
X0118307Y0176155D02*
X0118539Y0176044D01*
X0118073Y0176267D02*
X0118307Y0176155D01*
X0117838Y0176379D02*
X0118073Y0176267D01*
X0117602Y0176492D02*
X0117838Y0176379D01*
X0117365Y0176606D02*
X0117602Y0176492D01*
X0117127Y0176719D02*
X0117365Y0176606D01*
X0116887Y0176833D02*
X0117127Y0176719D01*
X0116646Y0176948D02*
X0116887Y0176833D01*
X0116404Y0177063D02*
X0116646Y0176948D01*
X0116161Y0177178D02*
X0116404Y0177063D01*
X0115917Y0177294D02*
X0116161Y0177178D01*
X0115672Y017741D02*
X0115917Y0177294D01*
X0115426Y0177526D02*
X0115672Y017741D01*
X0115179Y0177643D02*
X0115426Y0177526D01*
X011493Y017776D02*
X0115179Y0177643D01*
X0114681Y0177877D02*
X011493Y017776D01*
X0114431Y0177995D02*
X0114681Y0177877D01*
X011418Y0178113D02*
X0114431Y0177995D01*
X0113928Y0178231D02*
X011418Y0178113D01*
X0113675Y0178349D02*
X0113928Y0178231D01*
X0113421Y0178468D02*
X0113675Y0178349D01*
X0113167Y0178586D02*
X0113421Y0178468D01*
X0112911Y0178706D02*
X0113167Y0178586D01*
X0112655Y0178825D02*
X0112911Y0178706D01*
X0112398Y0178944D02*
X0112655Y0178825D01*
X011214Y0179064D02*
X0112398Y0178944D01*
X0111882Y0179183D02*
X011214Y0179064D01*
X0111622Y0179303D02*
X0111882Y0179183D01*
X0111362Y0179423D02*
X0111622Y0179303D01*
X0111102Y0179543D02*
X0111362Y0179423D01*
X011084Y0179663D02*
X0111102Y0179543D01*
X0110578Y0179784D02*
X011084Y0179663D01*
X0110316Y0179904D02*
X0110578Y0179784D01*
X0110052Y0180024D02*
X0110316Y0179904D01*
X0109789Y0180145D02*
X0110052Y0180024D01*
X0109524Y0180265D02*
X0109789Y0180145D01*
X0109259Y0180386D02*
X0109524Y0180265D01*
X0108994Y0180506D02*
X0109259Y0180386D01*
X0108728Y0180627D02*
X0108994Y0180506D01*
X0108461Y0180747D02*
X0108728Y0180627D01*
X0108194Y0180868D02*
X0108461Y0180747D01*
X0107927Y0180988D02*
X0108194Y0180868D01*
X0107659Y0181108D02*
X0107927Y0180988D01*
X0107391Y0181229D02*
X0107659Y0181108D01*
X0107123Y0181349D02*
X0107391Y0181229D01*
X0106854Y0181469D02*
X0107123Y0181349D01*
X0106585Y0181589D02*
X0106854Y0181469D01*
X0106315Y0181709D02*
X0106585Y0181589D01*
X0106045Y0181828D02*
X0106315Y0181709D01*
X0105775Y0181948D02*
X0106045Y0181828D01*
X0105504Y0182067D02*
X0105775Y0181948D01*
X0105234Y0182187D02*
X0105504Y0182067D01*
X0104963Y0182306D02*
X0105234Y0182187D01*
X0104692Y0182424D02*
X0104963Y0182306D01*
X0104421Y0182543D02*
X0104692Y0182424D01*
X0104149Y0182661D02*
X0104421Y0182543D01*
X0103878Y018278D02*
X0104149Y0182661D01*
X0103606Y0182897D02*
X0103878Y018278D01*
X0103334Y0183015D02*
X0103606Y0182897D01*
X0103062Y0183132D02*
X0103334Y0183015D01*
X010279Y0183249D02*
X0103062Y0183132D01*
X0102519Y0183366D02*
X010279Y0183249D01*
X0102247Y0183483D02*
X0102519Y0183366D01*
X0101975Y0183599D02*
X0102247Y0183483D01*
X0101703Y0183714D02*
X0101975Y0183599D01*
X0101431Y018383D02*
X0101703Y0183714D01*
X0099802Y0184514D02*
X0101431Y018383D01*
X-0087034Y0187715D02*
X-0085957Y0188076D01*
X-0088122Y0187347D02*
X-0087034Y0187715D01*
X-008922Y0186971D02*
X-0088122Y0187347D01*
X-0090329Y018659D02*
X-008922Y0186971D01*
X-0090888Y0186396D02*
X-0090329Y018659D01*
X-0091449Y01862D02*
X-0090888Y0186396D01*
X-0092013Y0186003D02*
X-0091449Y01862D01*
X-0092579Y0185804D02*
X-0092013Y0186003D01*
X-0093148Y0185603D02*
X-0092579Y0185804D01*
X-0093721Y0185401D02*
X-0093148Y0185603D01*
X-0094296Y0185196D02*
X-0093721Y0185401D01*
X-0094873Y018499D02*
X-0094296Y0185196D01*
X-0095454Y0184782D02*
X-0094873Y018499D01*
X-0096037Y0184572D02*
X-0095454Y0184782D01*
X-0096623Y018436D02*
X-0096037Y0184572D01*
X-0097212Y0184146D02*
X-0096623Y018436D01*
X-0097804Y0183931D02*
X-0097212Y0184146D01*
X-0098399Y0183713D02*
X-0097804Y0183931D01*
X-0098997Y0183494D02*
X-0098399Y0183713D01*
X-0099597Y0183273D02*
X-0098997Y0183494D01*
X-0100201Y0183049D02*
X-0099597Y0183273D01*
X-0100807Y0182824D02*
X-0100201Y0183049D01*
X-0101417Y0182597D02*
X-0100807Y0182824D01*
X-010203Y0182368D02*
X-0101417Y0182597D01*
X-0102645Y0182137D02*
X-010203Y0182368D01*
X-0103264Y0181904D02*
X-0102645Y0182137D01*
X-0103885Y0181668D02*
X-0103264Y0181904D01*
X-010451Y0181431D02*
X-0103885Y0181668D01*
X-0105138Y0181192D02*
X-010451Y0181431D01*
X-0105768Y0180951D02*
X-0105138Y0181192D01*
X-0106402Y0180708D02*
X-0105768Y0180951D01*
X-0107039Y0180463D02*
X-0106402Y0180708D01*
X-0107679Y0180216D02*
X-0107039Y0180463D01*
X-0108323Y0179966D02*
X-0107679Y0180216D01*
X-0108969Y0179715D02*
X-0108323Y0179966D01*
X-0109619Y0179461D02*
X-0108969Y0179715D01*
X-0110272Y0179206D02*
X-0109619Y0179461D01*
X-0110928Y0178948D02*
X-0110272Y0179206D01*
X-0111587Y0178688D02*
X-0110928Y0178948D01*
X-011225Y0178426D02*
X-0111587Y0178688D01*
X-0112916Y0178162D02*
X-011225Y0178426D01*
X-0113585Y0177896D02*
X-0112916Y0178162D01*
X-0114257Y0177628D02*
X-0113585Y0177896D01*
X-0114933Y0177357D02*
X-0114257Y0177628D01*
X-0115612Y0177084D02*
X-0114933Y0177357D01*
X-0116295Y0176809D02*
X-0115612Y0177084D01*
X-011698Y0176532D02*
X-0116295Y0176809D01*
X-0117669Y0176253D02*
X-011698Y0176532D01*
X-0118362Y0175971D02*
X-0117669Y0176253D01*
X-0119058Y0175688D02*
X-0118362Y0175971D01*
X-0119757Y0175401D02*
X-0119058Y0175688D01*
X-012046Y0175113D02*
X-0119757Y0175401D01*
X-0121166Y0174823D02*
X-012046Y0175113D01*
X-0121876Y017453D02*
X-0121166Y0174823D01*
X-0122589Y0174235D02*
X-0121876Y017453D01*
X-0123306Y0173937D02*
X-0122589Y0174235D01*
X-0124026Y0173637D02*
X-0123306Y0173937D01*
X-012475Y0173335D02*
X-0124026Y0173637D01*
X-0125478Y0173031D02*
X-012475Y0173335D01*
X-0126208Y0172724D02*
X-0125478Y0173031D01*
X-0126943Y0172415D02*
X-0126208Y0172724D01*
X-0127681Y0172104D02*
X-0126943Y0172415D01*
X-0128423Y017179D02*
X-0127681Y0172104D01*
X-0129168Y0171474D02*
X-0128423Y017179D01*
X-0129917Y0171155D02*
X-0129168Y0171474D01*
X-013067Y0170834D02*
X-0129917Y0171155D01*
X-0131427Y0170511D02*
X-013067Y0170834D01*
X-0132187Y0170185D02*
X-0131427Y0170511D01*
X-013295Y0169857D02*
X-0132187Y0170185D01*
X-0133718Y0169526D02*
X-013295Y0169857D01*
X-0134489Y0169193D02*
X-0133718Y0169526D01*
X-0135264Y0168857D02*
X-0134489Y0169193D01*
X-0136043Y0168519D02*
X-0135264Y0168857D01*
X-0136826Y0168179D02*
X-0136043Y0168519D01*
X-0137612Y0167836D02*
X-0136826Y0168179D01*
X-0138402Y016749D02*
X-0137612Y0167836D01*
X-0139197Y0167142D02*
X-0138402Y016749D01*
X-0139995Y0166791D02*
X-0139197Y0167142D01*
X-0140796Y0166438D02*
X-0139995Y0166791D01*
X-0141602Y0166083D02*
X-0140796Y0166438D01*
X-0142412Y0165724D02*
X-0141602Y0166083D01*
X-0143225Y0165364D02*
X-0142412Y0165724D01*
X-0119023Y0089278D02*
X-0113111Y0083366D01*
X0144337Y0098091D02*
Y0161202D01*
X0135529Y0089283D02*
X0144337Y0098091D01*
X-0167672Y-0002212D02*
X-0157222Y0008238D01*
X-0167672Y-0068423D02*
Y-0002212D01*
X-0157222Y0008238D02*
X-0138875D01*
X-0119233D02*
X-0113111Y001436D01*
X-0138875Y0008238D02*
X-0119233D01*
X-0113111Y001436D02*
Y0072119D01*
X0163361Y-0068229D02*
Y-000254D01*
X0152541Y000828D02*
X0163361Y-000254D01*
X010885Y0070961D02*
Y0083332D01*
X0114801Y0089283D01*
X0135529D01*
X-0113111Y0072119D02*
Y0083366D01*
X0114572Y000828D02*
X0152541D01*
X010885Y0014002D02*
X0114572Y000828D01*
X010885Y0014002D02*
Y0070961D01*
X-0141077Y-0095824D02*
Y-0095018D01*
X-0167672Y-0068423D02*
X-0158807Y-0077288D01*
X-0127522Y-0132348D02*
X-0114063Y-0145808D01*
X-0141077Y-0118793D02*
X-0127522Y-0132348D01*
X0136831Y-0118686D02*
Y-0102347D01*
X-0158807Y-0077288D02*
X-0141077Y-0095018D01*
Y-0118793D02*
Y-0095824D01*
X0154754Y-0076836D02*
X0163361Y-0068229D01*
X0136831Y-009476D02*
X0150471Y-008112D01*
X0136831Y-0102347D02*
Y-009476D01*
X-0114063Y-0145808D02*
X-0104914Y-0154956D01*
X0150471Y-008112D02*
X0154754Y-0076836D01*
D84*
X-0144847Y-0132398D02*
G03*
X-0144847Y-0132398I-0000013J0D01*
G01*
M02*
