G04*
G04 #@! TF.GenerationSoftware,Altium Limited,Altium Designer,26.2.0 (7)*
G04*
G04 Layer_Color=32768*
%FSTAX25Y25*%
%MOIN*%
G70*
G04*
G04 #@! TF.SameCoordinates,DDC7E0C6-02D7-4959-A8D0-6A7BEAAAFFDF*
G04*
G04*
G04 #@! TF.FilePolarity,Positive*
G04*
G01*
G75*
%ADD12C,0.00500*%
%ADD15C,0.00394*%
%ADD85C,0.00197*%
D12*
X0143235Y0105219D02*
G03*
X0143235Y0105219I-0014173J0D01*
G01*
X0028206Y0162697D02*
G03*
X0028206Y0162697I-0014173J0D01*
G01*
X0000654Y0160672D02*
G03*
X0000654Y0160672I-0014173J0D01*
G01*
X-011763Y0103561D02*
G03*
X-011763Y0103561I-0014173J0D01*
G01*
D15*
X0073746Y0077997D02*
Y0081934D01*
X0071777Y0079965D02*
X0075714D01*
X0062117Y0079976D02*
X0066054D01*
X0064086Y0078008D02*
Y0081945D01*
X0048591Y0079917D02*
X0052528D01*
X005056Y0077949D02*
Y0081886D01*
X007785Y-0107899D02*
Y-010593D01*
X0076865Y-0106915D02*
X0078834D01*
X-0040928Y0071342D02*
X-0036991D01*
X-0038959Y0069373D02*
Y007331D01*
X-0060894Y0087898D02*
X-0056957D01*
X-0058925Y0085929D02*
Y0089866D01*
X0045025Y0169161D02*
X0046417Y0170553D01*
X0045025D02*
X0046417Y0169161D01*
X-0075613Y0094063D02*
X-0071676D01*
X-0073645Y0092094D02*
Y0096031D01*
X-0050982Y0088006D02*
X-0047045D01*
X-0049013Y0086038D02*
Y0089975D01*
X-0029581Y0118119D02*
Y0122056D01*
X-0031549Y0120088D02*
X-0027612D01*
X0101513Y-014157D02*
Y-0137634D01*
X0099545Y-0139602D02*
X0103481D01*
X0049447Y0100276D02*
Y0104213D01*
X0047478Y0102244D02*
X0051415D01*
X-0059055Y0085832D02*
Y0089769D01*
X-0061024Y00878D02*
X-0057087D01*
X-0129048Y015551D02*
X-0127656Y0156902D01*
X-0129048D02*
X-0127656Y015551D01*
X0050793Y0087846D02*
Y0091783D01*
X0048825Y0089814D02*
X0052762D01*
X-0045531Y0167932D02*
X-0044139Y0169324D01*
X-0045531D02*
X-0044139Y0167932D01*
X-0040666Y0170134D02*
X-0037882Y016735D01*
X-0040666D02*
X-0037882Y0170134D01*
X0067335Y0106826D02*
Y0110763D01*
X0065367Y0108795D02*
X0069304D01*
X0038831Y0168336D02*
X0041615Y017112D01*
X0038831D02*
X0041615Y0168336D01*
X-0035617Y0065876D02*
Y0069813D01*
X-0037585Y0067844D02*
X-0033648D01*
X0099199Y-0090257D02*
X0103136D01*
X0101168Y-0092225D02*
Y-0088288D01*
X010161Y-01224D02*
Y-0118463D01*
X0099641Y-0120431D02*
X0103578D01*
X0087686Y-0125731D02*
Y-0121794D01*
X0085717Y-0123763D02*
X0089654D01*
X-0054651Y0116609D02*
X-0050714D01*
X-0052682Y0114641D02*
Y0118578D01*
X011593Y0161443D02*
X0118714Y0164227D01*
X011593D02*
X0118714Y0161443D01*
X-0122577Y0164364D02*
X-0119793Y016158D01*
X-0122577Y016158D02*
X-0119793Y0164364D01*
X0072074Y0115416D02*
X0076011D01*
X0074042Y0113447D02*
Y0117384D01*
X0070698Y0110101D02*
Y0114038D01*
X0068729Y0112069D02*
X0072666D01*
X0060857Y0110132D02*
Y0114068D01*
X0058888Y01121D02*
X0062825D01*
X0055631Y0117044D02*
X0059568D01*
X0057599Y0115076D02*
Y0119013D01*
X-0054718Y0116542D02*
X-0050781D01*
X-0052749Y0114574D02*
Y0118511D01*
X-0064203Y0074571D02*
X-0060266D01*
X-0062235Y0072602D02*
Y0076539D01*
X-005373Y009999D02*
Y0103928D01*
X-0055699Y0101959D02*
X-0051762D01*
X-0048968Y0078616D02*
Y0082553D01*
X-0050937Y0080585D02*
X-0047D01*
X-0129891Y0157469D02*
X-0127107Y0154685D01*
X-0129891D02*
X-0127107Y0157469D01*
X0068782Y0092242D02*
Y0096179D01*
X0066814Y009421D02*
X0070751D01*
X0123562Y0155497D02*
X0124954Y0156889D01*
X0123562D02*
X0124954Y0155497D01*
X0062026Y0079986D02*
X0065963D01*
X0063994Y0078018D02*
Y0081955D01*
X0123192Y0157054D02*
X0125976Y015427D01*
X0123192D02*
X0125976Y0157054D01*
X0073552Y-0113348D02*
Y-0109411D01*
X0071584Y-011138D02*
X0075521D01*
X0071703Y-0091563D02*
X007564D01*
X0073672Y-0093532D02*
Y-0089595D01*
X0071736Y-0101585D02*
X0075673D01*
X0073705Y-0103553D02*
Y-0099616D01*
X0099205Y-0107006D02*
X0103142D01*
X0101173Y-0108974D02*
Y-0105037D01*
X0073782Y0078015D02*
Y0081952D01*
X0071813Y0079984D02*
X007575D01*
X-0041488Y0119931D02*
X-0037551D01*
X-003952Y0117963D02*
Y01219D01*
D85*
X0109124Y-001712D02*
Y0074848D01*
X-0111309Y-001712D02*
X0109124D01*
X-0111309D02*
Y0074848D01*
X0109124D01*
X-012492Y0131965D02*
X-0094409D01*
X-012492Y0106768D02*
Y0131965D01*
Y0106768D02*
X-0094409D01*
Y0131965D01*
X0068824Y008843D02*
X0078667D01*
X0068824Y0071501D02*
X0078667D01*
Y008843D01*
X0068824Y0071501D02*
Y008843D01*
X0059165Y0071511D02*
Y0088441D01*
X0069007Y0071511D02*
Y0088441D01*
X0059165Y0071511D02*
X0069007D01*
X0059165Y0088441D02*
X0069007D01*
X0058828Y0074996D02*
Y0084839D01*
X0042292Y0074996D02*
Y0084839D01*
Y0074996D02*
X0058828D01*
X0042292Y0084839D02*
X0058828D01*
X0084627Y-0113928D02*
Y-0077314D01*
X012006D01*
Y-0113928D02*
Y-0077314D01*
X0084627Y-0113928D02*
X012006D01*
X0075094Y-0113804D02*
Y-0100025D01*
Y-0113804D02*
X0080606D01*
Y-0100025D01*
X0075094D02*
X0080606D01*
X-0043881Y0062877D02*
Y0079806D01*
X-0034038Y0062877D02*
Y0079806D01*
X-0043881Y0062877D02*
X-0034038D01*
X-0043881Y0079806D02*
X-0034038D01*
X-0063846Y007963D02*
Y0096165D01*
X-0054004Y007963D02*
Y0096165D01*
X-0063846Y007963D02*
X-0054004D01*
X-0063846Y0096165D02*
X-0054004D01*
X00389Y0166934D02*
X0048644Y0176678D01*
X00389Y0166934D02*
X0042798Y0163037D01*
X0052541Y017278D01*
X0048644Y0176678D02*
X0052541Y017278D01*
X-008329Y0103709D02*
X-0063999D01*
X-008329Y0088413D02*
Y0103709D01*
X-0063999Y0088413D02*
Y0103709D01*
X-008329Y0088413D02*
X-0063999D01*
X-0044092Y0079739D02*
Y0096274D01*
X-0053935Y0079739D02*
Y0096274D01*
X-0044092D01*
X-0053935Y0079739D02*
X-0044092D01*
X-0034502Y0128552D02*
X-0024659D01*
X-0034502Y0111623D02*
X-0024659D01*
Y0128552D01*
X-0034502Y0111623D02*
Y0128552D01*
X0093048Y-0144523D02*
X0109978D01*
X0093048Y-0134681D02*
X0109978D01*
Y-0144523D02*
Y-0134681D01*
X0093048Y-0144523D02*
Y-0134681D01*
X0039801Y0096595D02*
X0059092D01*
Y011189D01*
X0039801Y0096595D02*
Y011189D01*
X0059092D01*
X-0063976Y0096265D02*
X-0054134D01*
X-0063976Y0079336D02*
X-0054134D01*
X-0063976D02*
Y0096265D01*
X-0054134Y0079336D02*
Y0096265D01*
X-0059103Y0144766D02*
X-0037528Y0166341D01*
X-0059103Y0144766D02*
X-0041286Y0126949D01*
X-0019711Y0148524D01*
X-0037528Y0166341D02*
X-0019711Y0148524D01*
X-0125429Y0149385D02*
X-0121531Y0153283D01*
X-0135172Y0159129D02*
X-0125429Y0149385D01*
X-0135172Y0159129D02*
X-0131275Y0163026D01*
X-0121531Y0153283D01*
X0042526Y0094735D02*
X0059061D01*
X0042526Y0084893D02*
X0059061D01*
X0042526D02*
Y0094735D01*
X0059061Y0084893D02*
Y0094735D01*
X-0051656Y0171551D02*
X-0047758Y0175449D01*
X-0038015Y0165705D01*
X-0041912Y0161807D02*
X-0038015Y0165705D01*
X-0051656Y0171551D02*
X-0041912Y0161807D01*
X-004164Y0159416D02*
X-0029948Y0171108D01*
X-00486Y0166375D02*
X-0036907Y0178068D01*
X-00486Y0166375D02*
X-004164Y0159416D01*
X-0036907Y0178068D02*
X-0029948Y0171108D01*
X0059068Y0113716D02*
X0075603D01*
X0059068Y0103874D02*
X0075603D01*
X0059068D02*
Y0113716D01*
X0075603Y0103874D02*
Y0113716D01*
X0035085Y0168046D02*
X005666Y0146471D01*
X0017268Y015023D02*
X0035085Y0168046D01*
X0017268Y015023D02*
X0038843Y0128655D01*
X005666Y0146471D01*
X0030897Y0172095D02*
X0042589Y0160402D01*
X0037857Y0179054D02*
X0049549Y0167362D01*
X0030897Y0172095D02*
X0037857Y0179054D01*
X0042589Y0160402D02*
X0049549Y0167362D01*
X-0043885Y0072765D02*
X-0027349D01*
X-0043885Y0062923D02*
X-0027349D01*
Y0072765D01*
X-0043885Y0062923D02*
Y0072765D01*
X0106089Y-0098721D02*
Y-0081792D01*
X0096246Y-0098721D02*
Y-0081792D01*
Y-0098721D02*
X0106089D01*
X0096246Y-0081792D02*
X0106089D01*
X0093145Y-011551D02*
X0110074D01*
X0093145Y-0125353D02*
X0110074D01*
X0093145D02*
Y-011551D01*
X0110074Y-0125353D02*
Y-011551D01*
X0082765Y-013203D02*
X0092607D01*
X0082765Y-0115495D02*
X0092607D01*
X0082765Y-013203D02*
Y-0115495D01*
X0092607Y-013203D02*
Y-0115495D01*
X0116679Y0106463D02*
Y0131659D01*
X0086167Y0106463D02*
X0116679D01*
X0086167D02*
Y0131659D01*
X0116679D01*
X-0044415Y0111688D02*
Y0121531D01*
X-006095Y0111688D02*
Y0121531D01*
Y0111688D02*
X-0044415D01*
X-006095Y0121531D02*
X-0044415D01*
X0107996Y0160469D02*
X0114955Y0153509D01*
X0119688Y0172161D02*
X0126648Y0165202D01*
X0114955Y0153509D02*
X0126648Y0165202D01*
X0107996Y0160469D02*
X0119688Y0172161D01*
X-0118819Y0153646D02*
X-0111859Y0160605D01*
X-0130511Y0165338D02*
X-0123551Y0172298D01*
X-0111859Y0160605D01*
X-0130511Y0165338D02*
X-0118819Y0153646D01*
X0065775Y0110494D02*
Y0120337D01*
X008231Y0110494D02*
Y0120337D01*
X0065775D02*
X008231D01*
X0065775Y0110494D02*
X008231D01*
X0065776Y0103802D02*
X0075619D01*
X0065776Y0120337D02*
X0075619D01*
Y0103802D02*
Y0120337D01*
X0065776Y0103802D02*
Y0120337D01*
X0055935Y0103832D02*
X0065778D01*
X0055935Y0120368D02*
X0065778D01*
Y0103832D02*
Y0120368D01*
X0055935Y0103832D02*
Y0120368D01*
X0049332Y0112123D02*
Y0121966D01*
X0065867Y0112123D02*
Y0121966D01*
X0049332D02*
X0065867D01*
X0049332Y0112123D02*
X0065867D01*
X-0044482Y0111621D02*
Y0121464D01*
X-0061017Y0111621D02*
Y0121464D01*
X-0044482D01*
X-0061017Y0111621D02*
X-0044482D01*
X-0053967Y006965D02*
Y0079492D01*
X-0070502Y006965D02*
Y0079492D01*
X-0053967D01*
X-0070502Y006965D02*
X-0053967D01*
X-0063376Y0096309D02*
X-0044085D01*
Y0111605D01*
X-0063376Y0096309D02*
Y0111605D01*
X-0044085D01*
X-005389Y008905D02*
X-0044047D01*
X-005389Y007212D02*
X-0044047D01*
X-005389D02*
Y008905D01*
X-0044047Y007212D02*
Y008905D01*
X-0137825Y0158443D02*
X-0130865Y0165403D01*
X-0126133Y0146751D02*
X-0119173Y0153711D01*
X-0137825Y0158443D02*
X-0126133Y0146751D01*
X-0130865Y0165403D02*
X-0119173Y0153711D01*
X0059137Y0088561D02*
X0078428D01*
Y0103856D01*
X0059137Y0088561D02*
Y0103856D01*
X0078428D01*
X0121335Y0149372D02*
X0131078Y0159116D01*
X0127181Y0163013D02*
X0131078Y0159116D01*
X0117437Y015327D02*
X0127181Y0163013D01*
X0117437Y015327D02*
X0121335Y0149372D01*
X0068916Y0071522D02*
Y0088451D01*
X0059073Y0071522D02*
Y0088451D01*
Y0071522D02*
X0068916D01*
X0059073Y0088451D02*
X0068916D01*
X0122218Y0146336D02*
X013391Y0158028D01*
X0115258Y0153296D02*
X0126951Y0164988D01*
X0115258Y0153296D02*
X0122218Y0146336D01*
X0126951Y0164988D02*
X013391Y0158028D01*
X0065285Y-0116301D02*
X008182D01*
X0065285Y-0106459D02*
X008182D01*
X0065285Y-0116301D02*
Y-0106459D01*
X008182Y-0116301D02*
Y-0106459D01*
X0082137Y-0096485D02*
Y-0086642D01*
X0065207Y-0096485D02*
Y-0086642D01*
X0082137D01*
X0065207Y-0096485D02*
X0082137D01*
X0082169Y-0106506D02*
Y-0096663D01*
X006524Y-0106506D02*
Y-0096663D01*
X0082169D01*
X006524Y-0106506D02*
X0082169D01*
X0106095Y-0115274D02*
Y-0098738D01*
X0096252Y-0115274D02*
Y-0098738D01*
Y-0115274D02*
X0106095D01*
X0096252Y-0098738D02*
X0106095D01*
X0068861Y0088448D02*
X0078703D01*
X0068861Y0071519D02*
X0078703D01*
X0068861D02*
Y0088448D01*
X0078703Y0071519D02*
Y0088448D01*
X-0044441Y0111663D02*
Y0128199D01*
X-0034598Y0111663D02*
Y0128199D01*
X-0044441Y0111663D02*
X-0034598D01*
X-0044441Y0128199D02*
X-0034598D01*
M02*
