G04*
G04 #@! TF.GenerationSoftware,Altium Limited,Altium Designer,26.2.0 (7)*
G04*
G04 Layer_Physical_Order=2*
G04 Layer_Color=16711680*
%FSTAX25Y25*%
%MOIN*%
G70*
G04*
G04 #@! TF.SameCoordinates,DDC7E0C6-02D7-4959-A8D0-6A7BEAAAFFDF*
G04*
G04*
G04 #@! TF.FilePolarity,Positive*
G04*
G01*
G75*
%ADD14C,0.01000*%
%ADD18R,0.05906X0.05512*%
%ADD19R,0.04724X0.05709*%
%ADD21R,0.05709X0.04724*%
%ADD23R,0.05512X0.05906*%
%ADD48C,0.06102*%
%ADD49R,0.06102X0.06102*%
%ADD52C,0.02000*%
%ADD53C,0.01500*%
%ADD54C,0.04756*%
%ADD55R,0.05937X0.05937*%
%ADD56C,0.05937*%
%ADD57O,0.05906X0.11811*%
%ADD58C,0.13780*%
%ADD59C,0.07874*%
%ADD60C,0.09449*%
%ADD61C,0.05150*%
%ADD62R,0.05150X0.05150*%
%ADD63R,0.07874X0.06299*%
%ADD64O,0.07874X0.06299*%
%ADD65R,0.04134X0.04134*%
%ADD66C,0.04134*%
%ADD67R,0.05937X0.05937*%
%ADD68P,0.08396X4X360.0*%
%ADD69P,0.08396X4X90.0*%
%ADD70O,0.06787X0.07575*%
%ADD71C,0.04000*%
%ADD72C,0.02000*%
%ADD73C,0.01000*%
G04:AMPARAMS|DCode=74|XSize=57.09mil|YSize=47.24mil|CornerRadius=0mil|HoleSize=0mil|Usage=FLASHONLY|Rotation=135.000|XOffset=0mil|YOffset=0mil|HoleType=Round|Shape=Rectangle|*
%AMROTATEDRECTD74*
4,1,4,0.03689,-0.00348,0.00348,-0.03689,-0.03689,0.00348,-0.00348,0.03689,0.03689,-0.00348,0.0*
%
%ADD74ROTATEDRECTD74*%

G04:AMPARAMS|DCode=75|XSize=57.09mil|YSize=47.24mil|CornerRadius=0mil|HoleSize=0mil|Usage=FLASHONLY|Rotation=45.000|XOffset=0mil|YOffset=0mil|HoleType=Round|Shape=Rectangle|*
%AMROTATEDRECTD75*
4,1,4,-0.00348,-0.03689,-0.03689,-0.00348,0.00348,0.03689,0.03689,0.00348,-0.00348,-0.03689,0.0*
%
%ADD75ROTATEDRECTD75*%

G04:AMPARAMS|DCode=76|XSize=39.54mil|YSize=125.28mil|CornerRadius=17.2mil|HoleSize=0mil|Usage=FLASHONLY|Rotation=180.000|XOffset=0mil|YOffset=0mil|HoleType=Round|Shape=RoundedRectangle|*
%AMROUNDEDRECTD76*
21,1,0.03954,0.09088,0,0,180.0*
21,1,0.00514,0.12528,0,0,180.0*
1,1,0.03440,-0.00257,0.04544*
1,1,0.03440,0.00257,0.04544*
1,1,0.03440,0.00257,-0.04544*
1,1,0.03440,-0.00257,-0.04544*
%
%ADD76ROUNDEDRECTD76*%
G04:AMPARAMS|DCode=77|XSize=39.54mil|YSize=34.34mil|CornerRadius=17.17mil|HoleSize=0mil|Usage=FLASHONLY|Rotation=180.000|XOffset=0mil|YOffset=0mil|HoleType=Round|Shape=RoundedRectangle|*
%AMROUNDEDRECTD77*
21,1,0.03954,0.00000,0,0,180.0*
21,1,0.00520,0.03434,0,0,180.0*
1,1,0.03434,-0.00260,0.00000*
1,1,0.03434,0.00260,0.00000*
1,1,0.03434,0.00260,0.00000*
1,1,0.03434,-0.00260,0.00000*
%
%ADD77ROUNDEDRECTD77*%
%ADD78R,0.03954X0.03434*%
G36*
X0016348Y0203467D02*
X0022812Y0203098D01*
X0033108Y0202104D01*
X0040358Y0201158D01*
X0044639Y0200468D01*
X00499Y0199506D01*
X0056283Y0198191D01*
X0068408Y0195161D01*
X0078639Y0192113D01*
X0085118Y0189948D01*
X0092656Y0187157D01*
X0098349Y0184896D01*
X0106753Y0181287D01*
X0113104Y0178401D01*
X0117691Y0176236D01*
X0122615Y0173894D01*
X0129094Y0170655D01*
X0132879Y0168938D01*
X0138877Y0165683D01*
X01404Y0164785D01*
X0144153Y0161112D01*
X014413Y0097999D01*
X0135296Y0089184D01*
X0114592Y0089187D01*
X0108636Y0083235D01*
X0108645Y0013912D01*
X0114354Y0008178D01*
X0152318Y0008179D01*
X016314Y-0002645D01*
X0163146Y-0068325D01*
X0136615Y-0094867D01*
Y-0118781D01*
X0087248Y-0168152D01*
X-0092076Y-0168154D01*
X-0141284Y-0118803D01*
X-0141287Y-0095824D01*
X-0140287Y-009541D01*
X-0139122Y-0096574D01*
Y-011842D01*
X-0139021Y-0118927D01*
X-0138734Y-0119357D01*
X-0110527Y-0147564D01*
X-0110097Y-0147851D01*
X-010959Y-0147952D01*
X-0066011D01*
X-0065504Y-0147851D01*
X-0065074Y-0147564D01*
X-0024449Y-0106939D01*
X-0019653D01*
X-0019146Y-0106838D01*
X-0018716Y-0106551D01*
X-0008848Y-0096683D01*
X-0008833Y-009666D01*
X-000772Y-0096533D01*
X-0007652Y-0096556D01*
X-000747Y-0096793D01*
X-0006594Y-0097465D01*
X-0005574Y-0097888D01*
X-0004479Y-0098032D01*
X-0003384Y-0097888D01*
X-0002364Y-0097465D01*
X-0001488Y-0096793D01*
X-0000816Y-0095917D01*
X-0000393Y-0094897D01*
X-0000249Y-0093802D01*
Y-0093015D01*
X-0000393Y-009192D01*
X-0000816Y-00909D01*
X-0001488Y-0090024D01*
X-0002364Y-0089351D01*
X-0003384Y-0088929D01*
X-0004479Y-0088785D01*
X-0005574Y-0088929D01*
X-0006594Y-0089351D01*
X-000747Y-0090024D01*
X-0008142Y-00909D01*
X-0008565Y-009192D01*
X-0009544Y-009208D01*
X-0009943Y-0092005D01*
X-0010549Y-0091544D01*
X-0010816Y-00909D01*
X-0011488Y-0090024D01*
X-0012364Y-0089351D01*
X-0013384Y-0088929D01*
X-0014479Y-0088785D01*
X-0015574Y-0088929D01*
X-0016594Y-0089351D01*
X-001747Y-0090024D01*
X-0018142Y-00909D01*
X-0018565Y-009192D01*
X-0018709Y-0093015D01*
Y-0093802D01*
X-0018612Y-0094541D01*
X-0019553Y-0095482D01*
X-0020401Y-0094916D01*
X-0020393Y-0094897D01*
X-0020249Y-0093802D01*
Y-0093015D01*
X-0020393Y-009192D01*
X-0020816Y-00909D01*
X-0021488Y-0090024D01*
X-0022364Y-0089351D01*
X-0023384Y-0088929D01*
X-0024479Y-0088785D01*
X-0025574Y-0088929D01*
X-0026594Y-0089351D01*
X-002747Y-0090024D01*
X-0028142Y-00909D01*
X-0028565Y-009192D01*
X-0028709Y-0093015D01*
Y-0093802D01*
X-0028565Y-0094897D01*
X-0028142Y-0095917D01*
X-002747Y-0096793D01*
X-0026594Y-0097465D01*
X-0025574Y-0097888D01*
X-0024479Y-0098032D01*
X-0023384Y-0097888D01*
X-0023366Y-009788D01*
X-0022799Y-0098728D01*
X-0039504Y-0115433D01*
X-0040428Y-011505D01*
Y-0085683D01*
X-0038651D01*
X-0038556Y-0085702D01*
X000129D01*
X0003725Y-0088137D01*
X0003492Y-0089316D01*
X0003406Y-0089351D01*
X000253Y-0090024D01*
X0001858Y-00909D01*
X0001435Y-009192D01*
X0001291Y-0093015D01*
Y-0093802D01*
X0001435Y-0094897D01*
X0001858Y-0095917D01*
X000253Y-0096793D01*
X0003406Y-0097465D01*
X0004426Y-0097888D01*
X0005521Y-0098032D01*
X0006616Y-0097888D01*
X0007636Y-0097465D01*
X0008512Y-0096793D01*
X0009184Y-0095917D01*
X0009607Y-0094897D01*
X0009751Y-0093802D01*
Y-0093015D01*
X0009607Y-009192D01*
X0009184Y-00909D01*
X0008512Y-0090024D01*
X0007636Y-0089351D01*
X0006846Y-0089024D01*
Y-0088059D01*
X0006745Y-0087551D01*
X0006458Y-0087121D01*
X0002776Y-0083439D01*
X0002346Y-0083152D01*
X0001839Y-0083051D01*
X-0038481D01*
X-0038575Y-0083032D01*
X-0041168D01*
X-0041675Y-0083133D01*
X-0042105Y-008342D01*
X-0042691Y-0084006D01*
X-0042978Y-0084436D01*
X-0043079Y-0084943D01*
Y-0116462D01*
X-0067644Y-0141027D01*
X-008698D01*
X-008715Y-0140993D01*
X-0106622D01*
X-0131406Y-011621D01*
Y-0094443D01*
X-0131507Y-0093936D01*
X-0131794Y-0093506D01*
X-0141456Y-0083843D01*
Y-0082605D01*
X-0141414Y-0082541D01*
X-0141313Y-0082033D01*
Y-0069264D01*
X-0141414Y-0068757D01*
X-0141701Y-0068326D01*
X-0144773Y-0065255D01*
X-0145203Y-0064968D01*
X-014571Y-0064867D01*
X-0156729D01*
Y-0018865D01*
X-0152837Y-0014972D01*
X-012189D01*
X-0121383Y-0014871D01*
X-0120953Y-0014584D01*
X-009594Y0010429D01*
X-0095653Y0010859D01*
X-0095552Y0011366D01*
Y0036603D01*
X-0086906Y0045249D01*
X-0056893D01*
X-0056798Y0044995D01*
X-0056726Y0044249D01*
X-0056992Y0044071D01*
X-0098755Y0002309D01*
X-0098871Y0002376D01*
X-0099829Y0002632D01*
X-0100821D01*
X-010178Y0002376D01*
X-0102639Y0001879D01*
X-0103341Y0001178D01*
X-0103837Y0000318D01*
X-0104094Y-000064D01*
Y-0001632D01*
X-0103837Y-0002591D01*
X-0103341Y-000345D01*
X-0102639Y-0004152D01*
X-010178Y-0004648D01*
X-0100821Y-0004905D01*
X-0099829D01*
X-0098871Y-0004648D01*
X-0098011Y-0004152D01*
X-009731Y-000345D01*
X-0096813Y-0002591D01*
X-0096557Y-0001632D01*
Y-000064D01*
X-0096813Y0000318D01*
X-009688Y0000434D01*
X-0055506Y0041809D01*
X0093241D01*
X0093749Y004191D01*
X0094179Y0042197D01*
X0100696Y0048714D01*
X0100983Y0049144D01*
X0101084Y0049652D01*
Y0082786D01*
X0112648Y009435D01*
X0135653D01*
X013616Y0094451D01*
X013659Y0094738D01*
X014082Y0098969D01*
X0141108Y0099399D01*
X0141209Y0099906D01*
Y0134744D01*
X0141108Y0135251D01*
X014082Y0135681D01*
X0125296Y0151206D01*
X012662Y015253D01*
X0122249Y0156901D01*
X0122362Y0157933D01*
X0123098Y0158244D01*
X0127716Y0153626D01*
X0132188Y0158098D01*
X0129774Y0160512D01*
X0129744Y0160564D01*
X0129223Y0161085D01*
X012917Y0161116D01*
X012702Y0163266D01*
X0124124Y0160369D01*
X0123124Y0160784D01*
Y016251D01*
X0122984Y0163212D01*
X0122937Y0163283D01*
X0124926Y0165271D01*
X0119758Y0170439D01*
X0117121Y0167803D01*
X0080951D01*
X0057342Y0191412D01*
X0056746Y019181D01*
X0056044Y019195D01*
X-0055879D01*
X-0056581Y019181D01*
X-0057177Y0191412D01*
X-008065Y0167939D01*
X-0120984D01*
X-0123621Y0170575D01*
X-0126954Y0167243D01*
X-0132187D01*
X-0132889Y0167103D01*
X-0133485Y0166705D01*
X-0141197Y0158993D01*
X-0141595Y0158398D01*
X-0141734Y0157695D01*
Y0153212D01*
X-0141699Y0153035D01*
Y0152854D01*
X-014163Y0152687D01*
X-0141595Y015251D01*
X-0141494Y0152359D01*
X-0141425Y0152192D01*
X-0141297Y0152065D01*
X-0141197Y0151914D01*
X-0141047Y0151814D01*
X-0140919Y0151686D01*
X-0140752Y0151617D01*
X-0140601Y0151517D01*
X-0140424Y0151481D01*
X-0140257Y0151412D01*
X-0140076D01*
X-0139899Y0151377D01*
X-0139722Y0151412D01*
X-0139541D01*
X-0139374Y0151481D01*
X-0139197Y0151517D01*
X-0139046Y0151617D01*
X-0138879Y0151686D01*
X-0138752Y0151814D01*
X-0138601Y0151914D01*
X-0138501Y0152065D01*
X-0138373Y0152192D01*
X-0138304Y0152359D01*
X-0138204Y015251D01*
X-0138168Y0152687D01*
X-0138099Y0152854D01*
Y0153035D01*
X-0138064Y0153212D01*
Y0156935D01*
X-0136922Y0158077D01*
X-0136103Y0158513D01*
X-0131631Y0154041D01*
X-0126463Y0159209D01*
X-0129902Y0162648D01*
X-0129519Y0163572D01*
X-0126954D01*
X-0124317Y0160935D01*
X-0121023Y0164229D01*
X-0120197Y0164145D01*
X-0119834Y0163227D01*
X-0123221Y015984D01*
X-0119759Y0156377D01*
X-0119686Y0156269D01*
X-0116692Y0153274D01*
Y0150711D01*
X-0117462Y0150161D01*
X-0117692Y0150101D01*
X-0118298Y0150263D01*
X-0119035D01*
X-0119474Y0150146D01*
X-0121932Y0152604D01*
X-0120895Y0153641D01*
X-0125367Y0158113D01*
X-0130535Y0152945D01*
X-0126063Y0148473D01*
X-0123807Y0150729D01*
X-0121349Y0148271D01*
X-0121466Y0147832D01*
Y0147095D01*
X-0121275Y0146383D01*
X-0120907Y0145744D01*
X-0120385Y0145223D01*
X-0119747Y0144854D01*
X-0119035Y0144663D01*
X-0118298D01*
X-0117692Y0144826D01*
X-0117462Y0144766D01*
X-0116692Y0144216D01*
Y0140628D01*
X-013774Y0119579D01*
X-0138028Y0119149D01*
X-0138129Y0118642D01*
Y0107107D01*
X-0138258Y0107073D01*
X-0139117Y0106577D01*
X-0139819Y0105875D01*
X-0140315Y0105016D01*
X-0140572Y0104057D01*
Y0103065D01*
X-0140315Y0102106D01*
X-0139819Y0101247D01*
X-0139117Y0100546D01*
X-0138258Y0100049D01*
X-0137299Y0099792D01*
X-0136307D01*
X-0135349Y0100049D01*
X-0134489Y0100546D01*
X-0133788Y0101247D01*
X-0133291Y0102106D01*
X-0133035Y0103065D01*
Y0104057D01*
X-0133291Y0105016D01*
X-0133788Y0105875D01*
X-0134489Y0106577D01*
X-0135349Y0107073D01*
X-0135478Y0107107D01*
Y0118093D01*
X-0114429Y0139141D01*
X-0114142Y0139571D01*
X-0114041Y0140079D01*
Y0153823D01*
X-0114142Y0154331D01*
X-0114429Y0154761D01*
X-0116893Y0157224D01*
X-0113581Y0160536D01*
X-011639Y0163344D01*
X-0116007Y0164268D01*
X-007989D01*
X-0079188Y0164408D01*
X-0078592Y0164806D01*
X-0055119Y0188279D01*
X0055284D01*
X0078894Y016467D01*
X0079489Y0164272D01*
X0080191Y0164132D01*
X0112144D01*
X0112526Y0163208D01*
X0111043Y0161725D01*
X0044225D01*
X0043242Y0162708D01*
X0047827Y0167292D01*
X0043355Y0171764D01*
X0038877Y0167287D01*
X0038149Y0167973D01*
X0038306Y0168907D01*
X0042259Y017286D01*
X0037787Y0177332D01*
X0032619Y0172164D01*
X0035645Y0169138D01*
X0035263Y0168214D01*
X0013704D01*
X0013513Y0168546D01*
X0012811Y0169247D01*
X0011952Y0169744D01*
X0010993Y0170001D01*
X0010001D01*
X0009043Y0169744D01*
X0008183Y0169247D01*
X0007482Y0168546D01*
X0006985Y0167687D01*
X0006729Y0166728D01*
Y0165736D01*
X0006985Y0164777D01*
X0007482Y0163918D01*
X0008183Y0163216D01*
X0009043Y016272D01*
X0010001Y0162463D01*
X0010993D01*
X0011952Y016272D01*
X0012811Y0163216D01*
X0013513Y0163918D01*
X0014009Y0164777D01*
X0014219Y0165563D01*
X0036638D01*
X0042739Y0159462D01*
X0043169Y0159175D01*
X0043676Y0159074D01*
X0111043D01*
X0114295Y0155822D01*
X0109027Y0150554D01*
X0079121D01*
X0078418Y0150414D01*
X0077823Y0150016D01*
X0077237Y014943D01*
X007684Y0148835D01*
X00767Y0148133D01*
Y0117523D01*
X0076325Y0117307D01*
X0075804Y0116785D01*
X0075435Y0116147D01*
X0075352Y0115836D01*
X0074352Y0115968D01*
Y0119168D01*
X0068918D01*
X0046693Y0141394D01*
X0046976Y0142452D01*
Y0143699D01*
X0046653Y0144904D01*
X004603Y0145984D01*
X0045148Y0146866D01*
X0044067Y0147489D01*
X0042863Y0147812D01*
X0041615D01*
X0040733Y0147576D01*
X0040215Y0148472D01*
X0043512Y0151769D01*
X0043526Y015179D01*
X0043546Y0151805D01*
X0043614Y0151921D01*
X0043689Y0152033D01*
X0043694Y0152058D01*
X0043706Y015208D01*
X0043725Y0152213D01*
X0043751Y0152345D01*
X0043746Y0152371D01*
X0043749Y0152396D01*
X0043731Y0152684D01*
X0043728Y0152696D01*
X004373Y0152707D01*
X0043709Y0152936D01*
X0043706Y0152946D01*
X0043707Y0152957D01*
X0043681Y0153185D01*
X0043677Y0153195D01*
X0043678Y0153206D01*
X0043646Y0153434D01*
X0043642Y0153443D01*
X0043643Y0153454D01*
X0043605Y0153681D01*
X0043601Y015369D01*
X0043601Y0153701D01*
X0043558Y0153927D01*
X0043554Y0153936D01*
X0043554Y0153947D01*
X0043505Y0154172D01*
X0043501Y0154181D01*
X00435Y0154191D01*
X0043445Y0154415D01*
X0043441Y0154424D01*
X004344Y0154435D01*
X004338Y0154657D01*
X0043376Y0154666D01*
X0043374Y0154676D01*
X0043309Y0154897D01*
X0043304Y0154906D01*
X0043303Y0154916D01*
X0043231Y0155135D01*
X0043226Y0155144D01*
X0043225Y0155154D01*
X0043148Y0155371D01*
X0043143Y015538D01*
X0043141Y015539D01*
X0043059Y0155605D01*
X0043053Y0155614D01*
X0043051Y0155624D01*
X0042964Y0155837D01*
X0042958Y0155846D01*
X0042956Y0155856D01*
X0042863Y0156066D01*
X0042857Y0156075D01*
X0042855Y0156085D01*
X0042757Y0156293D01*
X004275Y0156301D01*
X0042748Y0156311D01*
X0042644Y0156517D01*
X0042638Y0156525D01*
X0042635Y0156535D01*
X0042527Y0156738D01*
X004252Y0156746D01*
X0042517Y0156756D01*
X0042404Y0156956D01*
X0042397Y0156964D01*
X0042393Y0156974D01*
X0042275Y0157171D01*
X0042268Y0157179D01*
X0042264Y0157188D01*
X0042141Y0157383D01*
X0042134Y015739D01*
X004213Y01574D01*
X0042002Y0157591D01*
X0041995Y0157598D01*
X004199Y0157608D01*
X0041857Y0157796D01*
X004185Y0157803D01*
X0041846Y0157812D01*
X0041708Y0157997D01*
X00417Y0158004D01*
X0041696Y0158013D01*
X0041554Y0158194D01*
X0041546Y0158201D01*
X0041541Y015821D01*
X0041394Y0158387D01*
X0041386Y0158394D01*
X0041381Y0158403D01*
X004123Y0158576D01*
X0041222Y0158583D01*
X0041217Y0158592D01*
X0041061Y0158762D01*
X0041053Y0158768D01*
X0041048Y0158776D01*
X0040888Y0158942D01*
X0040881Y0158948D01*
X0040876Y0158955D01*
X0040755Y0159075D01*
X0040686Y0159144D01*
X0040672Y0159154D01*
X0040662Y0159168D01*
X0040276Y0159522D01*
X0040257Y0159534D01*
X0040243Y0159551D01*
X0039865Y0159864D01*
X0039846Y0159874D01*
X0039831Y015989D01*
X0039437Y0160182D01*
X0039418Y0160192D01*
X0039403Y0160207D01*
X0038994Y0160478D01*
X0038974Y0160487D01*
X0038958Y0160501D01*
X0038536Y0160751D01*
X0038515Y0160758D01*
X0038499Y0160772D01*
X0038064Y0161D01*
X0038043Y0161006D01*
X0038026Y0161019D01*
X003758Y0161224D01*
X0037559Y0161229D01*
X0037541Y016124D01*
X0037085Y0161422D01*
X0037064Y0161426D01*
X0037046Y0161437D01*
X0036581Y0161595D01*
X003656Y0161598D01*
X0036541Y0161608D01*
X0036068Y0161741D01*
X0036047Y0161743D01*
X0036027Y0161752D01*
X0035549Y0161861D01*
X0035527Y0161862D01*
X0035507Y016187D01*
X0035024Y0161954D01*
X0035002Y0161953D01*
X0034982Y016196D01*
X0034494Y0162019D01*
X0034473Y0162017D01*
X0034452Y0162023D01*
X0033963Y0162057D01*
X0033941Y0162054D01*
X003392Y0162059D01*
X003343Y0162067D01*
X0033408Y0162063D01*
X0033387Y0162067D01*
X0032897Y016205D01*
X0032876Y0162045D01*
X0032855Y0162047D01*
X0032365Y0162005D01*
X0032345Y0161999D01*
X0032323Y0162D01*
X0031837Y0161933D01*
X0031817Y0161925D01*
X0031795Y0161926D01*
X0031313Y0161833D01*
X0031293Y0161825D01*
X0031272Y0161824D01*
X0030795Y0161706D01*
X0030776Y0161697D01*
X0030755Y0161695D01*
X0030285Y0161553D01*
X0030266Y0161543D01*
X0030245Y016154D01*
X0029783Y0161374D01*
X0029764Y0161363D01*
X0029743Y0161358D01*
X0029291Y0161169D01*
X0029273Y0161156D01*
X0029252Y0161151D01*
X002881Y0160938D01*
X0028793Y0160925D01*
X0028772Y0160919D01*
X0028341Y0160683D01*
X0028325Y0160669D01*
X0028305Y0160662D01*
X0027887Y0160404D01*
X0027871Y016039D01*
X0027852Y0160381D01*
X0027448Y0160102D01*
X0027433Y0160087D01*
X0027413Y0160078D01*
X0027024Y0159778D01*
X002701Y0159762D01*
X0026992Y0159751D01*
X0026619Y0159432D01*
X0026606Y0159416D01*
X0026588Y0159405D01*
X0026256Y015909D01*
X0026243Y0159072D01*
X0026224Y0159058D01*
X0025909Y0158726D01*
X0025898Y0158708D01*
X0025882Y0158695D01*
X0025563Y0158323D01*
X0025552Y0158304D01*
X0025536Y015829D01*
X0025237Y0157901D01*
X0025227Y0157881D01*
X0025212Y0157867D01*
X0024933Y0157463D01*
X0024924Y0157443D01*
X002491Y0157427D01*
X0024652Y0157009D01*
X0024645Y0156989D01*
X0024631Y0156973D01*
X0024395Y0156542D01*
X0024389Y0156521D01*
X0024376Y0156504D01*
X0024163Y0156062D01*
X0024158Y0156041D01*
X0024146Y0156024D01*
X0023956Y0155571D01*
X0023952Y015555D01*
X0023941Y0155531D01*
X0023915Y0155462D01*
X0022944Y0155122D01*
X0022774Y0155141D01*
X0022393Y015541D01*
X0022372Y0155514D01*
X0022085Y0155944D01*
X0020883Y0157146D01*
X0022898Y0159161D01*
X0017568Y016449D01*
X0012239Y0159161D01*
X0017568Y0153832D01*
X0019008Y0155272D01*
X0019822Y0154458D01*
Y015425D01*
X0019923Y0153743D01*
X0020211Y0153313D01*
X0020583Y015294D01*
Y0141171D01*
X0019582Y0140756D01*
X0019072Y0141266D01*
X0017813Y0142108D01*
X0016413Y0142688D01*
X0014928Y0142983D01*
X0013413D01*
X0011928Y0142688D01*
X0010528Y0142108D01*
X0009268Y0141266D01*
X0008197Y0140195D01*
X0007356Y0138936D01*
X0006776Y0137536D01*
X0006481Y0136051D01*
Y0134536D01*
X0006776Y013305D01*
X0007356Y0131651D01*
X0008197Y0130391D01*
X0009268Y012932D01*
X0010528Y0128479D01*
X0011928Y0127899D01*
X0013413Y0127603D01*
X0014928D01*
X0016413Y0127899D01*
X0017813Y0128479D01*
X0019072Y012932D01*
X0020143Y0130391D01*
X0020985Y0131651D01*
X0021565Y013305D01*
X002186Y0134536D01*
Y0135897D01*
X0022226Y0136165D01*
X002282Y0136351D01*
X0023559Y0135612D01*
Y0111594D01*
X002366Y0111087D01*
X0023947Y0110657D01*
X0041473Y0093131D01*
X0041903Y0092844D01*
X0042411Y0092743D01*
X0050265D01*
X005068Y0091743D01*
X0021245Y0062309D01*
X0021129Y0062375D01*
X0020171Y0062632D01*
X0019179D01*
X001822Y0062375D01*
X0017361Y0061879D01*
X0016659Y0061178D01*
X0016163Y0060318D01*
X0015906Y005936D01*
Y0058368D01*
X0016163Y0057409D01*
X0016659Y005655D01*
X0016804Y0056405D01*
X0016389Y0055405D01*
X001296D01*
X0012546Y0056405D01*
X001269Y005655D01*
X0013186Y0057409D01*
X0013443Y0058368D01*
Y005936D01*
X0013186Y0060318D01*
X001269Y0061178D01*
X0011989Y0061879D01*
X0011129Y0062375D01*
X0010171Y0062632D01*
X0009179D01*
X000822Y0062375D01*
X0007361Y0061879D01*
X0006659Y0061178D01*
X0006163Y0060318D01*
X0005906Y005936D01*
Y0058368D01*
X0006163Y0057409D01*
X0006659Y005655D01*
X0006804Y0056405D01*
X000639Y0055405D01*
X000296D01*
X0002546Y0056405D01*
X000269Y005655D01*
X0003187Y0057409D01*
X0003443Y0058368D01*
Y005936D01*
X0003187Y0060318D01*
X000269Y0061178D01*
X0001989Y0061879D01*
X0001129Y0062375D01*
X0000171Y0062632D01*
X-0000821D01*
X-000178Y0062375D01*
X-0002639Y0061879D01*
X-0003341Y0061178D01*
X-0003837Y0060318D01*
X-0004094Y005936D01*
Y0058368D01*
X-0003837Y0057409D01*
X-0003341Y005655D01*
X-0003196Y0056405D01*
X-000361Y0055405D01*
X-000704D01*
X-0007454Y0056405D01*
X-000731Y005655D01*
X-0006814Y0057409D01*
X-0006557Y0058368D01*
Y005936D01*
X-0006814Y0060318D01*
X-000731Y0061178D01*
X-0008011Y0061879D01*
X-0008871Y0062375D01*
X-0009829Y0062632D01*
X-0010821D01*
X-001178Y0062375D01*
X-0011896Y0062309D01*
X-0018368Y0068781D01*
X-0018798Y0069069D01*
X-0019306Y006917D01*
X-0028518D01*
Y0071498D01*
X-0034842D01*
Y006419D01*
X-0028518D01*
Y0066519D01*
X-0019854D01*
X-001377Y0060434D01*
X-0013837Y0060318D01*
X-0014094Y005936D01*
Y0058368D01*
X-0013837Y0057409D01*
X-0013341Y005655D01*
X-0013196Y0056405D01*
X-0013611Y0055405D01*
X-001704D01*
X-0017454Y0056405D01*
X-001731Y005655D01*
X-0016814Y0057409D01*
X-0016557Y0058368D01*
Y005936D01*
X-0016814Y0060318D01*
X-001731Y0061178D01*
X-0018011Y0061879D01*
X-0018871Y0062375D01*
X-0019829Y0062632D01*
X-0020821D01*
X-002178Y0062375D01*
X-0022639Y0061879D01*
X-0023341Y0061178D01*
X-0023837Y0060318D01*
X-0024094Y005936D01*
Y0058368D01*
X-0023837Y0057409D01*
X-0023341Y005655D01*
X-0023196Y0056405D01*
X-002361Y0055405D01*
X-002704D01*
X-0027454Y0056405D01*
X-002731Y005655D01*
X-0026814Y0057409D01*
X-0026557Y0058368D01*
Y005936D01*
X-0026814Y0060318D01*
X-002731Y0061178D01*
X-0028011Y0061879D01*
X-0028871Y0062375D01*
X-0029829Y0062632D01*
X-0030821D01*
X-003178Y0062375D01*
X-0032639Y0061879D01*
X-0033341Y0061178D01*
X-0033401Y0061073D01*
X-0034516Y0060966D01*
X-0036816Y0063266D01*
X-0036434Y006419D01*
X-0036392D01*
Y0071498D01*
X-0042716D01*
Y006917D01*
X-0047209D01*
X-0047397Y0069496D01*
X-0047918Y0070017D01*
X-0048557Y0070386D01*
X-0049269Y0070577D01*
X-0050006D01*
X-0050718Y0070386D01*
X-0051357Y0070017D01*
X-0051878Y0069496D01*
X-0052247Y0068858D01*
X-0052438Y0068145D01*
Y0067408D01*
X-0052247Y0066696D01*
X-0051878Y0066057D01*
X-0051836Y0066015D01*
X-005225Y0065015D01*
X-0055234D01*
X-0060211Y0069993D01*
X-0059828Y0070916D01*
X-0055136D01*
Y007652D01*
X-005509Y0076606D01*
X-0054135Y0077273D01*
X-0054096Y0077266D01*
X-0052721D01*
Y0073289D01*
X-0045216D01*
Y0080401D01*
X-0050127D01*
X-0050719Y0080796D01*
X-0051421Y0080936D01*
X-0053335D01*
X-0055302Y0082903D01*
Y0084174D01*
X-0054787Y0084518D01*
X-0045791Y0093514D01*
X-0040144D01*
X-0039441Y0093654D01*
X-0038846Y0094051D01*
X-0038325Y0094573D01*
X-0037428Y0094055D01*
X-0037611Y0093372D01*
Y0091918D01*
X-0037235Y0090513D01*
X-0036507Y0089253D01*
X-0035479Y0088224D01*
X-0034219Y0087497D01*
X-0032814Y008712D01*
X-0031359D01*
X-0029954Y0087497D01*
X-0028694Y0088224D01*
X-0027666Y0089253D01*
X-0026939Y0090513D01*
X-0026562Y0091918D01*
Y0093372D01*
X-0026939Y0094777D01*
X-0027666Y0096037D01*
X-0028694Y0097066D01*
X-0029954Y0097793D01*
X-0031359Y0098169D01*
X-0032814D01*
X-0033497Y0097986D01*
X-0034015Y0098883D01*
X-002832Y0104578D01*
X-0027922Y0105173D01*
X-0027782Y0105876D01*
Y0116216D01*
X-0027817Y0116393D01*
Y0116574D01*
X-0027887Y0116741D01*
X-0027922Y0116918D01*
X-0028022Y0117068D01*
X-0028091Y0117235D01*
X-0028219Y0117363D01*
X-002832Y0117514D01*
X-002847Y0117614D01*
X-0028598Y0117742D01*
X-0028765Y0117811D01*
X-0028915Y0117911D01*
X-0029092Y0117947D01*
X-0029259Y0118016D01*
X-002944D01*
X-0029617Y0118051D01*
X-0029795Y0118016D01*
X-0029975D01*
X-0030142Y0117947D01*
X-003032Y0117911D01*
X-003047Y0117811D01*
X-0030637Y0117742D01*
X-0030765Y0117614D01*
X-0030915Y0117514D01*
X-0031015Y0117363D01*
X-0031143Y0117235D01*
X-0031212Y0117068D01*
X-0031313Y0116918D01*
X-0031348Y0116741D01*
X-0031417Y0116574D01*
Y0116393D01*
X-0031453Y0116216D01*
Y0106636D01*
X-0040904Y0097184D01*
X-0046552D01*
X-0047254Y0097045D01*
X-0047849Y0096647D01*
X-0056845Y0087651D01*
X-0057299D01*
X-0057477Y0087616D01*
X-0062808D01*
Y0085896D01*
X-0075129D01*
X-0075831Y0085756D01*
X-0076426Y0085358D01*
X-0099295Y0062489D01*
X-0099829Y0062632D01*
X-0100821D01*
X-010178Y0062375D01*
X-0102639Y0061879D01*
X-0103341Y0061178D01*
X-0103837Y0060318D01*
X-0104094Y005936D01*
Y0058368D01*
X-0103837Y0057409D01*
X-0103341Y005655D01*
X-0102639Y0055848D01*
X-010178Y0055352D01*
X-0100821Y0055095D01*
X-0099829D01*
X-0098871Y0055352D01*
X-0098011Y0055848D01*
X-009731Y005655D01*
X-0096813Y0057409D01*
X-0096557Y0058368D01*
Y005936D01*
X-00967Y0059894D01*
X-0074369Y0082225D01*
X-0062808D01*
Y0080504D01*
X-0058095D01*
X-0056739Y0079149D01*
X-0057122Y0078225D01*
X-006146D01*
Y0072714D01*
X-0062366Y0072322D01*
X-006301Y0072846D01*
Y0078225D01*
X-0069334D01*
Y0070916D01*
X-0064884D01*
X-005672Y0062752D01*
X-005629Y0062465D01*
X-0055783Y0062364D01*
X-0053568D01*
X-0053154Y0061364D01*
X-0053341Y0061178D01*
X-0053837Y0060318D01*
X-0054094Y005936D01*
Y0058368D01*
X-0053837Y0057409D01*
X-0053341Y005655D01*
X-0053196Y0056405D01*
X-005361Y0055405D01*
X-005704D01*
X-0057454Y0056405D01*
X-005731Y005655D01*
X-0056814Y0057409D01*
X-0056557Y0058368D01*
Y005936D01*
X-0056814Y0060318D01*
X-005731Y0061178D01*
X-0058011Y0061879D01*
X-0058871Y0062375D01*
X-0059829Y0062632D01*
X-0060821D01*
X-006178Y0062375D01*
X-0062639Y0061879D01*
X-0063341Y0061178D01*
X-0063837Y0060318D01*
X-0064094Y005936D01*
Y0058368D01*
X-0063837Y0057409D01*
X-0063341Y005655D01*
X-0063196Y0056405D01*
X-0063611Y0055405D01*
X-006704D01*
X-0067454Y0056405D01*
X-006731Y005655D01*
X-0066813Y0057409D01*
X-0066557Y0058368D01*
Y005936D01*
X-0066813Y0060318D01*
X-006731Y0061178D01*
X-0068011Y0061879D01*
X-0068871Y0062375D01*
X-0069829Y0062632D01*
X-0070821D01*
X-007178Y0062375D01*
X-0072639Y0061879D01*
X-0073341Y0061178D01*
X-0073837Y0060318D01*
X-0074094Y005936D01*
Y0058368D01*
X-0073837Y0057409D01*
X-0073341Y005655D01*
X-0073196Y0056405D01*
X-0073611Y0055405D01*
X-007704D01*
X-0077454Y0056405D01*
X-007731Y005655D01*
X-0076814Y0057409D01*
X-0076557Y0058368D01*
Y005936D01*
X-0076814Y0060318D01*
X-007731Y0061178D01*
X-0078011Y0061879D01*
X-0078871Y0062375D01*
X-0079829Y0062632D01*
X-0080821D01*
X-008178Y0062375D01*
X-0082639Y0061879D01*
X-0083341Y0061178D01*
X-0083837Y0060318D01*
X-0084094Y005936D01*
Y0058368D01*
X-0083837Y0057409D01*
X-0083341Y005655D01*
X-0083196Y0056405D01*
X-008361Y0055405D01*
X-0091026D01*
X-0091533Y0055304D01*
X-0091963Y0055017D01*
X-0105442Y0041538D01*
X-010573Y0041108D01*
X-0105831Y0040601D01*
Y0015232D01*
X-0126812Y-0005749D01*
X-0144479D01*
X-0144893Y-0004749D01*
X-0144413Y-0004269D01*
X-0143685Y-0003009D01*
X-0143309Y-0001604D01*
Y-0000149D01*
X-0143685Y0001256D01*
X-0144413Y0002515D01*
X-0145441Y0003544D01*
X-0146701Y0004271D01*
X-0148106Y0004648D01*
X-0149561D01*
X-0150966Y0004271D01*
X-0152225Y0003544D01*
X-0153254Y0002515D01*
X-0153981Y0001256D01*
X-0154358Y-0000149D01*
Y-0001604D01*
X-0153981Y-0003009D01*
X-0153254Y-0004269D01*
X-0152774Y-0004749D01*
X-0153188Y-0005749D01*
X-0155837D01*
X-0156345Y-000585D01*
X-0156775Y-0006138D01*
X-0165075Y-0014438D01*
X-0165362Y-0014868D01*
X-0165463Y-0015375D01*
Y-0069527D01*
X-0165837Y-00698D01*
X-0166424Y-0069981D01*
X-0167895Y-0068508D01*
X-0167894Y-0002322D01*
X-0157443Y0008137D01*
X-0119474Y0008139D01*
X-0113876Y001375D01*
X-0113877Y0083819D01*
X-0119236Y008918D01*
X-0139951Y0089131D01*
X-0146597Y0095764D01*
X-014659Y0162106D01*
X-0143437Y0165274D01*
X-0130204Y0171023D01*
X-0122778Y0174119D01*
X-0117967Y0176123D01*
X-0110381Y0179138D01*
X-0101785Y0182426D01*
X-0091184Y0186259D01*
X-0084352Y0188569D01*
X-0077712Y0190702D01*
X-007133Y0192594D01*
X-0064947Y0194326D01*
X-0056607Y0196411D01*
X-0052309Y0197373D01*
X-0047546Y0198335D01*
X-0040633Y0199586D01*
X-003239Y0200853D01*
X-0026199Y0201687D01*
X-001624Y020273D01*
X-0011381Y0203114D01*
X-0005254Y0203435D01*
X0007255Y0203708D01*
X0016348Y0203467D01*
D02*
G37*
G36*
X0033906Y0161243D02*
X0034396Y0161209D01*
X0034884Y016115D01*
X0035367Y0161066D01*
X0035846Y0160957D01*
X0036318Y0160823D01*
X0036783Y0160665D01*
X0037239Y0160483D01*
X0037685Y0160278D01*
X003812Y0160049D01*
X0038542Y0159799D01*
X0038951Y0159527D01*
X0039345Y0159235D01*
X0039724Y0158922D01*
X0040109Y0158567D01*
X0040179Y0158498D01*
X00403Y0158377D01*
X0040459Y0158211D01*
X0040615Y0158042D01*
X0040765Y0157868D01*
X0040912Y015769D01*
X0041054Y0157509D01*
X0041191Y0157325D01*
X0041324Y0157137D01*
X0041452Y0156946D01*
X0041576Y0156752D01*
X0041694Y0156554D01*
X0041807Y0156354D01*
X0041915Y0156151D01*
X0042019Y0155945D01*
X0042117Y0155737D01*
X0042209Y0155527D01*
X0042297Y0155314D01*
X0042379Y0155099D01*
X0042456Y0154882D01*
X0042527Y0154663D01*
X0042593Y0154443D01*
X0042653Y0154221D01*
X0042708Y0153997D01*
X0042757Y0153773D01*
X00428Y0153547D01*
X0042838Y015332D01*
X004287Y0153092D01*
X0042897Y0152863D01*
X0042917Y0152634D01*
X0042935Y0152345D01*
X0038119Y0147529D01*
X0032969Y0142379D01*
X003268Y0142397D01*
X0032451Y0142418D01*
X0032222Y0142444D01*
X0031994Y0142476D01*
X0031767Y0142514D01*
X0031541Y0142557D01*
X0031317Y0142606D01*
X0031093Y0142661D01*
X0030871Y0142721D01*
X0030651Y0142787D01*
X0030432Y0142858D01*
X0030215Y0142935D01*
X003Y0143017D01*
X0029787Y0143105D01*
X0029577Y0143198D01*
X0029369Y0143296D01*
X0029163Y0143399D01*
X002896Y0143507D01*
X002876Y014362D01*
X0028563Y0143739D01*
X0028368Y0143862D01*
X0028177Y014399D01*
X0027989Y0144123D01*
X0027805Y014426D01*
X0027624Y0144402D01*
X0027446Y0144549D01*
X0027273Y01447D01*
X0027103Y0144855D01*
X0026937Y0145014D01*
X0026816Y0145135D01*
X0026747Y0145205D01*
X0026392Y014559D01*
X0026079Y0145969D01*
X0025787Y0146363D01*
X0025515Y0146772D01*
X0025265Y0147194D01*
X0025036Y0147629D01*
X0024831Y0148075D01*
X0024649Y0148531D01*
X0024491Y0148996D01*
X0024357Y0149468D01*
X0024248Y0149947D01*
X0024164Y0150431D01*
X0024105Y0150918D01*
X0024071Y0151408D01*
X0024063Y0151899D01*
X002408Y0152389D01*
X0024122Y0152878D01*
X002419Y0153365D01*
X0024282Y0153847D01*
X00244Y0154323D01*
X0024542Y0154793D01*
X0024708Y0155255D01*
X0024898Y0155708D01*
X0025111Y015615D01*
X0025346Y0156581D01*
X0025604Y0156999D01*
X0025883Y0157403D01*
X0026182Y0157792D01*
X0026502Y0158165D01*
X0026816Y0158498D01*
X0027149Y0158812D01*
X0027522Y0159132D01*
X0027911Y0159431D01*
X0028315Y015971D01*
X0028733Y0159968D01*
X0029164Y0160203D01*
X0029606Y0160416D01*
X0030059Y0160606D01*
X0030521Y0160772D01*
X0030991Y0160914D01*
X0031467Y0161032D01*
X0031949Y0161125D01*
X0032436Y0161192D01*
X0032925Y0161234D01*
X0033415Y0161251D01*
X0033906Y0161243D01*
D02*
G37*
G36*
X0024296Y0147288D02*
X0024308Y0147271D01*
X0024314Y014725D01*
X0024542Y0146815D01*
X0024556Y0146799D01*
X0024563Y0146779D01*
X0024813Y0146356D01*
X0024827Y014634D01*
X0024836Y014632D01*
X0025107Y0145912D01*
X0025123Y0145896D01*
X0025132Y0145877D01*
X0025424Y0145483D01*
X002544Y0145468D01*
X002545Y014545D01*
X0025763Y0145071D01*
X002578Y0145057D01*
X0025792Y0145038D01*
X0026147Y0144652D01*
X002616Y0144642D01*
X002617Y0144628D01*
X002624Y0144558D01*
X0026359Y0144438D01*
X0026367Y0144433D01*
X0026372Y0144426D01*
X0026538Y0144267D01*
X0026546Y0144261D01*
X0026553Y0144253D01*
X0026722Y0144097D01*
X0026731Y0144092D01*
X0026738Y0144084D01*
X0026911Y0143933D01*
X002692Y0143928D01*
X0026927Y014392D01*
X0027104Y0143773D01*
X0027114Y0143768D01*
X002712Y0143761D01*
X0027301Y0143619D01*
X002731Y0143614D01*
X0027318Y0143606D01*
X0027502Y0143469D01*
X0027511Y0143464D01*
X0027518Y0143457D01*
X0027706Y0143324D01*
X0027716Y014332D01*
X0027723Y0143312D01*
X0027914Y0143184D01*
X0027924Y014318D01*
X0027931Y0143173D01*
X0028126Y014305D01*
X0028135Y0143046D01*
X0028143Y0143039D01*
X002834Y0142921D01*
X002835Y0142917D01*
X0028358Y0142911D01*
X0028558Y0142797D01*
X0028568Y0142794D01*
X0028576Y0142787D01*
X0028779Y0142679D01*
X0028789Y0142676D01*
X0028797Y014267D01*
X0029003Y0142567D01*
X0029013Y0142564D01*
X0029021Y0142558D01*
X0029229Y014246D01*
X0029239Y0142457D01*
X0029248Y0142451D01*
X0029458Y0142358D01*
X0029469Y0142356D01*
X0029477Y014235D01*
X002969Y0142263D01*
X00297Y0142261D01*
X0029709Y0142255D01*
X0029924Y0142173D01*
X0029934Y0142172D01*
X0029943Y0142166D01*
X003016Y0142089D01*
X003017Y0142088D01*
X0030179Y0142083D01*
X0030398Y0142012D01*
X0030408Y014201D01*
X0030417Y0142006D01*
X0030638Y014194D01*
X0030648Y0141939D01*
X0030658Y0141934D01*
X003088Y0141874D01*
X003089Y0141873D01*
X0030899Y0141869D01*
X0031123Y0141814D01*
X0031133Y0141814D01*
X0031143Y0141809D01*
X0031367Y014176D01*
X0031378Y014176D01*
X0031388Y0141756D01*
X0031613Y0141713D01*
X0031624Y0141713D01*
X0031633Y0141709D01*
X0031861Y0141672D01*
X0031871Y0141672D01*
X0031881Y0141668D01*
X0032109Y0141636D01*
X0032119Y0141637D01*
X0032129Y0141634D01*
X0032357Y0141607D01*
X0032368Y0141608D01*
X0032378Y0141605D01*
X0032607Y0141585D01*
X0032618Y0141586D01*
X003263Y0141583D01*
X0032919Y0141565D01*
X0032944Y0141568D01*
X0032969Y0141563D01*
X0033101Y014159D01*
X0033234Y0141608D01*
X0033256Y0141621D01*
X0033281Y0141625D01*
X0033393Y01417D01*
X0033509Y0141768D01*
X0033524Y0141788D01*
X0033546Y0141802D01*
X0036842Y0145099D01*
X0037738Y0144581D01*
X0037502Y0143699D01*
Y0142452D01*
X0037825Y0141247D01*
X0038449Y0140166D01*
X0039331Y0139285D01*
X0040411Y0138661D01*
X0041615Y0138338D01*
X0042863D01*
X0044067Y0138661D01*
X0045088Y013925D01*
X0064138Y0120199D01*
X0063724Y0119199D01*
X0057202D01*
Y0114749D01*
X0050496Y0108043D01*
X0049572Y0108425D01*
Y0123228D01*
X0051087Y0124743D01*
X0051371D01*
X0052032Y0125017D01*
X0052539Y0125523D01*
X0052813Y0126185D01*
Y0126901D01*
X0052539Y0127562D01*
X0052032Y0128069D01*
X0051371Y0128343D01*
X0050655D01*
X0049993Y0128069D01*
X0049487Y0127562D01*
X0049213Y0126901D01*
Y0126617D01*
X0047309Y0124714D01*
X0047022Y0124284D01*
X0046921Y0123777D01*
Y0106593D01*
X0045439Y0105111D01*
X004158D01*
Y0099377D01*
X0047314D01*
Y0099377D01*
X0048314Y0099588D01*
X004834Y0099572D01*
X0049069Y0099377D01*
X0049824D01*
X0050553Y0099572D01*
X0051207Y009995D01*
X0051741Y0100484D01*
X0052118Y0101137D01*
X0052314Y0101867D01*
Y0102621D01*
X0052118Y0103351D01*
X0051741Y0104004D01*
X0051372Y0104374D01*
Y010517D01*
X0059077Y0112875D01*
X0064511D01*
Y0118412D01*
X0065511Y0118826D01*
X0067043Y0117294D01*
Y0112844D01*
X0072478D01*
X0073527Y0111795D01*
Y0101721D01*
X0070708Y0098903D01*
X0065216D01*
X006513Y0099121D01*
X0065047Y0099903D01*
X0065501Y0100165D01*
X0066023Y0100686D01*
X0066391Y0101325D01*
X0066582Y0102037D01*
Y0102774D01*
X0066391Y0103486D01*
X0066023Y0104125D01*
X0065501Y0104646D01*
X0064863Y0105015D01*
X0064151Y0105206D01*
X0063414D01*
X0062701Y0105015D01*
X0062063Y0104646D01*
X0061542Y0104125D01*
X0061314Y0103731D01*
X005937D01*
X0058863Y010363D01*
X0058433Y0103343D01*
X0050484Y0095394D01*
X004296D01*
X002621Y0112144D01*
Y0136161D01*
X0026109Y0136668D01*
X0025822Y0137099D01*
X0023233Y0139687D01*
Y0147204D01*
X0024233Y0147423D01*
X0024296Y0147288D01*
D02*
G37*
G36*
X0117642Y0152564D02*
X0122148Y0148058D01*
X0123422Y0149331D01*
X0138558Y0134195D01*
Y0109647D01*
X0137831Y0108987D01*
X0137558Y0108987D01*
X0130294D01*
Y010145D01*
X0137558D01*
X0137831Y010145D01*
X0138055Y0101247D01*
X0138083Y009998D01*
X0135104Y0097001D01*
X0112099D01*
X0111592Y00969D01*
X0111162Y0096613D01*
X0098821Y0084273D01*
X0098534Y0083843D01*
X0098433Y0083335D01*
Y0050201D01*
X0092692Y004446D01*
X0068224D01*
X0068129Y0044714D01*
X0068057Y004546D01*
X0068323Y0045637D01*
X0078105Y0055419D01*
X007822Y0055352D01*
X0079179Y0055095D01*
X0080171D01*
X0081129Y0055352D01*
X0081989Y0055848D01*
X008269Y005655D01*
X0083187Y0057409D01*
X0083443Y0058368D01*
Y005936D01*
X0083187Y0060318D01*
X008269Y0061178D01*
X0081989Y0061879D01*
X0081129Y0062375D01*
X0080171Y0062632D01*
X0079179D01*
X007822Y0062375D01*
X0077361Y0061879D01*
X0076659Y0061178D01*
X0076163Y0060318D01*
X0075906Y005936D01*
Y0058368D01*
X0076163Y0057409D01*
X007623Y0057293D01*
X0066836Y00479D01*
X-0087455D01*
X-0087963Y0047799D01*
X-0088263Y0047598D01*
X-00889Y0048375D01*
X-0087941Y0049334D01*
X0061471D01*
X0061978Y0049435D01*
X0062408Y0049722D01*
X0068104Y0055419D01*
X006822Y0055352D01*
X0069179Y0055095D01*
X0070171D01*
X0071129Y0055352D01*
X0071989Y0055848D01*
X007269Y005655D01*
X0073186Y0057409D01*
X0073443Y0058368D01*
Y005936D01*
X0073186Y0060318D01*
X007269Y0061178D01*
X0071989Y0061879D01*
X0071129Y0062375D01*
X0070171Y0062632D01*
X0069179D01*
X006822Y0062375D01*
X0067361Y0061879D01*
X0066659Y0061178D01*
X0066163Y0060318D01*
X0065906Y005936D01*
Y0058368D01*
X0066163Y0057409D01*
X006623Y0057293D01*
X0060921Y0051985D01*
X0055758D01*
X0055757Y0051987D01*
X0055592Y0052985D01*
X0055828Y0053143D01*
X0058104Y0055419D01*
X005822Y0055352D01*
X0059179Y0055095D01*
X0060171D01*
X0061129Y0055352D01*
X0061989Y0055848D01*
X006269Y005655D01*
X0063187Y0057409D01*
X0063443Y0058368D01*
Y005936D01*
X0063187Y0060318D01*
X006269Y0061178D01*
X0061989Y0061879D01*
X0061129Y0062375D01*
X0060171Y0062632D01*
X0059179D01*
X005822Y0062375D01*
X0057361Y0061879D01*
X0056659Y0061178D01*
X0056163Y0060318D01*
X0055906Y005936D01*
Y0058368D01*
X0056163Y0057409D01*
X005623Y0057293D01*
X0054342Y0055405D01*
X005296D01*
X0052546Y0056405D01*
X005269Y005655D01*
X0053187Y0057409D01*
X0053443Y0058368D01*
Y005936D01*
X0053187Y0060318D01*
X005269Y0061178D01*
X0051989Y0061879D01*
X0051129Y0062375D01*
X0050171Y0062632D01*
X0049179D01*
X004822Y0062375D01*
X0047361Y0061879D01*
X0046659Y0061178D01*
X0046163Y0060318D01*
X0045906Y005936D01*
Y0058368D01*
X0046163Y0057409D01*
X0046659Y005655D01*
X0046804Y0056405D01*
X0046389Y0055405D01*
X004296D01*
X0042546Y0056405D01*
X004269Y005655D01*
X0043187Y0057409D01*
X0043443Y0058368D01*
Y005936D01*
X0043187Y0060318D01*
X004269Y0061178D01*
X0041989Y0061879D01*
X0041129Y0062375D01*
X0040171Y0062632D01*
X0039179D01*
X003822Y0062375D01*
X0037361Y0061879D01*
X0036659Y0061178D01*
X0036163Y0060318D01*
X0035906Y005936D01*
Y0058368D01*
X0036163Y0057409D01*
X0036659Y005655D01*
X0036804Y0056405D01*
X0036389Y0055405D01*
X003296D01*
X0032546Y0056405D01*
X003269Y005655D01*
X0033187Y0057409D01*
X0033443Y0058368D01*
Y005936D01*
X0033187Y0060318D01*
X003269Y0061178D01*
X0031989Y0061879D01*
X0031129Y0062375D01*
X0030171Y0062632D01*
X0029179D01*
X002822Y0062375D01*
X0027361Y0061879D01*
X0026659Y0061178D01*
X0026163Y0060318D01*
X0025906Y005936D01*
Y0058368D01*
X0026163Y0057409D01*
X0026659Y005655D01*
X0026804Y0056405D01*
X002639Y0055405D01*
X002296D01*
X0022546Y0056405D01*
X002269Y005655D01*
X0023187Y0057409D01*
X0023443Y0058368D01*
Y005936D01*
X0023187Y0060318D01*
X002312Y0060434D01*
X0058937Y0096252D01*
X0060915D01*
Y0091343D01*
X0060933D01*
X0061236Y0090343D01*
X0061097Y009025D01*
X0053803Y0082956D01*
X0053516Y0082526D01*
X0053478Y0082336D01*
X0053021Y0082072D01*
X00525Y0081551D01*
X0052131Y0080912D01*
X005194Y00802D01*
Y0079463D01*
X0052131Y0078751D01*
X00525Y0078112D01*
X0053021Y0077591D01*
X0053659Y0077222D01*
X0054372Y0077031D01*
X0055109D01*
X0055821Y0077222D01*
X0056459Y0077591D01*
X0056981Y0078112D01*
X0057349Y0078751D01*
X005754Y0079463D01*
Y00802D01*
X0057349Y0080912D01*
X0056981Y0081551D01*
X0056564Y0081968D01*
X0062583Y0087987D01*
X0064857D01*
X0065364Y0088088D01*
X0065794Y0088376D01*
X0068086Y0090668D01*
X0068337Y0091042D01*
X0068638Y0091343D01*
X006916D01*
X0069889Y0091539D01*
X0070543Y0091916D01*
X0071076Y009245D01*
X0071454Y0093104D01*
X0071649Y0093833D01*
Y0094588D01*
X0071465Y0095274D01*
X0071458Y0095329D01*
X0071764Y0096353D01*
X0072194Y009664D01*
X0075789Y0100235D01*
X0076077Y0100665D01*
X0076177Y0101172D01*
Y0111756D01*
X0076558Y0112095D01*
X0077152Y0112407D01*
X0077676Y0112266D01*
X0078249D01*
X0079617Y0110898D01*
Y0081257D01*
X0078425Y0080064D01*
X0077535Y0079799D01*
Y0079799D01*
X0070029D01*
Y0078071D01*
X0067747D01*
Y0079802D01*
X0060242D01*
Y007269D01*
X0067747D01*
Y0074401D01*
X0070029D01*
Y0072687D01*
X0077535D01*
Y0075675D01*
X0078466D01*
X0079168Y0075815D01*
X0079764Y0076213D01*
X008275Y0079199D01*
X0083148Y0079794D01*
X0083288Y0080497D01*
Y0111658D01*
X0083148Y0112361D01*
X008275Y0112956D01*
X0080844Y0114862D01*
Y0115435D01*
X0080654Y0116147D01*
X008037Y0116638D01*
Y0146883D01*
X0109787D01*
X0110489Y0147023D01*
X0111085Y0147421D01*
X0116247Y0152583D01*
X011698Y0153226D01*
X0117642Y0152564D01*
D02*
G37*
%LPC*%
G36*
X0010777Y0180446D02*
X001004D01*
X0009328Y0180255D01*
X0008689Y0179886D01*
X0008168Y0179365D01*
X0008088Y0179226D01*
X-002108D01*
X-0021685Y0179106D01*
X-0022197Y0178763D01*
X-004232Y0158641D01*
X-0042663Y0158128D01*
X-0042783Y0157523D01*
Y0154276D01*
X-0042801Y0154226D01*
X-0042811Y0154202D01*
X-0042899Y0154048D01*
X-0043144Y0153748D01*
X-0043452Y015343D01*
X-0043741Y0153412D01*
X-0043749Y015341D01*
X-0043764Y0153411D01*
X-0043993Y015339D01*
X-0044003Y0153387D01*
X-0044013Y0153388D01*
X-0044242Y0153362D01*
X-0044252Y0153358D01*
X-0044262Y0153359D01*
X-004449Y0153327D01*
X-00445Y0153323D01*
X-004451Y0153324D01*
X-0044737Y0153286D01*
X-0044747Y0153282D01*
X-0044757Y0153282D01*
X-0044983Y0153239D01*
X-0044993Y0153235D01*
X-0045003Y0153235D01*
X-0045228Y0153186D01*
X-0045237Y0153182D01*
X-0045248Y0153181D01*
X-0045471Y0153127D01*
X-004548Y0153122D01*
X-0045491Y0153121D01*
X-0045713Y0153061D01*
X-0045722Y0153057D01*
X-0045733Y0153056D01*
X-0045953Y015299D01*
X-0045962Y0152985D01*
X-0045972Y0152984D01*
X-0046191Y0152912D01*
X-00462Y0152907D01*
X-0046211Y0152906D01*
X-0046428Y0152829D01*
X-0046436Y0152824D01*
X-0046446Y0152822D01*
X-0046661Y015274D01*
X-004667Y0152734D01*
X-004668Y0152732D01*
X-0046893Y0152645D01*
X-0046902Y0152639D01*
X-0046912Y0152637D01*
X-0047122Y0152544D01*
X-0047131Y0152538D01*
X-0047141Y0152536D01*
X-0047349Y0152438D01*
X-0047358Y0152431D01*
X-0047368Y0152429D01*
X-0047573Y0152325D01*
X-0047581Y0152319D01*
X-0047591Y0152316D01*
X-0047794Y0152208D01*
X-0047802Y0152201D01*
X-0047812Y0152198D01*
X-0048012Y0152085D01*
X-004802Y0152078D01*
X-004803Y0152074D01*
X-0048227Y0151956D01*
X-0048235Y0151949D01*
X-0048245Y0151945D01*
X-0048439Y0151822D01*
X-0048447Y0151815D01*
X-0048456Y0151811D01*
X-0048647Y0151683D01*
X-0048655Y0151676D01*
X-0048664Y0151671D01*
X-0048852Y0151539D01*
X-0048859Y0151531D01*
X-0048869Y0151527D01*
X-0049053Y0151389D01*
X-004906Y0151381D01*
X-0049069Y0151377D01*
X-004925Y0151235D01*
X-0049257Y0151227D01*
X-0049266Y0151222D01*
X-0049443Y0151075D01*
X-004945Y0151067D01*
X-0049459Y0151062D01*
X-0049633Y0150911D01*
X-0049639Y0150903D01*
X-0049648Y0150898D01*
X-0049818Y0150743D01*
X-0049824Y0150734D01*
X-0049833Y0150729D01*
X-0049999Y0150569D01*
X-0050004Y0150562D01*
X-0050011Y0150557D01*
X-0050131Y0150437D01*
X-00502Y0150367D01*
X-005021Y0150353D01*
X-0050224Y0150343D01*
X-0050579Y0149957D01*
X-005059Y0149938D01*
X-0050608Y0149924D01*
X-005092Y0149546D01*
X-005093Y0149527D01*
X-0050946Y0149512D01*
X-0051239Y0149118D01*
X-0051248Y0149099D01*
X-0051263Y0149084D01*
X-0051535Y0148675D01*
X-0051543Y0148655D01*
X-0051557Y0148639D01*
X-0051808Y0148217D01*
X-0051815Y0148196D01*
X-0051828Y014818D01*
X-0052056Y0147745D01*
X-0052062Y0147724D01*
X-0052075Y0147707D01*
X-005228Y0147261D01*
X-0052285Y014724D01*
X-0052297Y0147222D01*
X-0052479Y0146766D01*
X-0052483Y0146745D01*
X-0052493Y0146727D01*
X-0052595Y014643D01*
X-0086721D01*
X-0087326Y0146309D01*
X-0087839Y0145967D01*
X-0106656Y012715D01*
X-0106704Y0127127D01*
X-0106727Y0127117D01*
X-0106899Y0127071D01*
X-0107284Y0127032D01*
X-0107727Y0127025D01*
X-0107944Y0127217D01*
X-0107951Y0127221D01*
X-0107961Y0127232D01*
X-0108138Y0127379D01*
X-0108147Y0127384D01*
X-0108153Y0127392D01*
X-0108334Y0127535D01*
X-0108343Y012754D01*
X-010835Y0127547D01*
X-0108534Y0127686D01*
X-0108543Y012769D01*
X-010855Y0127698D01*
X-0108737Y0127832D01*
X-0108747Y0127836D01*
X-0108754Y0127843D01*
X-0108945Y0127972D01*
X-0108954Y0127976D01*
X-0108962Y0127983D01*
X-0109155Y0128108D01*
X-0109165Y0128112D01*
X-0109173Y0128119D01*
X-0109369Y0128238D01*
X-0109379Y0128242D01*
X-0109387Y0128248D01*
X-0109587Y0128363D01*
X-0109596Y0128366D01*
X-0109604Y0128373D01*
X-0109807Y0128482D01*
X-0109817Y0128485D01*
X-0109825Y0128491D01*
X-011003Y0128596D01*
X-011004Y0128598D01*
X-0110048Y0128605D01*
X-0110256Y0128704D01*
X-0110266Y0128706D01*
X-0110274Y0128712D01*
X-0110484Y0128806D01*
X-0110494Y0128809D01*
X-0110503Y0128814D01*
X-0110715Y0128903D01*
X-0110726Y0128905D01*
X-0110734Y0128911D01*
X-0110949Y0128994D01*
X-0110959Y0128996D01*
X-0110968Y0129001D01*
X-0111184Y0129079D01*
X-0111195Y012908D01*
X-0111204Y0129086D01*
X-0111422Y0129158D01*
X-0111432Y0129159D01*
X-0111442Y0129164D01*
X-0111662Y0129231D01*
X-0111672Y0129232D01*
X-0111681Y0129237D01*
X-0111903Y0129298D01*
X-0111913Y0129299D01*
X-0111923Y0129303D01*
X-0112146Y0129359D01*
X-0112156Y012936D01*
X-0112166Y0129364D01*
X-011239Y0129414D01*
X-0112401Y0129414D01*
X-011241Y0129418D01*
X-0112636Y0129463D01*
X-0112646Y0129463D01*
X-0112656Y0129467D01*
X-0112883Y0129506D01*
X-0112893Y0129505D01*
X-0112903Y0129509D01*
X-0113131Y0129542D01*
X-0113141Y0129542D01*
X-0113151Y0129545D01*
X-0113379Y0129572D01*
X-011339Y0129572D01*
X-01134Y0129575D01*
X-0113628Y0129596D01*
X-0113639Y0129595D01*
X-0113649Y0129598D01*
X-0113878Y0129614D01*
X-0113889Y0129613D01*
X-0113899Y0129615D01*
X-0114129Y0129626D01*
X-0114139Y0129624D01*
X-0114149Y0129627D01*
X-0114379Y0129631D01*
X-0114388Y012963D01*
X-0114397Y0129631D01*
X-0114567Y0129631D01*
X-0114665D01*
X-0114681Y0129628D01*
X-0114699Y012963D01*
X-0115222Y0129609D01*
X-0115244Y0129603D01*
X-0115266Y0129605D01*
X-0115754Y0129559D01*
X-0115775Y0129553D01*
X-0115796Y0129554D01*
X-0116282Y0129482D01*
X-0116302Y0129475D01*
X-0116323Y0129475D01*
X-0116805Y0129378D01*
X-0116825Y012937D01*
X-0116846Y0129368D01*
X-0117322Y0129247D01*
X-0117341Y0129237D01*
X-0117362Y0129235D01*
X-0117831Y0129089D01*
X-011785Y0129079D01*
X-0117871Y0129076D01*
X-0118331Y0128905D01*
X-011835Y0128894D01*
X-0118371Y012889D01*
X-0118822Y0128696D01*
X-0118839Y0128684D01*
X-011886Y0128678D01*
X-01193Y0128461D01*
X-0119317Y0128448D01*
X-0119338Y0128442D01*
X-0119767Y0128202D01*
X-0119783Y0128188D01*
X-0119803Y0128181D01*
X-0120219Y0127919D01*
X-0120234Y0127905D01*
X-0120254Y0127896D01*
X-0120655Y0127614D01*
X-012067Y0127598D01*
X-0120689Y0127588D01*
X-0121076Y0127286D01*
X-012109Y0127269D01*
X-0121108Y0127259D01*
X-0121478Y0126936D01*
X-0121492Y0126919D01*
X-012151Y0126908D01*
X-0121863Y0126567D01*
X-0121875Y0126549D01*
X-0121892Y0126537D01*
X-0122227Y0126178D01*
X-0122238Y0126159D01*
X-0122255Y0126146D01*
X-0122571Y012577D01*
X-0122581Y0125751D01*
X-0122597Y0125737D01*
X-0122893Y0125345D01*
X-0122903Y0125326D01*
X-0122918Y0125311D01*
X-0123193Y0124905D01*
X-0123202Y0124885D01*
X-0123216Y0124869D01*
X-012347Y0124449D01*
X-0123477Y0124429D01*
X-0123491Y0124412D01*
X-0123723Y0123979D01*
X-0123729Y0123959D01*
X-0123742Y0123942D01*
X-0123951Y0123498D01*
X-0123956Y0123477D01*
X-0123968Y0123459D01*
X-0124154Y0123004D01*
X-0124158Y0122984D01*
X-0124169Y0122965D01*
X-0124331Y0122502D01*
X-0124334Y012248D01*
X-0124344Y0122461D01*
X-0124482Y012199D01*
X-0124484Y0121969D01*
X-0124493Y012195D01*
X-0124606Y0121472D01*
X-0124607Y012145D01*
X-0124615Y012143D01*
X-0124703Y0120948D01*
X-0124703Y0120926D01*
X-012471Y0120906D01*
X-0124773Y0120419D01*
X-0124772Y0120398D01*
X-0124777Y0120377D01*
X-0124815Y0119887D01*
X-0124813Y0119867D01*
X-0124818Y0119847D01*
X-012483Y0119389D01*
X-0124827Y0119367D01*
X-012483Y0119344D01*
X-0124818Y0118886D01*
X-0124813Y0118866D01*
X-0124815Y0118846D01*
X-0124777Y0118356D01*
X-0124772Y0118335D01*
X-0124773Y0118314D01*
X-012471Y0117827D01*
X-0124703Y0117807D01*
X-0124703Y0117786D01*
X-0124615Y0117303D01*
X-0124607Y0117283D01*
X-0124606Y0117261D01*
X-0124493Y0116784D01*
X-0124484Y0116764D01*
X-0124482Y0116743D01*
X-0124344Y0116272D01*
X-0124334Y0116253D01*
X-0124331Y0116231D01*
X-0124169Y0115768D01*
X-0124158Y011575D01*
X-0124154Y0115728D01*
X-0123968Y0115274D01*
X-0123956Y0115256D01*
X-0123951Y0115235D01*
X-0123742Y0114791D01*
X-0123729Y0114774D01*
X-0123723Y0114754D01*
X-0123491Y0114321D01*
X-0123477Y0114304D01*
X-012347Y0114284D01*
X-0123216Y0113864D01*
X-0123202Y0113848D01*
X-0123193Y0113828D01*
X-0122918Y0113422D01*
X-0122903Y0113407D01*
X-0122893Y0113388D01*
X-0122597Y0112996D01*
X-0122581Y0112982D01*
X-0122571Y0112963D01*
X-0122255Y0112587D01*
X-0122238Y0112574D01*
X-0122227Y0112556D01*
X-0121892Y0112197D01*
X-0121875Y0112184D01*
X-0121863Y0112166D01*
X-012151Y0111825D01*
X-0121492Y0111814D01*
X-0121478Y0111797D01*
X-0121108Y0111474D01*
X-012109Y0111464D01*
X-0121076Y0111447D01*
X-0120689Y0111145D01*
X-012067Y0111135D01*
X-0120655Y0111119D01*
X-0120254Y0110837D01*
X-0120234Y0110828D01*
X-0120219Y0110814D01*
X-0119803Y0110552D01*
X-0119783Y0110545D01*
X-0119767Y0110531D01*
X-0119338Y0110292D01*
X-0119317Y0110285D01*
X-01193Y0110272D01*
X-011886Y0110055D01*
X-0118839Y0110049D01*
X-0118822Y0110037D01*
X-0118371Y0109844D01*
X-011835Y0109839D01*
X-0118331Y0109828D01*
X-0117871Y0109658D01*
X-011785Y0109654D01*
X-0117831Y0109644D01*
X-0117362Y0109498D01*
X-0117341Y0109496D01*
X-0117322Y0109486D01*
X-0116846Y0109365D01*
X-0116825Y0109363D01*
X-0116805Y0109355D01*
X-0116323Y0109258D01*
X-0116302Y0109258D01*
X-0116282Y0109251D01*
X-0115796Y0109179D01*
X-0115775Y010918D01*
X-0115754Y0109174D01*
X-0115266Y0109127D01*
X-0115244Y010913D01*
X-0115222Y0109125D01*
X-0114699Y0109103D01*
X-0114681Y0109105D01*
X-0114665Y0109102D01*
X-0114567D01*
X-0114397Y0109102D01*
X-0114388Y0109104D01*
X-0114379Y0109102D01*
X-0114149Y0109107D01*
X-0114139Y0109109D01*
X-0114128Y0109107D01*
X-0113899Y0109118D01*
X-0113889Y010912D01*
X-0113878Y0109119D01*
X-0113649Y0109135D01*
X-0113639Y0109138D01*
X-0113628Y0109136D01*
X-01134Y0109158D01*
X-011339Y0109161D01*
X-0113379Y0109161D01*
X-0113151Y0109188D01*
X-0113141Y0109191D01*
X-0113131Y0109191D01*
X-0112903Y0109224D01*
X-0112893Y0109228D01*
X-0112883Y0109227D01*
X-0112656Y0109266D01*
X-0112646Y010927D01*
X-0112636Y010927D01*
X-011241Y0109315D01*
X-0112401Y0109319D01*
X-011239Y0109319D01*
X-0112166Y0109369D01*
X-0112156Y0109373D01*
X-0112146Y0109374D01*
X-0111923Y010943D01*
X-0111913Y0109434D01*
X-0111903Y0109435D01*
X-0111681Y0109496D01*
X-0111672Y0109501D01*
X-0111662Y0109502D01*
X-0111442Y0109569D01*
X-0111432Y0109574D01*
X-0111422Y0109575D01*
X-0111204Y0109648D01*
X-0111195Y0109653D01*
X-0111184Y0109654D01*
X-0110968Y0109732D01*
X-0110959Y0109737D01*
X-0110949Y0109739D01*
X-0110734Y0109822D01*
X-0110726Y0109828D01*
X-0110715Y010983D01*
X-0110503Y0109919D01*
X-0110494Y0109924D01*
X-0110484Y0109927D01*
X-0110274Y0110021D01*
X-0110266Y0110027D01*
X-0110256Y0110029D01*
X-0110048Y0110128D01*
X-011004Y0110134D01*
X-011003Y0110137D01*
X-0109825Y0110242D01*
X-0109817Y0110248D01*
X-0109807Y0110251D01*
X-0109604Y0110361D01*
X-0109596Y0110367D01*
X-0109587Y011037D01*
X-0109387Y0110485D01*
X-0109379Y0110492D01*
X-0109369Y0110495D01*
X-0109173Y0110615D01*
X-0109165Y0110622D01*
X-0109155Y0110625D01*
X-0108962Y0110749D01*
X-0108954Y0110757D01*
X-0108945Y0110761D01*
X-0108754Y011089D01*
X-0108747Y0110897D01*
X-0108737Y0110901D01*
X-010855Y0111035D01*
X-0108543Y0111043D01*
X-0108534Y0111047D01*
X-010835Y0111186D01*
X-0108343Y0111194D01*
X-0108334Y0111198D01*
X-0108153Y0111341D01*
X-0108147Y0111349D01*
X-0108138Y0111354D01*
X-0107961Y0111502D01*
X-0107954Y0111511D01*
X-0107944Y0111516D01*
X-0107727Y0111708D01*
X-0107711Y0111728D01*
X-010769Y0111742D01*
X-0107615Y0111854D01*
X-0107534Y0111961D01*
X-0107527Y0111986D01*
X-0107513Y0112007D01*
X-0107487Y0112139D01*
X-0107453Y0112269D01*
X-0107456Y0112294D01*
X-0107451Y0112319D01*
Y0116981D01*
X-0106451Y0117249D01*
X-0105994Y0116458D01*
X-0105113Y0115576D01*
X-0104032Y0114952D01*
X-0102828Y0114629D01*
X-010158D01*
X-0100375Y0114952D01*
X-0099295Y0115576D01*
X-0098413Y0116458D01*
X-009779Y0117538D01*
X-0097655Y0118041D01*
X-009269D01*
X-0079743Y0105094D01*
X-0079313Y0104806D01*
X-0078806Y0104705D01*
X-0070686D01*
X-0070485Y0104505D01*
X-0069824Y0104231D01*
X-0069108D01*
X-0068446Y0104505D01*
X-006794Y0105011D01*
X-0067666Y0105673D01*
Y0106389D01*
X-006794Y010705D01*
X-0068446Y0107557D01*
X-0069108Y0107831D01*
X-0069824D01*
X-0070485Y0107557D01*
X-0070686Y0107356D01*
X-0078256D01*
X-0091204Y0120304D01*
X-0091634Y0120591D01*
X-0092141Y0120692D01*
X-0097655D01*
X-009779Y0121195D01*
X-0098413Y0122275D01*
X-0099295Y0123157D01*
X-0100375Y0123781D01*
X-010158Y0124103D01*
X-0102828D01*
X-0104032Y0123781D01*
X-0104288Y0123633D01*
X-0104902Y0124433D01*
X-0086067Y0143269D01*
X-0054095D01*
X-0053689Y0143185D01*
X-0053104Y0142536D01*
X-0053061Y0142046D01*
X-0053055Y0142026D01*
X-0053056Y0142005D01*
X-0052989Y0141518D01*
X-0052982Y0141498D01*
X-0052982Y0141477D01*
X-0052889Y0140994D01*
X-0052881Y0140975D01*
X-005288Y0140953D01*
X-0052763Y0140477D01*
X-0052754Y0140457D01*
X-0052751Y0140436D01*
X-0052609Y0139966D01*
X-0052599Y0139947D01*
X-0052596Y0139926D01*
X-005243Y0139464D01*
X-0052419Y0139445D01*
X-0052415Y0139425D01*
X-0052225Y0138972D01*
X-0052213Y0138954D01*
X-0052207Y0138933D01*
X-0051995Y0138491D01*
X-0051982Y0138474D01*
X-0051975Y0138453D01*
X-005174Y0138023D01*
X-0051726Y0138006D01*
X-0051718Y0137986D01*
X-0051461Y0137568D01*
X-0051446Y0137552D01*
X-0051438Y0137533D01*
X-0051159Y0137129D01*
X-0051143Y0137114D01*
X-0051134Y0137095D01*
X-0050834Y0136706D01*
X-0050818Y0136691D01*
X-0050808Y0136673D01*
X-0050489Y01363D01*
X-0050472Y0136287D01*
X-0050461Y0136269D01*
X-0050147Y0135937D01*
X-0050128Y0135924D01*
X-0050115Y0135905D01*
X-0049782Y013559D01*
X-0049765Y0135579D01*
X-0049752Y0135563D01*
X-0049379Y0135244D01*
X-004936Y0135233D01*
X-0049346Y0135217D01*
X-0048957Y0134918D01*
X-0048938Y0134908D01*
X-0048923Y0134893D01*
X-0048519Y0134614D01*
X-0048499Y0134606D01*
X-0048483Y0134591D01*
X-0048066Y0134333D01*
X-0048045Y0134326D01*
X-0048029Y0134312D01*
X-0047598Y0134076D01*
X-0047578Y013407D01*
X-0047561Y0134057D01*
X-0047118Y0133844D01*
X-0047098Y0133839D01*
X-004708Y0133827D01*
X-0046627Y0133637D01*
X-0046606Y0133633D01*
X-0046588Y0133622D01*
X-0046126Y0133455D01*
X-0046105Y0133452D01*
X-0046086Y0133442D01*
X-0045616Y01333D01*
X-0045594Y0133298D01*
X-0045575Y0133289D01*
X-0045098Y0133171D01*
X-0045077Y013317D01*
X-0045057Y0133162D01*
X-0044575Y013307D01*
X-0044554Y013307D01*
X-0044533Y0133063D01*
X-0044047Y0132995D01*
X-0044026Y0132996D01*
X-0044005Y013299D01*
X-0043516Y0132948D01*
X-0043495Y013295D01*
X-0043474Y0132946D01*
X-0042983Y0132929D01*
X-0042962Y0132932D01*
X-0042941Y0132928D01*
X-004245Y0132937D01*
X-0042429Y0132941D01*
X-0042408Y0132938D01*
X-0041918Y0132972D01*
X-0041897Y0132978D01*
X-0041876Y0132976D01*
X-0041389Y0133035D01*
X-0041368Y0133042D01*
X-0041347Y0133042D01*
X-0040863Y0133126D01*
X-0040843Y0133133D01*
X-0040822Y0133134D01*
X-0040343Y0133243D01*
X-0040324Y0133252D01*
X-0040302Y0133254D01*
X-003983Y0133388D01*
X-0039811Y0133397D01*
X-003979Y01334D01*
X-0039325Y0133558D01*
X-0039306Y0133569D01*
X-0039285Y0133573D01*
X-0038829Y0133755D01*
X-0038811Y0133766D01*
X-003879Y0133771D01*
X-0038344Y0133977D01*
X-0038327Y0133989D01*
X-0038306Y0133995D01*
X-0037872Y0134223D01*
X-0037855Y0134237D01*
X-0037835Y0134244D01*
X-0037413Y0134494D01*
X-0037397Y0134509D01*
X-0037377Y0134517D01*
X-0036968Y0134789D01*
X-0036953Y0134804D01*
X-0036933Y0134813D01*
X-0036539Y0135106D01*
X-0036525Y0135121D01*
X-0036506Y0135132D01*
X-0036127Y0135444D01*
X-0036113Y0135461D01*
X-0036094Y0135473D01*
X-0035709Y0135828D01*
X-0035699Y0135842D01*
X-0035684Y0135851D01*
X-0035616Y013592D01*
X-0035495Y013604D01*
X-003549Y0136048D01*
X-0035482Y0136053D01*
X-0035323Y0136219D01*
X-0035317Y0136228D01*
X-0035309Y0136234D01*
X-0035154Y0136404D01*
X-0035148Y0136413D01*
X-003514Y0136419D01*
X-0034989Y0136593D01*
X-0034984Y0136602D01*
X-0034976Y0136608D01*
X-003483Y0136785D01*
X-0034825Y0136795D01*
X-0034817Y0136801D01*
X-0034675Y0136982D01*
X-003467Y0136992D01*
X-0034662Y0136999D01*
X-0034525Y0137183D01*
X-0034521Y0137192D01*
X-0034513Y01372D01*
X-003438Y0137388D01*
X-0034376Y0137397D01*
X-0034369Y0137404D01*
X-0034241Y0137595D01*
X-0034237Y0137605D01*
X-0034229Y0137613D01*
X-0034106Y0137807D01*
X-0034102Y0137817D01*
X-0034095Y0137824D01*
X-0033977Y0138022D01*
X-0033974Y0138031D01*
X-0033967Y0138039D01*
X-0033854Y0138239D01*
X-003385Y0138249D01*
X-0033844Y0138257D01*
X-0033735Y013846D01*
X-0033732Y013847D01*
X-0033726Y0138478D01*
X-0033623Y0138684D01*
X-003362Y0138694D01*
X-0033614Y0138702D01*
X-0033516Y013891D01*
X-0033513Y013892D01*
X-0033507Y0138929D01*
X-0033415Y013914D01*
X-0033412Y013915D01*
X-0033407Y0139158D01*
X-0033319Y0139371D01*
X-0033317Y0139381D01*
X-0033312Y013939D01*
X-003323Y0139605D01*
X-0033228Y0139615D01*
X-0033222Y0139624D01*
X-0033146Y0139841D01*
X-0033144Y0139851D01*
X-0033139Y013986D01*
X-0033068Y0140079D01*
X-0033067Y0140089D01*
X-0033062Y0140099D01*
X-0032996Y0140319D01*
X-0032995Y0140329D01*
X-003299Y0140339D01*
X-003293Y0140561D01*
X-0032929Y0140571D01*
X-0032925Y014058D01*
X-003287Y0140804D01*
X-003287Y0140814D01*
X-0032866Y0140824D01*
X-0032817Y0141049D01*
X-0032816Y0141059D01*
X-0032813Y0141069D01*
X-0032769Y0141295D01*
X-0032769Y0141305D01*
X-0032766Y0141315D01*
X-0032728Y0141542D01*
X-0032728Y0141552D01*
X-0032725Y0141562D01*
X-0032693Y014179D01*
X-0032693Y01418D01*
X-003269Y014181D01*
X-0032664Y0142038D01*
X-0032664Y0142049D01*
X-0032662Y0142059D01*
X-0032641Y0142288D01*
X-0032642Y0142299D01*
X-0032639Y0142311D01*
X-0032621Y01426D01*
X-0032625Y0142625D01*
X-003262Y014265D01*
X-0032646Y0142782D01*
X-0032664Y0142915D01*
X-0032677Y0142937D01*
X-0032682Y0142962D01*
X-0032757Y0143074D01*
X-0032824Y014319D01*
X-0032844Y0143205D01*
X-0032859Y0143227D01*
X-0036155Y0146523D01*
X-0035637Y014742D01*
X-0034755Y0147183D01*
X-0033508D01*
X-0032303Y0147506D01*
X-0031223Y014813D01*
X-0030341Y0149012D01*
X-0029717Y0150092D01*
X-0029394Y0151296D01*
Y0152544D01*
X-0029717Y0153749D01*
X-0030341Y0154829D01*
X-0031223Y0155711D01*
X-0032303Y0156334D01*
X-0033508Y0156657D01*
X-0034755D01*
X-003596Y0156334D01*
X-003704Y0155711D01*
X-0037922Y0154829D01*
X-0038546Y0153749D01*
X-0038622Y0153463D01*
X-0039622Y0153595D01*
Y0156869D01*
X-0020425Y0176065D01*
X0008088D01*
X0008168Y0175926D01*
X0008689Y0175405D01*
X0009328Y0175037D01*
X001004Y0174846D01*
X0010777D01*
X0011489Y0175037D01*
X0012128Y0175405D01*
X0012649Y0175926D01*
X0013017Y0176565D01*
X0013208Y0177277D01*
Y0178014D01*
X0013017Y0178726D01*
X0012649Y0179365D01*
X0012128Y0179886D01*
X0011489Y0180255D01*
X0010777Y0180446D01*
D02*
G37*
G36*
X-0036838Y0176346D02*
X-004131Y0171874D01*
X-0036142Y0166706D01*
X-003167Y0171178D01*
X-0036838Y0176346D01*
D02*
G37*
G36*
X-0042406Y0170778D02*
X-0046878Y0166306D01*
X-004171Y0161138D01*
X-0037238Y016561D01*
X-0042406Y0170778D01*
D02*
G37*
G36*
X-0009984Y0169537D02*
X-0015314Y0164207D01*
X-0009984Y0158878D01*
X-0008043Y0160819D01*
X-0007043Y0160405D01*
Y0159388D01*
X-0015072Y0151359D01*
X-0015601Y0151503D01*
X-0016039Y0151806D01*
Y0153507D01*
X-00156Y0153624D01*
X-0014741Y0154121D01*
X-001404Y0154822D01*
X-0013543Y0155682D01*
X-0013287Y015664D01*
Y0157632D01*
X-0013543Y0158591D01*
X-001404Y015945D01*
X-0014741Y0160152D01*
X-00156Y0160648D01*
X-0016559Y0160905D01*
X-0017551D01*
X-001851Y0160648D01*
X-0019369Y0160152D01*
X-0020071Y015945D01*
X-0020567Y0158591D01*
X-0020824Y0157632D01*
Y015664D01*
X-0020567Y0155682D01*
X-0020071Y0154822D01*
X-0019369Y0154121D01*
X-001869Y0153729D01*
Y0152172D01*
X-00285Y0142362D01*
X-0028788Y0141932D01*
X-0028889Y0141425D01*
Y0139103D01*
X-0036503Y0131488D01*
X-0036787D01*
X-0037448Y0131214D01*
X-0037955Y0130708D01*
X-0038229Y0130046D01*
Y012933D01*
X-0037955Y0128669D01*
X-0037448Y0128162D01*
X-0036787Y0127888D01*
X-0036071D01*
X-0035409Y0128162D01*
X-0034903Y0128669D01*
X-0034629Y012933D01*
Y0129614D01*
X-0026626Y0137617D01*
X-0026338Y0138047D01*
X-0026238Y0138554D01*
Y0140876D01*
X-0024725Y0142388D01*
X-0024196Y0142244D01*
X-0023758Y0141941D01*
Y0136416D01*
X-0050511Y0109663D01*
X-0052351D01*
X-0052859Y0109562D01*
X-0053289Y0109275D01*
X-0057738Y0104826D01*
X-0061597D01*
Y0101842D01*
X-0062521Y0101459D01*
X-0063549Y0102488D01*
Y0107313D01*
X-0057974Y0112888D01*
X-0053524D01*
Y0120197D01*
X-0059848D01*
Y0114763D01*
X-0065812Y0108799D01*
X-0066099Y0108369D01*
X-00662Y0107862D01*
Y0101939D01*
X-0066099Y0101431D01*
X-0065812Y0101001D01*
X-0060284Y0095473D01*
X-0059854Y0095186D01*
X-0059347Y0095085D01*
X-0054316D01*
X-0053809Y0095186D01*
X-0053379Y0095473D01*
X-0052793Y0096059D01*
X-0052506Y0096489D01*
X-0052405Y0096996D01*
Y0099414D01*
X-005197Y0099665D01*
X-0051436Y0100199D01*
X-0051059Y0100853D01*
X-0050863Y0101582D01*
Y0102337D01*
X-0051059Y0103066D01*
X-0051436Y0103719D01*
X-005197Y0104253D01*
X-0052624Y0104631D01*
X-0052739Y0104662D01*
X-0053038Y0105777D01*
X-0051802Y0107012D01*
X-0049962D01*
X-0049455Y0107113D01*
X-0049025Y0107401D01*
X-0022788Y0133637D01*
X-0021703Y0133308D01*
X-0021637Y0132974D01*
X-0021057Y0131575D01*
X-0020215Y0130315D01*
X-0019144Y0129244D01*
X-0017885Y0128403D01*
X-0016486Y0127823D01*
X-0015Y0127528D01*
X-0013485D01*
X-0011999Y0127823D01*
X-00106Y0128403D01*
X-0009341Y0129244D01*
X-0008269Y0130315D01*
X-0007428Y0131575D01*
X-0006848Y0132974D01*
X-0006553Y013446D01*
Y0135975D01*
X-0006848Y013746D01*
X-0007428Y013886D01*
X-0008269Y0140119D01*
X-0009341Y014119D01*
X-00106Y0142032D01*
X-0011999Y0142612D01*
X-0013485Y0142907D01*
X-0015D01*
X-0016486Y0142612D01*
X-0017885Y0142032D01*
X-0019144Y014119D01*
X-0020107Y0140228D01*
X-0020555Y0140297D01*
X-0021107Y0140585D01*
Y0141575D01*
X-0004781Y0157902D01*
X-0004493Y0158332D01*
X-0004392Y0158839D01*
Y0161555D01*
X-0004493Y0162062D01*
X-0004781Y0162492D01*
X-0005575Y0163287D01*
X-0004655Y0164207D01*
X-0009984Y0169537D01*
D02*
G37*
G36*
X-0123035Y0107329D02*
X-0130572D01*
Y0099792D01*
X-0124909D01*
X-011749Y0092374D01*
X-011706Y0092086D01*
X-0116553Y0091986D01*
X-0081512D01*
Y0091196D01*
X-0075778D01*
Y0091196D01*
X-0074778Y0091407D01*
X-0074752Y0091391D01*
X-0074022Y0091196D01*
X-0073267D01*
X-0072538Y0091391D01*
X-0071885Y0091769D01*
X-0071351Y0092303D01*
X-0070973Y0092956D01*
X-0070778Y0093686D01*
Y009444D01*
X-0070973Y009517D01*
X-0071351Y0095823D01*
X-0071885Y0096357D01*
X-0072538Y0096734D01*
X-0073267Y009693D01*
X-0074022D01*
X-0074752Y0096734D01*
X-0074778Y0096719D01*
X-0075778Y009693D01*
Y009693D01*
X-0081512D01*
Y0094636D01*
X-0116004D01*
X-0123035Y0101667D01*
Y0107329D01*
D02*
G37*
G36*
X0031764Y0098361D02*
X003031D01*
X0028905Y0097985D01*
X0027645Y0097258D01*
X0026616Y0096229D01*
X0025889Y0094969D01*
X0025513Y0093564D01*
Y009211D01*
X0025889Y0090705D01*
X0026616Y0089445D01*
X0027645Y0088416D01*
X0028905Y0087689D01*
X003031Y0087313D01*
X0031764D01*
X0033169Y0087689D01*
X0034429Y0088416D01*
X0035458Y0089445D01*
X0036185Y0090705D01*
X0036561Y009211D01*
Y0093564D01*
X0036185Y0094969D01*
X0035458Y0096229D01*
X0034429Y0097258D01*
X0033169Y0097985D01*
X0031764Y0098361D01*
D02*
G37*
G36*
X00086Y0038566D02*
X0007884D01*
X0007222Y0038292D01*
X0007022Y0038092D01*
X-0052423D01*
X-005293Y0037991D01*
X-005336Y0037703D01*
X-0088755Y0002309D01*
X-0088871Y0002376D01*
X-0089829Y0002632D01*
X-0090821D01*
X-009178Y0002376D01*
X-0092639Y0001879D01*
X-0093341Y0001178D01*
X-0093837Y0000318D01*
X-0094094Y-000064D01*
Y-0001632D01*
X-0093837Y-0002591D01*
X-0093341Y-000345D01*
X-0092639Y-0004152D01*
X-009178Y-0004648D01*
X-0090821Y-0004905D01*
X-0089829D01*
X-0088871Y-0004648D01*
X-0088011Y-0004152D01*
X-008731Y-000345D01*
X-0086813Y-0002591D01*
X-0086557Y-0001632D01*
Y-000064D01*
X-0086813Y0000318D01*
X-008688Y0000434D01*
X-0051874Y0035441D01*
X0007022D01*
X0007222Y003524D01*
X0007884Y0034966D01*
X00086D01*
X0009262Y003524D01*
X0009768Y0035746D01*
X0010042Y0036408D01*
Y0037124D01*
X0009768Y0037786D01*
X0009262Y0038292D01*
X00086Y0038566D01*
D02*
G37*
G36*
X-0045951Y0032341D02*
X-0046667D01*
X-0047328Y0032067D01*
X-0047835Y0031561D01*
X-0048109Y0030899D01*
Y0030183D01*
X-0047835Y0029522D01*
X-0047328Y0029015D01*
X-0046667Y0028741D01*
X-0045951D01*
X-0045289Y0029015D01*
X-0045088Y0029216D01*
X0041999D01*
X0063109Y0008106D01*
Y0002173D01*
X0062109Y0001759D01*
X0061989Y0001879D01*
X0061129Y0002376D01*
X0060171Y0002632D01*
X0059179D01*
X005822Y0002376D01*
X0057361Y0001879D01*
X0056659Y0001178D01*
X0056163Y0000318D01*
X0055906Y-000064D01*
Y-0001632D01*
X0056163Y-0002591D01*
X0056659Y-000345D01*
X0057361Y-0004152D01*
X005822Y-0004648D01*
X0059179Y-0004905D01*
X0060171D01*
X0061129Y-0004648D01*
X0061989Y-0004152D01*
X0062109Y-0004032D01*
X0062422Y-0004049D01*
X0063169Y-0004386D01*
X006321Y-0004593D01*
X0063497Y-0005023D01*
X0067819Y-0009345D01*
X0067405Y-0010345D01*
X0043123D01*
X0042811Y-0010407D01*
X0042546Y-0010584D01*
X0042369Y-0010848D01*
X0042307Y-0011161D01*
Y-0058685D01*
X0041307Y-00591D01*
X0020298Y-003809D01*
Y-001302D01*
X002034Y-0012978D01*
X002034Y-0012978D01*
X0025041Y-0008277D01*
X002528Y-0007919D01*
X0025328Y-0007847D01*
X0025328Y-0007847D01*
X0025429Y-000734D01*
X0025449Y-0006981D01*
X0025429D01*
X0025429Y-0006981D01*
Y-0003319D01*
X0026429Y-0003051D01*
X0026659Y-000345D01*
X0027361Y-0004152D01*
X002822Y-0004648D01*
X0029179Y-0004905D01*
X0030171D01*
X0031129Y-0004648D01*
X0031989Y-0004152D01*
X003269Y-000345D01*
X0033187Y-0002591D01*
X0033443Y-0001632D01*
Y-000064D01*
X0033187Y0000318D01*
X003269Y0001178D01*
X0031989Y0001879D01*
X0031129Y0002376D01*
X0030171Y0002632D01*
X0029179D01*
X002822Y0002376D01*
X0027361Y0001879D01*
X0026659Y0001178D01*
X0026429Y0000779D01*
X0025429Y0001047D01*
Y0006807D01*
X0025328Y0007314D01*
X0025041Y0007744D01*
X0024455Y000833D01*
X0024025Y0008617D01*
X0023518Y0008718D01*
X-0001797D01*
X-0002304Y0008617D01*
X-0002734Y000833D01*
X-0008755Y0002309D01*
X-0008871Y0002376D01*
X-0009829Y0002632D01*
X-0010821D01*
X-001178Y0002376D01*
X-0012639Y0001879D01*
X-0013341Y0001178D01*
X-0013837Y0000318D01*
X-0014094Y-000064D01*
Y-0001632D01*
X-0013837Y-0002591D01*
X-0013341Y-000345D01*
X-0012639Y-0004152D01*
X-001178Y-0004648D01*
X-0010821Y-0004905D01*
X-0009829D01*
X-0008871Y-0004648D01*
X-0008011Y-0004152D01*
X-000731Y-000345D01*
X-0006814Y-0002591D01*
X-0006557Y-0001632D01*
Y-000064D01*
X-0006814Y0000318D01*
X-000688Y0000434D01*
X-0001247Y0006067D01*
X0003697D01*
X000408Y0005143D01*
X0001245Y0002309D01*
X0001129Y0002376D01*
X0000171Y0002632D01*
X-0000821D01*
X-000178Y0002376D01*
X-0002639Y0001879D01*
X-0003341Y0001178D01*
X-0003837Y0000318D01*
X-0004094Y-000064D01*
Y-0001632D01*
X-0003837Y-0002591D01*
X-0003341Y-000345D01*
X-0002639Y-0004152D01*
X-000178Y-0004648D01*
X-0000821Y-0004905D01*
X0000171D01*
X0001129Y-0004648D01*
X0001989Y-0004152D01*
X000269Y-000345D01*
X0003187Y-0002591D01*
X0003443Y-0001632D01*
Y-000064D01*
X0003187Y0000318D01*
X000312Y0000434D01*
X0006726Y0004041D01*
X0012455D01*
X0013169Y0003327D01*
Y0002114D01*
X0012169Y0001699D01*
X0011989Y0001879D01*
X0011129Y0002376D01*
X0010171Y0002632D01*
X0009179D01*
X000822Y0002376D01*
X0007361Y0001879D01*
X0006659Y0001178D01*
X0006163Y0000318D01*
X0005906Y-000064D01*
Y-0001632D01*
X0006163Y-0002591D01*
X0006659Y-000345D01*
X0007361Y-0004152D01*
X000822Y-0004648D01*
X0008349Y-0004682D01*
Y-0044392D01*
X000845Y-0044899D01*
X0008738Y-0045329D01*
X0008872Y-0045419D01*
X0027021Y-0063568D01*
Y-0064507D01*
X0026029Y-0064856D01*
X0025245Y-0064255D01*
X0024332Y-0063876D01*
X0023353Y-0063748D01*
X0022373Y-0063876D01*
X002146Y-0064255D01*
X0020676Y-0064856D01*
X0020075Y-006564D01*
X0019697Y-0066553D01*
X0019568Y-0067533D01*
Y-0073438D01*
X0019697Y-0074418D01*
X0020075Y-0075331D01*
X0020676Y-0076115D01*
X002146Y-0076716D01*
X0022373Y-0077094D01*
X0023353Y-0077223D01*
X0024332Y-0077094D01*
X0025245Y-0076716D01*
X0026029Y-0076115D01*
X0027021Y-0076464D01*
Y-0080788D01*
X0027122Y-0081295D01*
X002741Y-0081725D01*
X0033793Y-0088109D01*
X0033608Y-0089268D01*
X0033406Y-0089351D01*
X003253Y-0090024D01*
X0031858Y-00909D01*
X0031435Y-009192D01*
X0031291Y-0093015D01*
Y-0093802D01*
X0031435Y-0094897D01*
X0031858Y-0095917D01*
X003253Y-0096793D01*
X0033406Y-0097465D01*
X0034426Y-0097888D01*
X0035521Y-0098032D01*
X0036616Y-0097888D01*
X0037636Y-0097465D01*
X0038512Y-0096793D01*
X0039184Y-0095917D01*
X0039607Y-0094897D01*
X0039751Y-0093802D01*
Y-0093015D01*
X0039607Y-009192D01*
X0039184Y-00909D01*
X0038512Y-0090024D01*
X0037636Y-0089351D01*
X0036846Y-0089024D01*
Y-0087962D01*
X0036745Y-0087455D01*
X0036458Y-0087025D01*
X0029672Y-0080239D01*
Y-0076449D01*
X0030672Y-0076109D01*
X0030676Y-0076115D01*
X003146Y-0076716D01*
X0032373Y-0077094D01*
X0033353Y-0077223D01*
X0034332Y-0077094D01*
X0035245Y-0076716D01*
X0035903Y-0076212D01*
X0036404Y-0076331D01*
X0036902Y-0076619D01*
Y-0081663D01*
X0037003Y-0082171D01*
X0037291Y-0082601D01*
X0050824Y-0096134D01*
X0050637Y-0096832D01*
Y-0097669D01*
X0050854Y-0098477D01*
X0051272Y-0099202D01*
X0051652Y-0099581D01*
X005178Y-0100204D01*
X0051652Y-0100826D01*
X0051272Y-0101205D01*
X0050854Y-010193D01*
X0050637Y-0102738D01*
Y-0103575D01*
X0050854Y-0104383D01*
X0051272Y-0105108D01*
X0051652Y-0105487D01*
X005178Y-0106109D01*
X0051652Y-0106731D01*
X0051272Y-0107111D01*
X0050854Y-0107835D01*
X0050637Y-0108643D01*
Y-010948D01*
X0050854Y-0110289D01*
X0051272Y-0111013D01*
X0051864Y-0111605D01*
X0052589Y-0112023D01*
X0053397Y-011224D01*
X0054234D01*
X0055042Y-0112023D01*
X0055767Y-0111605D01*
X0056358Y-0111013D01*
X0056777Y-0110289D01*
X0056993Y-010948D01*
Y-0108643D01*
X0056777Y-0107835D01*
X0056358Y-0107111D01*
X0055979Y-0106731D01*
X0055851Y-0106109D01*
X0055979Y-0105487D01*
X0056358Y-0105108D01*
X0056425Y-0104992D01*
X0066409D01*
Y-0105337D01*
X0068129D01*
Y-0107726D01*
X0066453D01*
Y-0115034D01*
X0070182D01*
X0071551Y-0116403D01*
Y-0130024D01*
X0071691Y-0130726D01*
X0072089Y-0131321D01*
X0072684Y-0131719D01*
X0073228Y-0131827D01*
X0073739Y-0132731D01*
X0068873Y-0137597D01*
X0058878D01*
X0058267Y-013685D01*
X0058267Y-0136597D01*
Y-0129147D01*
X0050565D01*
Y-0136597D01*
X0050565Y-013685D01*
X0049954Y-0137597D01*
X003414D01*
X0033438Y-0137736D01*
X0032843Y-0138134D01*
X0025139Y-0145838D01*
X0024741Y-0146433D01*
X0024602Y-0147135D01*
Y-0149299D01*
X0024426Y-0149322D01*
X0023406Y-0149745D01*
X002253Y-0150417D01*
X0021858Y-0151293D01*
X0021435Y-0152313D01*
X0021291Y-0153408D01*
Y-0154196D01*
X0021435Y-015529D01*
X0021858Y-0156311D01*
X002253Y-0157187D01*
X0023406Y-0157859D01*
X0024426Y-0158281D01*
X0025521Y-0158426D01*
X0026616Y-0158281D01*
X0027636Y-0157859D01*
X0028512Y-0157187D01*
X0029184Y-0156311D01*
X0029607Y-015529D01*
X0029751Y-0154196D01*
Y-0153408D01*
X0029607Y-0152313D01*
X0029184Y-0151293D01*
X0028512Y-0150417D01*
X0028272Y-0150233D01*
Y-0147896D01*
X0034901Y-0141267D01*
X0069634D01*
X0070336Y-0141127D01*
X0070931Y-014073D01*
X0076366Y-0135295D01*
X0077412Y-0135545D01*
X0077471Y-0135604D01*
X0077993Y-0136384D01*
X0078827Y-0136942D01*
X007981Y-0137137D01*
X0080324D01*
X0081307Y-0136942D01*
X0082141Y-0136384D01*
X0082698Y-0135551D01*
X0082893Y-0134568D01*
Y-0131859D01*
X0103968D01*
X010477Y-0132394D01*
X0105752Y-013259D01*
X0106272D01*
X0107254Y-0132394D01*
X0108087Y-0131838D01*
X0108643Y-0131006D01*
X0108838Y-0130024D01*
X0108643Y-0129042D01*
X0108087Y-0128209D01*
X0107254Y-0127653D01*
X0106272Y-0127457D01*
X0105752D01*
X010477Y-0127653D01*
X0103968Y-0128188D01*
X0082893D01*
Y-0125479D01*
X0082698Y-0124496D01*
X0082141Y-0123663D01*
X0081307Y-0123106D01*
X0080324Y-012291D01*
X007981D01*
X0078827Y-0123106D01*
X0077993Y-0123663D01*
X0077436Y-0124496D01*
X0077241Y-0125479D01*
Y-0128188D01*
X0075222D01*
Y-0115643D01*
X0075722Y-0115034D01*
X0080652D01*
Y-0107726D01*
X0074327D01*
Y-0112516D01*
X0073421Y-0112908D01*
X0072777Y-0112384D01*
Y-0107726D01*
X00718D01*
Y-0105337D01*
X007352D01*
Y-0097832D01*
X0071767D01*
Y-0095316D01*
X0073488D01*
Y-0087811D01*
X0066376D01*
Y-0095316D01*
X0068097D01*
Y-0097832D01*
X0066409D01*
Y-0101321D01*
X0056425D01*
X0056358Y-0101205D01*
X0055979Y-0100826D01*
X0055851Y-0100204D01*
X0055979Y-0099581D01*
X0056358Y-0099202D01*
X0056777Y-0098477D01*
X0056993Y-0097669D01*
Y-0096832D01*
X0056777Y-0096024D01*
X0056358Y-00953D01*
X0055979Y-009492D01*
X0055851Y-0094298D01*
X0055979Y-0093676D01*
X0056358Y-0093297D01*
X0056777Y-0092572D01*
X0056993Y-0091764D01*
Y-0090927D01*
X0056777Y-0090119D01*
X0056358Y-0089394D01*
X0055767Y-0088802D01*
X0055042Y-0088384D01*
X0054234Y-0088167D01*
X0053397D01*
X0052699Y-0088354D01*
X0042626Y-0078281D01*
Y-0065397D01*
X0043123Y-0064476D01*
X0068623D01*
X0068935Y-0064414D01*
X00692Y-0064237D01*
X0069376Y-0063973D01*
X0069438Y-0063661D01*
Y-0012379D01*
X0070438Y-0011965D01*
X0106329Y-0047855D01*
Y-0086961D01*
X0104483Y-0088807D01*
X0104349Y-0089008D01*
X0103856Y-0089501D01*
X0103655Y-0089635D01*
X0102849Y-0090441D01*
X0097415D01*
Y-0097553D01*
X0099842D01*
Y-0099907D01*
X0097519D01*
Y-0104357D01*
X0095893Y-0105983D01*
X0094996Y-0105465D01*
X0095089Y-010512D01*
Y-0104232D01*
X0094859Y-0103373D01*
X0094414Y-0102604D01*
X0093786Y-0101976D01*
X0093016Y-0101531D01*
X0092158Y-0101301D01*
X0091269D01*
X0090411Y-0101531D01*
X0089642Y-0101976D01*
X0089013Y-0102604D01*
X0088569Y-0103373D01*
X0088339Y-0104232D01*
Y-010512D01*
X0088569Y-0105979D01*
X0089013Y-0106748D01*
X0089642Y-0107377D01*
X0090411Y-0107821D01*
X0091269Y-0108051D01*
X0092158D01*
X0092503Y-0107958D01*
X0093021Y-0108855D01*
X0086749Y-0115127D01*
X0086461Y-0115557D01*
X008636Y-0116064D01*
Y-0117358D01*
X0085967Y-0117585D01*
X0085445Y-0118106D01*
X0085077Y-0118745D01*
X0084886Y-0119457D01*
Y-0120194D01*
X0085077Y-0120906D01*
X0085445Y-0121545D01*
X0085967Y-0122066D01*
X0086605Y-0122435D01*
X0087317Y-0122626D01*
X0088055D01*
X0088767Y-0122435D01*
X0089405Y-0122066D01*
X0089926Y-0121545D01*
X0090295Y-0120906D01*
X0090486Y-0120194D01*
Y-0119457D01*
X0090295Y-0118745D01*
X0089926Y-0118106D01*
X0089405Y-0117585D01*
X0089269Y-0117507D01*
X0089177Y-0116448D01*
X0096595Y-0109029D01*
X0097519Y-0109412D01*
Y-0114105D01*
X0104828D01*
Y-0112523D01*
X0106029D01*
X0111286Y-011778D01*
Y-0131791D01*
X010674Y-0136336D01*
X010638Y-0136239D01*
X0105643D01*
X0104931Y-013643D01*
X0104293Y-0136799D01*
X0103771Y-013732D01*
X0103403Y-0137959D01*
X0103212Y-0138671D01*
Y-0138907D01*
X0103185Y-0139039D01*
X0103212Y-0139171D01*
Y-0139408D01*
X0103403Y-014012D01*
X0103771Y-0140759D01*
X0104293Y-014128D01*
X0104931Y-0141649D01*
X0105643Y-0141839D01*
X010638D01*
X0107093Y-0141649D01*
X0107731Y-014128D01*
X0108252Y-0140759D01*
X0108621Y-014012D01*
X0108812Y-0139408D01*
Y-0139171D01*
X0108838Y-0139039D01*
X0108812Y-0138907D01*
Y-0138734D01*
X0113984Y-0133563D01*
X0114326Y-013305D01*
X0114446Y-0132445D01*
Y-0117126D01*
X0114326Y-0116521D01*
X0113984Y-0116008D01*
X0107801Y-0109825D01*
X0107288Y-0109483D01*
X0106684Y-0109363D01*
X0104828D01*
Y-0107781D01*
X0099316D01*
X0098924Y-0106875D01*
X0099449Y-0106231D01*
X0104828D01*
Y-0099907D01*
X0102493D01*
Y-0097553D01*
X010492D01*
Y-0092119D01*
X0105395Y-0091644D01*
X0105596Y-009151D01*
X0106358Y-0090748D01*
X0106492Y-0090547D01*
X0108592Y-0088447D01*
X0108879Y-0088017D01*
X010898Y-008751D01*
Y-0086823D01*
X010998Y-0086555D01*
X0110273Y-0087063D01*
X0110901Y-0087691D01*
X0111671Y-0088136D01*
X0112529Y-0088366D01*
X0113418D01*
X0114276Y-0088136D01*
X0115046Y-0087691D01*
X0115674Y-0087063D01*
X0116118Y-0086294D01*
X0116348Y-0085435D01*
Y-0084547D01*
X0116118Y-0083688D01*
X0115674Y-0082919D01*
X0115046Y-008229D01*
X0114276Y-0081846D01*
X0113418Y-0081616D01*
X0112529D01*
X0111671Y-0081846D01*
X0110901Y-008229D01*
X0110273Y-0082919D01*
X010998Y-0083427D01*
X010898Y-0083159D01*
Y-0047306D01*
X0108879Y-0046799D01*
X0108592Y-0046369D01*
X0067951Y-0005728D01*
X0068229Y-0004719D01*
X0068309Y-0004672D01*
X0069179Y-0004905D01*
X0070171D01*
X0071129Y-0004648D01*
X0071989Y-0004152D01*
X007269Y-000345D01*
X0073186Y-0002591D01*
X0073443Y-0001632D01*
Y-000064D01*
X0073186Y0000318D01*
X007269Y0001178D01*
X0071989Y0001879D01*
X0071129Y0002376D01*
X0070171Y0002632D01*
X0069179D01*
X006822Y0002376D01*
X0067361Y0001879D01*
X006676Y0001278D01*
X0066331Y0001339D01*
X006576Y000162D01*
Y0008655D01*
X0065659Y0009163D01*
X0065372Y0009593D01*
X0043486Y0031479D01*
X0043056Y0031766D01*
X0042548Y0031867D01*
X-0045088D01*
X-0045289Y0032067D01*
X-0045951Y0032341D01*
D02*
G37*
G36*
X0090171Y0002632D02*
X0089179D01*
X008822Y0002376D01*
X0087361Y0001879D01*
X0086659Y0001178D01*
X0086163Y0000318D01*
X0085906Y-000064D01*
Y-0001632D01*
X0086163Y-0002591D01*
X0086659Y-000345D01*
X0087361Y-0004152D01*
X008822Y-0004648D01*
X0089179Y-0004905D01*
X0090171D01*
X0091129Y-0004648D01*
X0091989Y-0004152D01*
X009269Y-000345D01*
X0093186Y-0002591D01*
X0093443Y-0001632D01*
Y-000064D01*
X0093186Y0000318D01*
X009269Y0001178D01*
X0091989Y0001879D01*
X0091129Y0002376D01*
X0090171Y0002632D01*
D02*
G37*
G36*
X0050171D02*
X0049179D01*
X004822Y0002376D01*
X0047361Y0001879D01*
X0046659Y0001178D01*
X0046163Y0000318D01*
X0045906Y-000064D01*
Y-0001632D01*
X0046163Y-0002591D01*
X0046659Y-000345D01*
X0047361Y-0004152D01*
X004822Y-0004648D01*
X0049179Y-0004905D01*
X0050171D01*
X0051129Y-0004648D01*
X0051989Y-0004152D01*
X005269Y-000345D01*
X0053187Y-0002591D01*
X0053443Y-0001632D01*
Y-000064D01*
X0053187Y0000318D01*
X005269Y0001178D01*
X0051989Y0001879D01*
X0051129Y0002376D01*
X0050171Y0002632D01*
D02*
G37*
G36*
X0040171D02*
X0039179D01*
X003822Y0002376D01*
X0037361Y0001879D01*
X0036659Y0001178D01*
X0036163Y0000318D01*
X0035906Y-000064D01*
Y-0001632D01*
X0036163Y-0002591D01*
X0036659Y-000345D01*
X0037361Y-0004152D01*
X003822Y-0004648D01*
X0039179Y-0004905D01*
X0040171D01*
X0041129Y-0004648D01*
X0041989Y-0004152D01*
X004269Y-000345D01*
X0043187Y-0002591D01*
X0043443Y-0001632D01*
Y-000064D01*
X0043187Y0000318D01*
X004269Y0001178D01*
X0041989Y0001879D01*
X0041129Y0002376D01*
X0040171Y0002632D01*
D02*
G37*
G36*
X-0069829D02*
X-0070821D01*
X-007178Y0002376D01*
X-0072639Y0001879D01*
X-0073341Y0001178D01*
X-0073837Y0000318D01*
X-0074094Y-000064D01*
Y-0001632D01*
X-0073837Y-0002591D01*
X-0073341Y-000345D01*
X-0072639Y-0004152D01*
X-007178Y-0004648D01*
X-0070821Y-0004905D01*
X-0069829D01*
X-0068871Y-0004648D01*
X-0068011Y-0004152D01*
X-006731Y-000345D01*
X-0066813Y-0002591D01*
X-0066557Y-0001632D01*
Y-000064D01*
X-0066813Y0000318D01*
X-006731Y0001178D01*
X-0068011Y0001879D01*
X-0068871Y0002376D01*
X-0069829Y0002632D01*
D02*
G37*
G36*
X-0079829D02*
X-0080821D01*
X-008178Y0002376D01*
X-0082639Y0001879D01*
X-0083341Y0001178D01*
X-0083837Y0000318D01*
X-0084094Y-000064D01*
Y-0001632D01*
X-0083837Y-0002591D01*
X-0083341Y-000345D01*
X-0082639Y-0004152D01*
X-008178Y-0004648D01*
X-0080821Y-0004905D01*
X-0079829D01*
X-0078871Y-0004648D01*
X-0078011Y-0004152D01*
X-007731Y-000345D01*
X-0076814Y-0002591D01*
X-0076557Y-0001632D01*
Y-000064D01*
X-0076814Y0000318D01*
X-007731Y0001178D01*
X-0078011Y0001879D01*
X-0078871Y0002376D01*
X-0079829Y0002632D01*
D02*
G37*
G36*
X-0019829D02*
X-0020821D01*
X-002178Y0002376D01*
X-0022639Y0001879D01*
X-0023341Y0001178D01*
X-0023837Y0000318D01*
X-0024094Y-000064D01*
Y-0001632D01*
X-0023837Y-0002591D01*
X-0023341Y-000345D01*
X-0022639Y-0004152D01*
X-002178Y-0004648D01*
X-0021764Y-0004652D01*
X-0021896Y-0005652D01*
X-0028755D01*
X-0028886Y-0004652D01*
X-0028871Y-0004648D01*
X-0028011Y-0004152D01*
X-002731Y-000345D01*
X-0026814Y-0002591D01*
X-0026557Y-0001632D01*
Y-000064D01*
X-0026814Y0000318D01*
X-002731Y0001178D01*
X-0028011Y0001879D01*
X-0028871Y0002376D01*
X-0029829Y0002632D01*
X-0030821D01*
X-003178Y0002376D01*
X-0032639Y0001879D01*
X-0033341Y0001178D01*
X-0033837Y0000318D01*
X-0034094Y-000064D01*
Y-0001632D01*
X-0033837Y-0002591D01*
X-0033341Y-000345D01*
X-0032639Y-0004152D01*
X-003178Y-0004648D01*
X-0031764Y-0004652D01*
X-0031896Y-0005652D01*
X-0038755D01*
X-0038886Y-0004652D01*
X-0038871Y-0004648D01*
X-0038011Y-0004152D01*
X-003731Y-000345D01*
X-0036814Y-0002591D01*
X-0036557Y-0001632D01*
Y-000064D01*
X-0036814Y0000318D01*
X-003731Y0001178D01*
X-0038011Y0001879D01*
X-0038871Y0002376D01*
X-0039829Y0002632D01*
X-0040821D01*
X-004178Y0002376D01*
X-0042639Y0001879D01*
X-0043341Y0001178D01*
X-0043837Y0000318D01*
X-0044094Y-000064D01*
Y-0001632D01*
X-0043837Y-0002591D01*
X-0043341Y-000345D01*
X-0042639Y-0004152D01*
X-004178Y-0004648D01*
X-0041764Y-0004652D01*
X-0041896Y-0005652D01*
X-0043935D01*
X-004688Y-0002707D01*
X-0046813Y-0002591D01*
X-0046557Y-0001632D01*
Y-000064D01*
X-0046813Y0000318D01*
X-004731Y0001178D01*
X-0048011Y0001879D01*
X-0048871Y0002376D01*
X-0049829Y0002632D01*
X-0050821D01*
X-005178Y0002376D01*
X-0052639Y0001879D01*
X-0053341Y0001178D01*
X-0053837Y0000318D01*
X-0054094Y-000064D01*
Y-0001632D01*
X-0053837Y-0002591D01*
X-0053341Y-000345D01*
X-0052639Y-0004152D01*
X-005178Y-0004648D01*
X-0050821Y-0004905D01*
X-0049829D01*
X-0048871Y-0004648D01*
X-0048755Y-0004581D01*
X-004672Y-0006616D01*
X-0047102Y-000754D01*
X-0052047D01*
X-005688Y-0002707D01*
X-0056814Y-0002591D01*
X-0056557Y-0001632D01*
Y-000064D01*
X-0056814Y0000318D01*
X-005731Y0001178D01*
X-0058011Y0001879D01*
X-0058871Y0002376D01*
X-0059829Y0002632D01*
X-0060821D01*
X-006178Y0002376D01*
X-0062639Y0001879D01*
X-0063341Y0001178D01*
X-0063837Y0000318D01*
X-0064094Y-000064D01*
Y-0001632D01*
X-0063837Y-0002591D01*
X-0063341Y-000345D01*
X-0062639Y-0004152D01*
X-006178Y-0004648D01*
X-0060821Y-0004905D01*
X-0059829D01*
X-0058871Y-0004648D01*
X-0058755Y-0004581D01*
X-0054063Y-0009273D01*
X-0054477Y-0010273D01*
X-0072643D01*
X-0072955Y-0010335D01*
X-007322Y-0010512D01*
X-0073396Y-0010776D01*
X-0073459Y-0011089D01*
Y-0064089D01*
X-0073396Y-0064401D01*
X-007322Y-0064665D01*
X-0072955Y-0064842D01*
X-0072643Y-0064904D01*
X-0048441D01*
X-0048027Y-0065904D01*
X-0055051Y-0072929D01*
X-0055338Y-0073359D01*
X-0055439Y-0073866D01*
Y-0085732D01*
X-0063007Y-00933D01*
X-0066867D01*
X-0067229Y-0092674D01*
X-0067608Y-0092295D01*
X-0067736Y-0091672D01*
X-0067608Y-009105D01*
X-0067229Y-0090671D01*
X-006681Y-0089946D01*
X-0066594Y-0089138D01*
Y-0088301D01*
X-006681Y-0087493D01*
X-0067229Y-0086768D01*
X-0067608Y-0086389D01*
X-0067736Y-0085767D01*
X-0067608Y-0085145D01*
X-0067229Y-0084765D01*
X-006681Y-0084041D01*
X-0066594Y-0083233D01*
Y-0082396D01*
X-006681Y-0081587D01*
X-0067229Y-0080863D01*
X-006782Y-0080271D01*
X-0068545Y-0079853D01*
X-0069353Y-0079636D01*
X-007019D01*
X-0070998Y-0079853D01*
X-0071723Y-0080271D01*
X-0072315Y-0080863D01*
X-0072733Y-0081587D01*
X-007295Y-0082396D01*
Y-0083233D01*
X-0072733Y-0084041D01*
X-0072315Y-0084765D01*
X-0071935Y-0085145D01*
X-0071807Y-0085767D01*
X-0071935Y-0086389D01*
X-0072315Y-0086768D01*
X-0072382Y-0086884D01*
X-0082877D01*
X-0083579Y-0087024D01*
X-0084175Y-0087422D01*
X-0104176Y-0107424D01*
X-0104333Y-0107359D01*
X-0105364Y-0107223D01*
X-0106939D01*
X-010797Y-0107359D01*
X-010893Y-0107757D01*
X-0109756Y-010839D01*
X-0110389Y-0109215D01*
X-0110786Y-0110176D01*
X-0110922Y-0111207D01*
X-0110786Y-0112238D01*
X-0110389Y-0113198D01*
X-0109756Y-0114024D01*
X-010893Y-0114657D01*
X-010797Y-0115055D01*
X-0106939Y-011519D01*
X-0105364D01*
X-0104333Y-0115055D01*
X-0103372Y-0114657D01*
X-0102547Y-0114024D01*
X-0101914Y-0113198D01*
X-0101516Y-0112238D01*
X-010138Y-0111207D01*
X-0101516Y-0110176D01*
X-0101581Y-0110019D01*
X-0082117Y-0090555D01*
X-0072382D01*
X-0072315Y-0090671D01*
X-0071935Y-009105D01*
X-0071807Y-0091672D01*
X-0071935Y-0092295D01*
X-0072315Y-0092674D01*
X-0072733Y-0093399D01*
X-007295Y-0094207D01*
Y-0095044D01*
X-0072733Y-0095852D01*
X-0072315Y-0096576D01*
X-0071935Y-0096956D01*
X-0071807Y-0097578D01*
X-0071935Y-00982D01*
X-0072315Y-0098579D01*
X-0072733Y-0099304D01*
X-007295Y-0100112D01*
Y-0100949D01*
X-0072733Y-0101757D01*
X-0072315Y-0102482D01*
X-0071723Y-0103074D01*
X-0070998Y-0103492D01*
X-007019Y-0103709D01*
X-0069353D01*
X-0068545Y-0103492D01*
X-006782Y-0103074D01*
X-0067229Y-0102482D01*
X-0067193Y-010242D01*
X-0061528D01*
X-0061021Y-0102319D01*
X-0060591Y-0102032D01*
X-0048392Y-0089833D01*
X-0048105Y-0089403D01*
X-0048004Y-0088896D01*
Y-0072176D01*
X-0040255Y-0064427D01*
X-0039502Y-0065088D01*
X-0039925Y-006564D01*
X-0040303Y-0066553D01*
X-0040432Y-0067533D01*
Y-0073438D01*
X-0040303Y-0074418D01*
X-0039925Y-0075331D01*
X-0039324Y-0076115D01*
X-003854Y-0076716D01*
X-0037627Y-0077094D01*
X-0036647Y-0077223D01*
X-0035668Y-0077094D01*
X-0034755Y-0076716D01*
X-0033971Y-0076115D01*
X-0033369Y-0075331D01*
X-0032991Y-0074418D01*
X-0032862Y-0073438D01*
Y-0067533D01*
X-0032991Y-0066553D01*
X-0033369Y-006564D01*
X-0033971Y-0064856D01*
X-0034755Y-0064255D01*
X-0035668Y-0063876D01*
X-0036647Y-0063748D01*
X-0037627Y-0063876D01*
X-003854Y-0064255D01*
X-0039092Y-0064678D01*
X-0039753Y-0063925D01*
X-0012558Y-003673D01*
X-001227Y-00363D01*
X-0012169Y-0035792D01*
Y-00139D01*
X-001227Y-0013393D01*
X-0012558Y-0012963D01*
X-001948Y-000604D01*
X-0019739Y-0005867D01*
X-0019756Y-0005683D01*
X-001969Y-0005093D01*
X-0019606Y-0004845D01*
X-0018871Y-0004648D01*
X-0018011Y-0004152D01*
X-001731Y-000345D01*
X-0016814Y-0002591D01*
X-0016557Y-0001632D01*
Y-000064D01*
X-0016814Y0000318D01*
X-001731Y0001178D01*
X-0018011Y0001879D01*
X-0018871Y0002376D01*
X-0019829Y0002632D01*
D02*
G37*
G36*
X0145056Y0004646D02*
X0143602D01*
X0142197Y000427D01*
X0140937Y0003543D01*
X0139909Y0002514D01*
X0139181Y0001254D01*
X0138805Y-0000151D01*
Y-0001605D01*
X0139181Y-000301D01*
X0139909Y-000427D01*
X0140937Y-0005299D01*
X0142197Y-0006026D01*
X0143602Y-0006402D01*
X0145056D01*
X0146461Y-0006026D01*
X0147721Y-0005299D01*
X014875Y-000427D01*
X0149477Y-000301D01*
X0149854Y-0001605D01*
Y-0000151D01*
X0149477Y0001254D01*
X014875Y0002514D01*
X0147721Y0003543D01*
X0146461Y000427D01*
X0145056Y0004646D01*
D02*
G37*
G36*
X0030236Y-0018264D02*
X0028721D01*
X0027236Y-001856D01*
X0025836Y-0019139D01*
X0024577Y-0019981D01*
X0023506Y-0021052D01*
X0022664Y-0022311D01*
X0022084Y-0023711D01*
X0021789Y-0025196D01*
Y-0026711D01*
X0022084Y-0028197D01*
X0022664Y-0029596D01*
X0023506Y-0030856D01*
X0024577Y-0031927D01*
X0025836Y-0032768D01*
X0027236Y-0033348D01*
X0028721Y-0033644D01*
X0030236D01*
X0031722Y-0033348D01*
X0033121Y-0032768D01*
X0034381Y-0031927D01*
X0035452Y-0030856D01*
X0036293Y-0029596D01*
X0036873Y-0028197D01*
X0037168Y-0026711D01*
Y-0025196D01*
X0036873Y-0023711D01*
X0036293Y-0022311D01*
X0035452Y-0021052D01*
X0034381Y-0019981D01*
X0033121Y-0019139D01*
X0031722Y-001856D01*
X0030236Y-0018264D01*
D02*
G37*
G36*
X-0105364Y-0067223D02*
X-0106939D01*
X-010797Y-0067359D01*
X-010893Y-0067757D01*
X-0109756Y-006839D01*
X-0110389Y-0069215D01*
X-0110786Y-0070176D01*
X-0110922Y-0071207D01*
X-0110786Y-0072238D01*
X-0110389Y-0073198D01*
X-0109756Y-0074024D01*
X-010893Y-0074657D01*
X-010797Y-0075055D01*
X-0106939Y-007519D01*
X-0105364D01*
X-0104333Y-0075055D01*
X-0103372Y-0074657D01*
X-0102547Y-0074024D01*
X-0101914Y-0073198D01*
X-0101516Y-0072238D01*
X-010138Y-0071207D01*
X-0101516Y-0070176D01*
X-0101914Y-0069215D01*
X-0102547Y-006839D01*
X-0103372Y-0067757D01*
X-0104333Y-0067359D01*
X-0105364Y-0067223D01*
D02*
G37*
G36*
X0013353Y-0063748D02*
X0012373Y-0063876D01*
X001146Y-0064255D01*
X0010676Y-0064856D01*
X0010075Y-006564D01*
X0009697Y-0066553D01*
X0009568Y-0067533D01*
Y-0073438D01*
X0009697Y-0074418D01*
X0010075Y-0075331D01*
X0010676Y-0076115D01*
X001146Y-0076716D01*
X0012373Y-0077094D01*
X0013353Y-0077223D01*
X0014332Y-0077094D01*
X0015245Y-0076716D01*
X0016029Y-0076115D01*
X0016631Y-0075331D01*
X0017009Y-0074418D01*
X0017138Y-0073438D01*
Y-0067533D01*
X0017009Y-0066553D01*
X0016631Y-006564D01*
X0016029Y-0064856D01*
X0015245Y-0064255D01*
X0014332Y-0063876D01*
X0013353Y-0063748D01*
D02*
G37*
G36*
X0003353D02*
X0002373Y-0063876D01*
X000146Y-0064255D01*
X0000676Y-0064856D01*
X0000075Y-006564D01*
X-0000303Y-0066553D01*
X-0000432Y-0067533D01*
Y-0073438D01*
X-0000303Y-0074418D01*
X0000075Y-0075331D01*
X0000676Y-0076115D01*
X000146Y-0076716D01*
X0002373Y-0077094D01*
X0003353Y-0077223D01*
X0004332Y-0077094D01*
X0005245Y-0076716D01*
X0006029Y-0076115D01*
X0006631Y-0075331D01*
X0007009Y-0074418D01*
X0007138Y-0073438D01*
Y-0067533D01*
X0007009Y-0066553D01*
X0006631Y-006564D01*
X0006029Y-0064856D01*
X0005245Y-0064255D01*
X0004332Y-0063876D01*
X0003353Y-0063748D01*
D02*
G37*
G36*
X-0006647D02*
X-0007627Y-0063876D01*
X-000854Y-0064255D01*
X-0009324Y-0064856D01*
X-0009925Y-006564D01*
X-0010303Y-0066553D01*
X-0010432Y-0067533D01*
Y-0073438D01*
X-0010303Y-0074418D01*
X-0009925Y-0075331D01*
X-0009324Y-0076115D01*
X-000854Y-0076716D01*
X-0007627Y-0077094D01*
X-0006647Y-0077223D01*
X-0005668Y-0077094D01*
X-0004755Y-0076716D01*
X-0003971Y-0076115D01*
X-0003369Y-0075331D01*
X-0002991Y-0074418D01*
X-0002862Y-0073438D01*
Y-0067533D01*
X-0002991Y-0066553D01*
X-0003369Y-006564D01*
X-0003971Y-0064856D01*
X-0004755Y-0064255D01*
X-0005668Y-0063876D01*
X-0006647Y-0063748D01*
D02*
G37*
G36*
X-0016647D02*
X-0017627Y-0063876D01*
X-001854Y-0064255D01*
X-0019324Y-0064856D01*
X-0019925Y-006564D01*
X-0020303Y-0066553D01*
X-0020432Y-0067533D01*
Y-0073438D01*
X-0020303Y-0074418D01*
X-0019925Y-0075331D01*
X-0019324Y-0076115D01*
X-001854Y-0076716D01*
X-0017627Y-0077094D01*
X-0016647Y-0077223D01*
X-0015668Y-0077094D01*
X-0014755Y-0076716D01*
X-0013971Y-0076115D01*
X-0013369Y-0075331D01*
X-0012991Y-0074418D01*
X-0012862Y-0073438D01*
Y-0067533D01*
X-0012991Y-0066553D01*
X-0013369Y-006564D01*
X-0013971Y-0064856D01*
X-0014755Y-0064255D01*
X-0015668Y-0063876D01*
X-0016647Y-0063748D01*
D02*
G37*
G36*
X0145058Y-006705D02*
X0143603D01*
X0142198Y-0067427D01*
X0140939Y-0068154D01*
X013991Y-0069183D01*
X0139183Y-0070442D01*
X0138806Y-0071847D01*
Y-0073302D01*
X0139183Y-0074707D01*
X013991Y-0075967D01*
X0140939Y-0076995D01*
X0142198Y-0077723D01*
X0143603Y-0078099D01*
X0145058D01*
X0146463Y-0077723D01*
X0147723Y-0076995D01*
X0148751Y-0075967D01*
X0149479Y-0074707D01*
X0149855Y-0073302D01*
Y-0071847D01*
X0149479Y-0070442D01*
X0148751Y-0069183D01*
X0147723Y-0068154D01*
X0146463Y-0067427D01*
X0145058Y-006705D01*
D02*
G37*
G36*
X0054234Y-0076356D02*
X0053397D01*
X0052589Y-0076573D01*
X0051864Y-0076991D01*
X0051272Y-0077583D01*
X0050854Y-0078308D01*
X0050637Y-0079116D01*
Y-0079953D01*
X0050854Y-0080761D01*
X0051272Y-0081486D01*
X0051864Y-0082077D01*
X0052589Y-0082496D01*
X0053397Y-0082712D01*
X0054234D01*
X0055042Y-0082496D01*
X0055767Y-0082077D01*
X0056358Y-0081486D01*
X0056777Y-0080761D01*
X0056993Y-0079953D01*
Y-0079116D01*
X0056777Y-0078308D01*
X0056358Y-0077583D01*
X0055767Y-0076991D01*
X0055042Y-0076573D01*
X0054234Y-0076356D01*
D02*
G37*
G36*
X-0105364Y-0077223D02*
X-0106939D01*
X-010797Y-0077359D01*
X-010893Y-0077757D01*
X-0109756Y-007839D01*
X-0110389Y-0079215D01*
X-0110786Y-0080176D01*
X-0110922Y-0081207D01*
X-0110786Y-0082238D01*
X-0110389Y-0083198D01*
X-0109756Y-0084024D01*
X-010893Y-0084657D01*
X-010797Y-0085055D01*
X-0106939Y-008519D01*
X-0105364D01*
X-0104333Y-0085055D01*
X-0103372Y-0084657D01*
X-0102547Y-0084024D01*
X-0101914Y-0083198D01*
X-0101516Y-0082238D01*
X-010138Y-0081207D01*
X-0101516Y-0080176D01*
X-0101914Y-0079215D01*
X-0102547Y-007839D01*
X-0103372Y-0077757D01*
X-0104333Y-0077359D01*
X-0105364Y-0077223D01*
D02*
G37*
G36*
X0092158Y-0081616D02*
X0091269D01*
X0090411Y-0081846D01*
X0089642Y-008229D01*
X0089013Y-0082919D01*
X0088569Y-0083688D01*
X0088339Y-0084547D01*
Y-0085435D01*
X0088569Y-0086294D01*
X0089013Y-0087063D01*
X0089642Y-0087691D01*
X0090411Y-0088136D01*
X0091269Y-0088366D01*
X0092158D01*
X0093016Y-0088136D01*
X0093786Y-0087691D01*
X0094414Y-0087063D01*
X0094859Y-0086294D01*
X0095089Y-0085435D01*
Y-0084547D01*
X0094859Y-0083688D01*
X0094414Y-0082919D01*
X0093786Y-008229D01*
X0093016Y-0081846D01*
X0092158Y-0081616D01*
D02*
G37*
G36*
X-0105364Y-0087223D02*
X-0106939D01*
X-010797Y-0087359D01*
X-010893Y-0087757D01*
X-0109756Y-008839D01*
X-0110389Y-0089215D01*
X-0110786Y-0090176D01*
X-0110922Y-0091207D01*
X-0110786Y-0092238D01*
X-0110389Y-0093199D01*
X-0109756Y-0094024D01*
X-010893Y-0094657D01*
X-010797Y-0095055D01*
X-0106939Y-009519D01*
X-0105364D01*
X-0104333Y-0095055D01*
X-0103372Y-0094657D01*
X-0102547Y-0094024D01*
X-0101914Y-0093199D01*
X-0101516Y-0092238D01*
X-010138Y-0091207D01*
X-0101516Y-0090176D01*
X-0101914Y-0089215D01*
X-0102547Y-008839D01*
X-0103372Y-0087757D01*
X-0104333Y-0087359D01*
X-0105364Y-0087223D01*
D02*
G37*
G36*
X0025521Y-0088785D02*
X0024426Y-0088929D01*
X0023406Y-0089351D01*
X002253Y-0090024D01*
X0021858Y-00909D01*
X0021435Y-009192D01*
X0021291Y-0093015D01*
Y-0093802D01*
X0021435Y-0094897D01*
X0021858Y-0095917D01*
X002253Y-0096793D01*
X0023406Y-0097465D01*
X0024426Y-0097888D01*
X0025521Y-0098032D01*
X0026616Y-0097888D01*
X0027636Y-0097465D01*
X0028512Y-0096793D01*
X0029184Y-0095917D01*
X0029607Y-0094897D01*
X0029751Y-0093802D01*
Y-0093015D01*
X0029607Y-009192D01*
X0029184Y-00909D01*
X0028512Y-0090024D01*
X0027636Y-0089351D01*
X0026616Y-0088929D01*
X0025521Y-0088785D01*
D02*
G37*
G36*
X0015521D02*
X0014426Y-0088929D01*
X0013406Y-0089351D01*
X001253Y-0090024D01*
X0011858Y-00909D01*
X0011435Y-009192D01*
X0011291Y-0093015D01*
Y-0093802D01*
X0011435Y-0094897D01*
X0011858Y-0095917D01*
X001253Y-0096793D01*
X0013406Y-0097465D01*
X0014426Y-0097888D01*
X0015521Y-0098032D01*
X0016616Y-0097888D01*
X0017636Y-0097465D01*
X0018512Y-0096793D01*
X0019184Y-0095917D01*
X0019607Y-0094897D01*
X0019751Y-0093802D01*
Y-0093015D01*
X0019607Y-009192D01*
X0019184Y-00909D01*
X0018512Y-0090024D01*
X0017636Y-0089351D01*
X0016616Y-0088929D01*
X0015521Y-0088785D01*
D02*
G37*
G36*
X0113418Y-0091459D02*
X0112529D01*
X0111671Y-0091689D01*
X0110901Y-0092133D01*
X0110273Y-0092761D01*
X0109829Y-0093531D01*
X0109599Y-0094389D01*
Y-0095278D01*
X0109829Y-0096136D01*
X0110273Y-0096906D01*
X0110901Y-0097534D01*
X0111671Y-0097978D01*
X0112529Y-0098208D01*
X0113418D01*
X0114276Y-0097978D01*
X0115046Y-0097534D01*
X0115674Y-0096906D01*
X0116118Y-0096136D01*
X0116348Y-0095278D01*
Y-0094389D01*
X0116118Y-0093531D01*
X0115674Y-0092761D01*
X0115046Y-0092133D01*
X0114276Y-0091689D01*
X0113418Y-0091459D01*
D02*
G37*
G36*
X0116348Y-0101301D02*
X0109599D01*
Y-0108051D01*
X0116348D01*
Y-0101301D01*
D02*
G37*
G36*
X-0069353Y-0109164D02*
X-007019D01*
X-0070998Y-010938D01*
X-0071723Y-0109799D01*
X-0072315Y-011039D01*
X-0072733Y-0111115D01*
X-007295Y-0111923D01*
Y-011276D01*
X-0072733Y-0113568D01*
X-0072315Y-0114293D01*
X-0071723Y-0114885D01*
X-0070998Y-0115303D01*
X-007019Y-011552D01*
X-0069353D01*
X-0068545Y-0115303D01*
X-006782Y-0114885D01*
X-0067229Y-0114293D01*
X-006681Y-0113568D01*
X-0066594Y-011276D01*
Y-0111923D01*
X-006681Y-0111115D01*
X-0067229Y-011039D01*
X-006782Y-0109799D01*
X-0068545Y-010938D01*
X-0069353Y-0109164D01*
D02*
G37*
G36*
X-0101414Y-0117257D02*
X-0110888D01*
Y-0125156D01*
X-0101414D01*
Y-0117257D01*
D02*
G37*
G36*
X0035521Y-0149178D02*
X0034426Y-0149322D01*
X0033406Y-0149745D01*
X003253Y-0150417D01*
X0031858Y-0151293D01*
X0031435Y-0152313D01*
X0031291Y-0153408D01*
Y-0154196D01*
X0031435Y-015529D01*
X0031858Y-0156311D01*
X003253Y-0157187D01*
X0033406Y-0157859D01*
X0034426Y-0158281D01*
X0035521Y-0158426D01*
X0036616Y-0158281D01*
X0037636Y-0157859D01*
X0038512Y-0157187D01*
X0039184Y-0156311D01*
X0039607Y-015529D01*
X0039751Y-0154196D01*
Y-0153408D01*
X0039607Y-0152313D01*
X0039184Y-0151293D01*
X0038512Y-0150417D01*
X0037636Y-0149745D01*
X0036616Y-0149322D01*
X0035521Y-0149178D01*
D02*
G37*
G36*
X0005521D02*
X0004426Y-0149322D01*
X0003406Y-0149745D01*
X000253Y-0150417D01*
X0001858Y-0151293D01*
X0001435Y-0152313D01*
X0001291Y-0153408D01*
Y-0154196D01*
X0001435Y-015529D01*
X0001858Y-0156311D01*
X000253Y-0157187D01*
X0003406Y-0157859D01*
X0004426Y-0158281D01*
X0005521Y-0158426D01*
X0006616Y-0158281D01*
X0007636Y-0157859D01*
X0008512Y-0157187D01*
X0009184Y-0156311D01*
X0009607Y-015529D01*
X0009751Y-0154196D01*
Y-0153408D01*
X0009607Y-0152313D01*
X0009184Y-0151293D01*
X0008512Y-0150417D01*
X0007636Y-0149745D01*
X0006616Y-0149322D01*
X0005521Y-0149178D01*
D02*
G37*
G36*
X-0004479D02*
X-0005574Y-0149322D01*
X-0006594Y-0149745D01*
X-000747Y-0150417D01*
X-0008142Y-0151293D01*
X-0008565Y-0152313D01*
X-0008709Y-0153408D01*
Y-0154196D01*
X-0008565Y-015529D01*
X-0008142Y-0156311D01*
X-000747Y-0157187D01*
X-0006594Y-0157859D01*
X-0005574Y-0158281D01*
X-0004479Y-0158426D01*
X-0003384Y-0158281D01*
X-0002364Y-0157859D01*
X-0001488Y-0157187D01*
X-0000816Y-0156311D01*
X-0000393Y-015529D01*
X-0000249Y-0154196D01*
Y-0153408D01*
X-0000393Y-0152313D01*
X-0000816Y-0151293D01*
X-0001488Y-0150417D01*
X-0002364Y-0149745D01*
X-0003384Y-0149322D01*
X-0004479Y-0149178D01*
D02*
G37*
G36*
X-0014479D02*
X-0015574Y-0149322D01*
X-0016594Y-0149745D01*
X-001747Y-0150417D01*
X-0018142Y-0151293D01*
X-0018565Y-0152313D01*
X-0018709Y-0153408D01*
Y-0154196D01*
X-0018565Y-015529D01*
X-0018142Y-0156311D01*
X-001747Y-0157187D01*
X-0016594Y-0157859D01*
X-0015574Y-0158281D01*
X-0014479Y-0158426D01*
X-0013384Y-0158281D01*
X-0012364Y-0157859D01*
X-0011488Y-0157187D01*
X-0010816Y-0156311D01*
X-0010393Y-015529D01*
X-0010249Y-0154196D01*
Y-0153408D01*
X-0010393Y-0152313D01*
X-0010816Y-0151293D01*
X-0011488Y-0150417D01*
X-0012364Y-0149745D01*
X-0013384Y-0149322D01*
X-0014479Y-0149178D01*
D02*
G37*
G36*
X-0024479D02*
X-0025574Y-0149322D01*
X-0026594Y-0149745D01*
X-002747Y-0150417D01*
X-0028142Y-0151293D01*
X-0028565Y-0152313D01*
X-0028709Y-0153408D01*
Y-0154196D01*
X-0028565Y-015529D01*
X-0028142Y-0156311D01*
X-002747Y-0157187D01*
X-0026594Y-0157859D01*
X-0025574Y-0158281D01*
X-0024479Y-0158426D01*
X-0023384Y-0158281D01*
X-0022364Y-0157859D01*
X-0021488Y-0157187D01*
X-0020816Y-0156311D01*
X-0020393Y-015529D01*
X-0020249Y-0154196D01*
Y-0153408D01*
X-0020393Y-0152313D01*
X-0020816Y-0151293D01*
X-0021488Y-0150417D01*
X-0022364Y-0149745D01*
X-0023384Y-0149322D01*
X-0024479Y-0149178D01*
D02*
G37*
%LPD*%
G36*
X-0038586Y01478D02*
X-0033435Y014265D01*
X-0033453Y0142361D01*
X-0033474Y0142132D01*
X-00335Y0141903D01*
X-0033532Y0141675D01*
X-003357Y0141449D01*
X-0033614Y0141223D01*
X-0033663Y0140998D01*
X-0033717Y0140774D01*
X-0033778Y0140552D01*
X-0033843Y0140332D01*
X-0033915Y0140113D01*
X-0033991Y0139896D01*
X-0034074Y0139681D01*
X-0034161Y0139469D01*
X-0034254Y0139258D01*
X-0034352Y013905D01*
X-0034455Y0138844D01*
X-0034563Y0138641D01*
X-0034677Y0138441D01*
X-0034795Y0138244D01*
X-0034918Y0138049D01*
X-0035046Y0137858D01*
X-0035179Y013767D01*
X-0035317Y0137486D01*
X-0035458Y0137305D01*
X-0035605Y0137127D01*
X-0035756Y0136954D01*
X-0035911Y0136784D01*
X-003607Y0136618D01*
X-0036191Y0136497D01*
X-0036261Y0136428D01*
X-0036647Y0136073D01*
X-0037025Y013576D01*
X-003742Y0135468D01*
X-0037828Y0135196D01*
X-0038251Y0134946D01*
X-0038685Y0134718D01*
X-0039131Y0134512D01*
X-0039587Y013433D01*
X-0040052Y0134172D01*
X-0040525Y0134038D01*
X-0041003Y0133929D01*
X-0041487Y0133845D01*
X-0041974Y0133786D01*
X-0042464Y0133752D01*
X-0042955Y0133744D01*
X-0043446Y0133761D01*
X-0043935Y0133803D01*
X-0044421Y0133871D01*
X-0044903Y0133963D01*
X-004538Y0134081D01*
X-004585Y0134223D01*
X-0046312Y0134389D01*
X-0046764Y0134579D01*
X-0047207Y0134792D01*
X-0047638Y0135028D01*
X-0048055Y0135285D01*
X-004846Y0135564D01*
X-0048849Y0135864D01*
X-0049222Y0136183D01*
X-0049554Y0136497D01*
X-0049869Y013683D01*
X-0050188Y0137203D01*
X-0050487Y0137592D01*
X-0050766Y0137996D01*
X-0051024Y0138414D01*
X-005126Y0138845D01*
X-0051473Y0139287D01*
X-0051662Y013974D01*
X-0051829Y0140202D01*
X-0051971Y0140672D01*
X-0052088Y0141148D01*
X-0052181Y0141631D01*
X-0052249Y0142117D01*
X-0052291Y0142606D01*
X-0052308Y0143097D01*
X-0052299Y0143588D01*
X-0052266Y0144077D01*
X-0052206Y0144565D01*
X-0052122Y0145048D01*
X-0052013Y0145527D01*
X-0051879Y0145999D01*
X-0051721Y0146464D01*
X-0051539Y014692D01*
X-0051334Y0147366D01*
X-0051106Y0147801D01*
X-0050856Y0148223D01*
X-0050584Y0148632D01*
X-0050291Y0149026D01*
X-0049979Y0149405D01*
X-0049624Y0149791D01*
X-0049554Y014986D01*
X-0049434Y0149981D01*
X-0049268Y0150141D01*
X-0049098Y0150296D01*
X-0048924Y0150446D01*
X-0048747Y0150593D01*
X-0048566Y0150735D01*
X-0048381Y0150873D01*
X-0048193Y0151005D01*
X-0048002Y0151133D01*
X-0047808Y0151257D01*
X-0047611Y0151375D01*
X-004741Y0151488D01*
X-0047207Y0151596D01*
X-0047002Y01517D01*
X-0046794Y0151798D01*
X-0046583Y0151891D01*
X-004637Y0151978D01*
X-0046155Y015206D01*
X-0045939Y0152137D01*
X-004572Y0152208D01*
X-0045499Y0152274D01*
X-0045277Y0152334D01*
X-0045054Y0152389D01*
X-0044829Y0152438D01*
X-0044603Y0152481D01*
X-0044376Y0152519D01*
X-0044148Y0152551D01*
X-004392Y0152578D01*
X-004369Y0152598D01*
X-0043402Y0152616D01*
X-0038586Y01478D01*
D02*
G37*
G36*
X-0114165Y0128811D02*
X-0113935Y0128801D01*
X-0113706Y0128785D01*
X-0113477Y0128763D01*
X-0113249Y0128735D01*
X-0113021Y0128702D01*
X-0112794Y0128663D01*
X-0112568Y0128618D01*
X-0112344Y0128568D01*
X-0112121Y0128512D01*
X-0111899Y0128451D01*
X-0111679Y0128384D01*
X-011146Y0128311D01*
X-0111244Y0128234D01*
X-011103Y012815D01*
X-0110817Y0128062D01*
X-0110607Y0127968D01*
X-0110399Y0127869D01*
X-0110195Y0127764D01*
X-0109992Y0127655D01*
X-0109792Y0127541D01*
X-0109596Y0127421D01*
X-0109402Y0127297D01*
X-0109212Y0127168D01*
X-0109024Y0127034D01*
X-0108841Y0126896D01*
X-010866Y0126753D01*
X-0108484Y0126605D01*
X-0108267Y0126414D01*
Y0119603D01*
Y0112319D01*
X-0108484Y0112128D01*
X-010866Y011198D01*
X-0108841Y0111837D01*
X-0109024Y0111699D01*
X-0109212Y0111565D01*
X-0109402Y0111436D01*
X-0109596Y0111312D01*
X-0109792Y0111193D01*
X-0109992Y0111078D01*
X-0110195Y0110969D01*
X-0110399Y0110864D01*
X-0110607Y0110765D01*
X-0110817Y0110671D01*
X-011103Y0110583D01*
X-0111244Y01105D01*
X-011146Y0110422D01*
X-0111679Y0110349D01*
X-0111899Y0110282D01*
X-0112121Y0110221D01*
X-0112344Y0110165D01*
X-0112568Y0110115D01*
X-0112794Y011007D01*
X-0113021Y0110031D01*
X-0113249Y0109998D01*
X-0113477Y010997D01*
X-0113706Y0109949D01*
X-0113935Y0109932D01*
X-0114165Y0109922D01*
X-0114395Y0109917D01*
X-0114566Y0109918D01*
X-0114665D01*
X-0115188Y010994D01*
X-0115677Y0109986D01*
X-0116163Y0110058D01*
X-0116644Y0110155D01*
X-011712Y0110277D01*
X-0117588Y0110423D01*
X-0118049Y0110593D01*
X-01185Y0110787D01*
X-011894Y0111004D01*
X-0119369Y0111243D01*
X-0119784Y0111504D01*
X-0120186Y0111787D01*
X-0120572Y011209D01*
X-0120943Y0112412D01*
X-0121296Y0112753D01*
X-0121631Y0113112D01*
X-0121947Y0113488D01*
X-0122243Y0113879D01*
X-0122518Y0114286D01*
X-0122772Y0114706D01*
X-0123004Y0115139D01*
X-0123213Y0115583D01*
X-0123399Y0116037D01*
X-0123561Y0116501D01*
X-0123699Y0116972D01*
X-0123812Y011745D01*
X-0123901Y0117932D01*
X-0123964Y0118419D01*
X-0124002Y0118909D01*
X-0124015Y0119367D01*
X-0124002Y0119824D01*
X-0123964Y0120314D01*
X-0123901Y01208D01*
X-0123812Y0121283D01*
X-0123699Y0121761D01*
X-0123561Y0122232D01*
X-0123399Y0122696D01*
X-0123213Y012315D01*
X-0123004Y0123594D01*
X-0122772Y0124027D01*
X-0122518Y0124447D01*
X-0122243Y0124854D01*
X-0121947Y0125245D01*
X-0121631Y0125621D01*
X-0121296Y012598D01*
X-0120943Y0126321D01*
X-0120572Y0126644D01*
X-0120186Y0126946D01*
X-0119784Y0127229D01*
X-0119369Y012749D01*
X-011894Y0127729D01*
X-01185Y0127946D01*
X-0118049Y012814D01*
X-0117588Y012831D01*
X-011712Y0128456D01*
X-0116644Y0128578D01*
X-0116163Y0128675D01*
X-0115677Y0128747D01*
X-0115188Y0128794D01*
X-0114665Y0128815D01*
X-0114566D01*
X-0114395Y0128816D01*
X-0114165Y0128811D01*
D02*
G37*
G36*
X0013169Y-0004386D02*
Y-0041408D01*
X001327Y-0041915D01*
X0013557Y-0042345D01*
X0034041Y-006283D01*
X0033574Y-0063777D01*
X0033353Y-0063748D01*
X0032373Y-0063876D01*
X003146Y-0064255D01*
X0030676Y-0064856D01*
X0030672Y-0064861D01*
X0029672Y-0064522D01*
Y-0063019D01*
X0029571Y-0062512D01*
X0029284Y-0062082D01*
X0011Y-0043798D01*
Y-0004682D01*
X0011129Y-0004648D01*
X0011989Y-0004152D01*
X0012169Y-0003972D01*
X0013169Y-0004386D01*
D02*
G37*
G36*
X0017361Y-0004152D02*
X001822Y-0004648D01*
X0019179Y-0004905D01*
X0020171D01*
X0021129Y-0004648D01*
X0021778Y-0004273D01*
X0022458Y-0004523D01*
X0022778Y-0004777D01*
Y-0006791D01*
X0018466Y-0011103D01*
X0018466Y-0011103D01*
X0018035Y-0011534D01*
X0017748Y-0011964D01*
X0017647Y-0012471D01*
Y-0038639D01*
X0017748Y-0039147D01*
X0018035Y-0039577D01*
X0018466Y-0040007D01*
X0039975Y-0061516D01*
Y-0063634D01*
X003972Y-0063814D01*
X0038975Y-0064014D01*
X001582Y-0040859D01*
Y-000397D01*
X0016159Y-000376D01*
X001682Y-000361D01*
X0017361Y-0004152D01*
D02*
G37*
G36*
X-0017797Y-0017988D02*
X-0017875Y-001838D01*
Y-0035752D01*
X-0045327Y-0063205D01*
X-0046327Y-0062791D01*
Y-0011089D01*
X-0045772Y-0010331D01*
X-0045578Y-0010191D01*
X-0025593D01*
X-0017797Y-0017988D01*
D02*
G37*
%LPC*%
G36*
X-0031764Y-0018264D02*
X-0033279D01*
X-0034764Y-001856D01*
X-0036164Y-0019139D01*
X-0037423Y-0019981D01*
X-0038494Y-0021052D01*
X-0039336Y-0022311D01*
X-0039915Y-0023711D01*
X-0040211Y-0025196D01*
Y-0026711D01*
X-0039915Y-0028197D01*
X-0039336Y-0029596D01*
X-0038494Y-0030856D01*
X-0037423Y-0031927D01*
X-0036164Y-0032768D01*
X-0034764Y-0033348D01*
X-0033279Y-0033644D01*
X-0031764D01*
X-0030278Y-0033348D01*
X-0028879Y-0032768D01*
X-0027619Y-0031927D01*
X-0026548Y-0030856D01*
X-0025707Y-0029596D01*
X-0025127Y-0028197D01*
X-0024832Y-0026711D01*
Y-0025196D01*
X-0025127Y-0023711D01*
X-0025707Y-0022311D01*
X-0026548Y-0021052D01*
X-0027619Y-0019981D01*
X-0028879Y-0019139D01*
X-0030278Y-001856D01*
X-0031764Y-0018264D01*
D02*
G37*
G36*
X0093557Y0144741D02*
X0092841D01*
X009218Y0144467D01*
X0091673Y0143961D01*
X0091399Y0143299D01*
Y0142583D01*
X0091619Y0142053D01*
Y0128063D01*
X0091321Y0127897D01*
X0091305Y0127883D01*
X0091285Y0127875D01*
X0090869Y0127614D01*
X0090854Y0127599D01*
X0090834Y0127591D01*
X0090433Y0127308D01*
X0090418Y0127293D01*
X0090399Y0127283D01*
X0090012Y012698D01*
X0089998Y0126964D01*
X008998Y0126953D01*
X0089609Y0126631D01*
X0089596Y0126614D01*
X0089578Y0126602D01*
X0089225Y0126261D01*
X0089213Y0126243D01*
X0089196Y0126231D01*
X0088861Y0125872D01*
X0088849Y0125854D01*
X0088833Y012584D01*
X0088517Y0125465D01*
X0088506Y0125446D01*
X008849Y0125432D01*
X0088194Y012504D01*
X0088185Y0125021D01*
X008817Y0125006D01*
X0087894Y0124599D01*
X0087886Y0124579D01*
X0087872Y0124564D01*
X0087618Y0124143D01*
X008761Y0124123D01*
X0087597Y0124107D01*
X0087365Y0123674D01*
X0087359Y0123653D01*
X0087346Y0123636D01*
X0087137Y0123192D01*
X0087132Y0123171D01*
X008712Y0123153D01*
X0086934Y0122699D01*
X008693Y0122678D01*
X0086919Y012266D01*
X0086757Y0122196D01*
X0086754Y0122175D01*
X0086744Y0122156D01*
X0086606Y0121685D01*
X0086604Y0121663D01*
X0086595Y0121644D01*
X0086482Y0121166D01*
X0086481Y0121145D01*
X0086473Y0121125D01*
X0086385Y0120642D01*
X0086385Y0120621D01*
X0086378Y01206D01*
X0086315Y0120113D01*
X0086316Y0120092D01*
X008631Y0120071D01*
X0086272Y0119582D01*
X0086275Y0119561D01*
X008627Y0119541D01*
X0086257Y0119084D01*
X0086261Y0119061D01*
X0086257Y0119038D01*
X008627Y0118581D01*
X0086275Y0118561D01*
X0086272Y011854D01*
X008631Y0118051D01*
X0086316Y011803D01*
X0086315Y0118009D01*
X0086378Y0117522D01*
X0086385Y0117501D01*
X0086385Y011748D01*
X0086473Y0116997D01*
X0086481Y0116977D01*
X0086482Y0116956D01*
X0086595Y0116478D01*
X0086604Y0116459D01*
X0086606Y0116437D01*
X0086744Y0115966D01*
X0086754Y0115947D01*
X0086757Y0115926D01*
X0086919Y0115463D01*
X008693Y0115444D01*
X0086934Y0115423D01*
X008712Y0114969D01*
X0087132Y0114951D01*
X0087137Y011493D01*
X0087346Y0114486D01*
X0087359Y0114469D01*
X0087365Y0114448D01*
X0087597Y0114015D01*
X008761Y0113999D01*
X0087618Y0113979D01*
X0087872Y0113558D01*
X0087886Y0113543D01*
X0087894Y0113523D01*
X008817Y0113116D01*
X0088185Y0113101D01*
X0088194Y0113082D01*
X008849Y011269D01*
X0088506Y0112676D01*
X0088517Y0112657D01*
X0088833Y0112282D01*
X0088849Y0112268D01*
X0088861Y011225D01*
X0089196Y0111891D01*
X0089213Y0111879D01*
X0089225Y0111861D01*
X0089578Y011152D01*
X0089596Y0111508D01*
X0089609Y0111491D01*
X008998Y0111169D01*
X0089998Y0111158D01*
X0090012Y0111142D01*
X0090399Y0110839D01*
X0090418Y0110829D01*
X0090433Y0110814D01*
X0090834Y0110531D01*
X0090854Y0110523D01*
X0090869Y0110508D01*
X0091285Y0110247D01*
X0091305Y0110239D01*
X0091321Y0110225D01*
X009175Y0109986D01*
X009177Y0109979D01*
X0091787Y0109966D01*
X0092228Y0109749D01*
X0092248Y0109744D01*
X0092266Y0109732D01*
X0092717Y0109538D01*
X0092738Y0109534D01*
X0092756Y0109522D01*
X0093217Y0109352D01*
X0093238Y0109349D01*
X0093257Y0109338D01*
X0093726Y0109192D01*
X0093747Y010919D01*
X0093766Y0109181D01*
X0094242Y0109059D01*
X0094263Y0109058D01*
X0094283Y010905D01*
X0094764Y0108953D01*
X0094786Y0108953D01*
X0094806Y0108946D01*
X0095292Y0108874D01*
X0095313Y0108875D01*
X0095333Y0108869D01*
X0095822Y0108822D01*
X0095844Y0108824D01*
X0095866Y0108819D01*
X0096389Y0108797D01*
X0096406Y01088D01*
X0096423Y0108797D01*
X009652D01*
X0096691Y0108796D01*
X00967Y0108798D01*
X0096709Y0108796D01*
X0096939Y0108801D01*
X0096949Y0108803D01*
X0096959Y0108802D01*
X0097189Y0108812D01*
X0097199Y0108815D01*
X009721Y0108813D01*
X0097439Y0108829D01*
X0097449Y0108832D01*
X0097459Y0108831D01*
X0097688Y0108853D01*
X0097698Y0108856D01*
X0097709Y0108855D01*
X0097937Y0108883D01*
X0097947Y0108886D01*
X0097957Y0108885D01*
X0098185Y0108919D01*
X0098195Y0108922D01*
X0098205Y0108922D01*
X0098432Y0108961D01*
X0098441Y0108965D01*
X0098452Y0108965D01*
X0098677Y0109009D01*
X0098687Y0109013D01*
X0098698Y0109013D01*
X0098922Y0109064D01*
X0098932Y0109068D01*
X0098942Y0109068D01*
X0099165Y0109124D01*
X0099174Y0109129D01*
X0099185Y0109129D01*
X0099406Y0109191D01*
X0099416Y0109195D01*
X0099426Y0109196D01*
X0099646Y0109263D01*
X0099655Y0109268D01*
X0099666Y010927D01*
X0099884Y0109342D01*
X0099893Y0109347D01*
X0099903Y0109349D01*
X010012Y0109427D01*
X0100129Y0109432D01*
X0100139Y0109434D01*
X0100353Y0109517D01*
X0100362Y0109522D01*
X0100372Y0109525D01*
X0100585Y0109613D01*
X0100593Y0109619D01*
X0100603Y0109621D01*
X0100813Y0109715D01*
X0100822Y0109721D01*
X0100832Y0109724D01*
X010104Y0109823D01*
X0101048Y0109829D01*
X0101058Y0109832D01*
X0101263Y0109936D01*
X0101271Y0109942D01*
X0101281Y0109946D01*
X0101484Y0110055D01*
X0101491Y0110062D01*
X0101501Y0110065D01*
X0101701Y0110179D01*
X0101709Y0110186D01*
X0101718Y011019D01*
X0101915Y0110309D01*
X0101923Y0110316D01*
X0101933Y011032D01*
X0102126Y0110444D01*
X0102134Y0110451D01*
X0102143Y0110455D01*
X0102334Y0110584D01*
X0102341Y0110592D01*
X010235Y0110596D01*
X0102538Y011073D01*
X0102545Y0110737D01*
X0102554Y0110742D01*
X0102738Y011088D01*
X0102745Y0110888D01*
X0102754Y0110893D01*
X0102934Y0111036D01*
X0102941Y0111044D01*
X010295Y0111048D01*
X0103127Y0111196D01*
X0103134Y0111205D01*
X0103144Y0111211D01*
X0103361Y0111403D01*
X0103376Y0111423D01*
X0103398Y0111437D01*
X0103472Y0111549D01*
X0103554Y0111656D01*
X010356Y011168D01*
X0103575Y0111702D01*
X0103601Y0111833D01*
X0103635Y0111963D01*
X0103632Y0111989D01*
X0103637Y0112014D01*
Y0116676D01*
X0104637Y0116944D01*
X0105093Y0116152D01*
X0105975Y011527D01*
X0107055Y0114647D01*
X010826Y0114324D01*
X0109508D01*
X0110712Y0114647D01*
X0111793Y011527D01*
X0112674Y0116152D01*
X0113298Y0117233D01*
X0113621Y0118437D01*
Y0119685D01*
X0113298Y0120889D01*
X0112674Y012197D01*
X0111793Y0122852D01*
X0110712Y0123475D01*
X0109508Y0123798D01*
X010826D01*
X0107055Y0123475D01*
X0105975Y0122852D01*
X0105093Y012197D01*
X0104637Y0121178D01*
X0103637Y0121446D01*
Y0126108D01*
X0103632Y0126133D01*
X0103635Y0126158D01*
X0103601Y0126288D01*
X0103575Y012642D01*
X010356Y0126442D01*
X0103554Y0126466D01*
X0103472Y0126573D01*
X0103398Y0126685D01*
X0103376Y0126699D01*
X0103361Y0126719D01*
X0103144Y0126911D01*
X0103134Y0126917D01*
X0103127Y0126926D01*
X010295Y0127074D01*
X0102941Y0127078D01*
X0102934Y0127086D01*
X0102754Y0127229D01*
X0102745Y0127234D01*
X0102738Y0127242D01*
X0102554Y012738D01*
X0102545Y0127385D01*
X0102538Y0127392D01*
X010235Y0127526D01*
X0102341Y012753D01*
X0102334Y0127538D01*
X0102143Y0127667D01*
X0102134Y0127671D01*
X0102126Y0127678D01*
X0101933Y0127802D01*
X0101923Y0127806D01*
X0101915Y0127813D01*
X0101718Y0127932D01*
X0101709Y0127936D01*
X0101701Y0127943D01*
X0101501Y0128057D01*
X0101491Y012806D01*
X0101484Y0128067D01*
X0101281Y0128176D01*
X0101271Y012818D01*
X0101263Y0128186D01*
X0101058Y012829D01*
X0101048Y0128293D01*
X010104Y0128299D01*
X0100832Y0128398D01*
X0100822Y0128401D01*
X0100813Y0128407D01*
X0100603Y0128501D01*
X0100593Y0128503D01*
X0100585Y0128509D01*
X0100372Y0128597D01*
X0100362Y01286D01*
X0100353Y0128605D01*
X0100139Y0128688D01*
X0100129Y012869D01*
X010012Y0128695D01*
X0099903Y0128773D01*
X0099893Y0128775D01*
X0099884Y012878D01*
X0099666Y0128852D01*
X0099655Y0128854D01*
X0099646Y0128859D01*
X0099426Y0128926D01*
X0099416Y0128927D01*
X0099406Y0128931D01*
X0099185Y0128993D01*
X0099174Y0128993D01*
X0099165Y0128998D01*
X0098942Y0129054D01*
X0098931Y0129054D01*
X0098922Y0129059D01*
X0098698Y0129109D01*
X0098687Y0129109D01*
X0098677Y0129113D01*
X0098452Y0129157D01*
X0098441Y0129157D01*
X0098432Y0129161D01*
X0098205Y01292D01*
X0098195Y01292D01*
X0098185Y0129203D01*
X0097957Y0129237D01*
X0097947Y0129236D01*
X0097937Y0129239D01*
X0097709Y0129267D01*
X0097698Y0129266D01*
X0097688Y0129269D01*
X0097459Y0129291D01*
X0097449Y012929D01*
X0097439Y0129293D01*
X009721Y0129309D01*
X0097199Y0129307D01*
X0097189Y012931D01*
X0096959Y012932D01*
X0096949Y0129319D01*
X0096939Y0129321D01*
X0096709Y0129326D01*
X00967Y0129324D01*
X0096691Y0129326D01*
X009652Y0129325D01*
X0096423D01*
X0096406Y0129322D01*
X0096389Y0129325D01*
X0095866Y0129303D01*
X0095844Y0129298D01*
X0095822Y01293D01*
X009578Y0129296D01*
X0094939Y0129892D01*
X009478Y0130183D01*
Y0142053D01*
X0094999Y0142583D01*
Y0143299D01*
X0094725Y0143961D01*
X0094219Y0144467D01*
X0093557Y0144741D01*
D02*
G37*
G36*
X0124558Y0108987D02*
X0123566D01*
X0122608Y0108731D01*
X0121748Y0108234D01*
X0121047Y0107533D01*
X0120551Y0106674D01*
X0120516Y0106544D01*
X0101722D01*
X0101214Y0106444D01*
X0100784Y0106156D01*
X0099647Y0105019D01*
X0099208Y0105137D01*
X0098471D01*
X0097759Y0104946D01*
X009712Y0104577D01*
X0096599Y0104056D01*
X009623Y0103417D01*
X0096039Y0102705D01*
Y0101968D01*
X009623Y0101256D01*
X0096599Y0100617D01*
X009712Y0100096D01*
X0097759Y0099727D01*
X0098471Y0099537D01*
X0099208D01*
X009992Y0099727D01*
X0100559Y0100096D01*
X010108Y0100617D01*
X0101449Y0101256D01*
X0101639Y0101968D01*
Y0102705D01*
X0101522Y0103144D01*
X0102271Y0103893D01*
X0120516D01*
X0120551Y0103764D01*
X0121047Y0102905D01*
X0121748Y0102203D01*
X0122608Y0101707D01*
X0123566Y010145D01*
X0124558D01*
X0125517Y0101707D01*
X0126376Y0102203D01*
X0127078Y0102905D01*
X0127574Y0103764D01*
X0127831Y0104723D01*
Y0105715D01*
X0127574Y0106674D01*
X0127078Y0107533D01*
X0126376Y0108234D01*
X0125517Y0108731D01*
X0124558Y0108987D01*
D02*
G37*
G36*
X0093443Y0062632D02*
X0085906D01*
Y0055095D01*
X0093443D01*
Y0062632D01*
D02*
G37*
%LPD*%
G36*
X0096922Y0128506D02*
X0097152Y0128495D01*
X0097382Y0128479D01*
X0097611Y0128457D01*
X0097839Y012843D01*
X0098067Y0128396D01*
X0098294Y0128357D01*
X0098519Y0128313D01*
X0098744Y0128262D01*
X0098967Y0128207D01*
X0099189Y0128145D01*
X0099409Y0128078D01*
X0099627Y0128006D01*
X0099844Y0127928D01*
X0100058Y0127845D01*
X0100271Y0127756D01*
X0100481Y0127662D01*
X0100688Y0127563D01*
X0100893Y0127459D01*
X0101096Y0127349D01*
X0101295Y0127235D01*
X0101492Y0127116D01*
X0101686Y0126991D01*
X0101876Y0126862D01*
X0102063Y0126729D01*
X0102247Y012659D01*
X0102427Y0126447D01*
X0102604Y01263D01*
X0102821Y0126108D01*
Y0119297D01*
Y0112014D01*
X0102604Y0111822D01*
X0102427Y0111675D01*
X0102247Y0111532D01*
X0102063Y0111393D01*
X0101876Y011126D01*
X0101686Y0111131D01*
X0101492Y0111006D01*
X0101295Y0110887D01*
X0101096Y0110773D01*
X0100893Y0110663D01*
X0100688Y0110559D01*
X0100481Y011046D01*
X0100271Y0110366D01*
X0100058Y0110277D01*
X0099844Y0110194D01*
X0099627Y0110116D01*
X0099409Y0110044D01*
X0099189Y0109977D01*
X0098967Y0109915D01*
X0098744Y010986D01*
X0098519Y0109809D01*
X0098294Y0109765D01*
X0098067Y0109726D01*
X0097839Y0109692D01*
X0097611Y0109665D01*
X0097382Y0109643D01*
X0097152Y0109627D01*
X0096922Y0109616D01*
X0096692Y0109612D01*
X0096522Y0109612D01*
X0096423D01*
X00959Y0109634D01*
X0095411Y0109681D01*
X0094925Y0109753D01*
X0094444Y0109849D01*
X0093968Y0109971D01*
X00935Y0110117D01*
X0093039Y0110287D01*
X0092588Y0110481D01*
X0092148Y0110698D01*
X0091719Y0110938D01*
X0091303Y0111199D01*
X0090902Y0111481D01*
X0090515Y0111784D01*
X0090145Y0112106D01*
X0089792Y0112448D01*
X0089457Y0112806D01*
X0089141Y0113182D01*
X0088845Y0113574D01*
X008857Y011398D01*
X0088316Y0114401D01*
X0088084Y0114833D01*
X0087875Y0115278D01*
X0087689Y0115732D01*
X0087527Y0116195D01*
X0087389Y0116666D01*
X0087275Y0117144D01*
X0087187Y0117627D01*
X0087124Y0118114D01*
X0087085Y0118603D01*
X0087073Y0119061D01*
X0087085Y0119519D01*
X0087124Y0120008D01*
X0087187Y0120495D01*
X0087275Y0120978D01*
X0087389Y0121456D01*
X0087527Y0121927D01*
X0087689Y012239D01*
X0087875Y0122845D01*
X0088084Y0123289D01*
X0088316Y0123722D01*
X008857Y0124142D01*
X0088845Y0124548D01*
X0089141Y012494D01*
X0089457Y0125316D01*
X0089792Y0125674D01*
X0090145Y0126016D01*
X0090515Y0126338D01*
X0090902Y0126641D01*
X0091303Y0126923D01*
X0091719Y0127185D01*
X0092148Y0127424D01*
X0092588Y0127641D01*
X0093039Y0127835D01*
X00935Y0128005D01*
X0093968Y0128151D01*
X0094444Y0128273D01*
X0094925Y012837D01*
X0095411Y0128441D01*
X00959Y0128488D01*
X0096423Y012851D01*
X0096522D01*
X0096692Y012851D01*
X0096922Y0128506D01*
D02*
G37*
D14*
X-0066892Y-0144695D02*
X-0015605Y-0093408D01*
X-0014479D01*
X0042548Y0030541D02*
X0064434Y0008655D01*
X-0046309Y0030541D02*
X0042548D01*
X0009719Y-0044392D02*
X0028347Y-0063019D01*
X0009675Y-0044392D02*
Y-0001136D01*
Y-0044392D02*
X0009719D01*
X-0104505Y0014683D02*
Y0040601D01*
X-010959Y-0146627D02*
X-0066011D01*
X-0164138Y-0069684D02*
Y-0015375D01*
X-0126263Y-0007075D02*
X-0104505Y0014683D01*
X-0155837Y-0007075D02*
X-0126263D01*
X-0164138Y-0015375D02*
X-0155837Y-0007075D01*
X-0164138Y-0069684D02*
X-0137797Y-0096025D01*
Y-011842D02*
Y-0096025D01*
Y-011842D02*
X-010959Y-0146627D01*
X-003168Y0067844D02*
X-0019306D01*
X-0055783Y006369D02*
X-0039115D01*
X-0066172Y0074079D02*
X-0055783Y006369D01*
X-0100325Y-0001136D02*
X-0056055Y0043134D01*
X0093241D01*
X0014494Y-0041408D02*
X0038228Y-0065142D01*
Y-0081663D02*
Y-0065142D01*
Y-0081663D02*
X0053815Y-0097251D01*
X-0025044Y-0008866D02*
X-0016454Y-0017456D01*
X-0052596Y-0008866D02*
X-0025044D01*
X-0060325Y-0001136D02*
X-0052596Y-0008866D01*
X0019675Y0058864D02*
X0058388Y0097577D01*
X0074852Y0101172D02*
Y0112344D01*
X0071257Y0097577D02*
X0074852Y0101172D01*
X0058388Y0097577D02*
X0071257D01*
X0070205Y0116006D02*
X0070698D01*
X007119D01*
X-0044484Y-0006978D02*
X-0020418D01*
X-0049329Y-0071627D02*
X-0013495Y-0035792D01*
X-0020418Y-0006978D02*
X-0013495Y-00139D01*
Y-0035792D02*
Y-00139D01*
X-0090325Y-0001136D02*
X-0052423Y0036766D01*
X0008242D01*
X-0108246Y-0144695D02*
X-0066892D01*
X0019403Y-003907D02*
X00413Y-0060967D01*
X-0107171Y-0142319D02*
X-008715D01*
X-0000325Y-0001136D02*
X0006177Y0005366D01*
X0013004D01*
X0014494Y0003876D01*
Y-0041408D02*
Y0003876D01*
X-0104505Y0040601D02*
X-0091026Y005408D01*
X0054891D01*
X0059675Y0058864D01*
X-0019306Y0067844D02*
X-0010325Y0058864D01*
X-003083Y0059369D02*
X-0030325Y0058864D01*
X-0034794Y0059369D02*
X-003083D01*
X-0039115Y006369D02*
X-0034794Y0059369D01*
X-0050325Y-0001136D02*
X-0044484Y-0006978D01*
X-0132731Y-0116759D02*
X-0107171Y-0142319D01*
X-0132731Y-0116759D02*
Y-0094443D01*
X-0142782Y-0084392D02*
X-0132731Y-0094443D01*
X-0142782Y-0084392D02*
Y-0082177D01*
X-0142638Y-0082033D01*
Y-0069264D01*
X-014571Y-0066192D02*
X-0142638Y-0069264D01*
X-0157469Y-0066192D02*
X-014571D01*
X-0158055Y-0065606D02*
X-0157469Y-0066192D01*
X-0158055Y-0065606D02*
Y-0018316D01*
X-0153386Y-0013647D01*
X-012189D01*
X-0096878Y0011366D01*
Y0037152D01*
X-0087455Y0046574D01*
X0067385D01*
X0079675Y0058864D01*
X-0135438Y-0117503D02*
X-0108246Y-0144695D01*
X-0135438Y-0117503D02*
Y-0095423D01*
X-0161158Y-0069703D02*
X-0135438Y-0095423D01*
X-0161158Y-0069703D02*
Y-0017302D01*
X-0154394Y-0010538D01*
X-012444D01*
X-0101161Y001274D01*
Y0037989D01*
X-008849Y0050659D01*
X0061471D01*
X0069675Y0058864D01*
X-0010325Y-0001136D02*
X-0001797Y0007393D01*
X0023518D01*
X0024103Y0006807D01*
Y-0006981D02*
Y0006807D01*
Y-000734D02*
Y-0006981D01*
X0023978Y-0007466D02*
X0024103Y-000734D01*
X0019403Y-0012041D02*
X0023978Y-0007466D01*
X0018972Y-0012471D02*
X0019403Y-0012041D01*
X0018972Y-0038639D02*
Y-0012471D01*
Y-0038639D02*
X0019403Y-003907D01*
X00413Y-007883D02*
X0053815Y-0091345D01*
X00413Y-007883D02*
Y-0060967D01*
X-008715Y-0142319D02*
X-0087116Y-0142353D01*
X-0067095D01*
X-0041753Y-0117011D01*
Y-0084943D01*
X-0041168Y-0084358D01*
X-0038575D01*
X-0038556Y-0084376D01*
X0001839D01*
X0005521Y-0088059D01*
Y-0093408D02*
Y-0088059D01*
X-0016454Y-0018284D02*
Y-0017456D01*
X-0016549Y-001838D02*
X-0016454Y-0018284D01*
X-0016549Y-0036301D02*
Y-001838D01*
X-0054114Y-0073866D02*
X-0016549Y-0036301D01*
X0024885Y0111594D02*
X0042411Y0094068D01*
X005474Y0079831D02*
Y0082019D01*
X-0049329Y-0088896D02*
Y-0071627D01*
X-0061528Y-0101094D02*
X-0049329Y-0088896D01*
X-0069208Y-0101094D02*
X-0061528D01*
X-0069772Y-0100531D02*
X-0069208Y-0101094D01*
X007119Y0116006D02*
X0074852Y0112344D01*
X-0054114Y-0086281D02*
Y-0073866D01*
X-0062458Y-0094625D02*
X-0054114Y-0086281D01*
X-0069772Y-0094625D02*
X-0062458D01*
X01218Y0152827D02*
Y0152878D01*
Y0152827D02*
X0139883Y0134744D01*
Y0099906D02*
Y0134744D01*
X0135653Y0095676D02*
X0139883Y0099906D01*
X0112099Y0095676D02*
X0135653D01*
X0099759Y0083335D02*
X0112099Y0095676D01*
X0099759Y0049652D02*
Y0083335D01*
X0093241Y0043134D02*
X0099759Y0049652D01*
X-0066172Y0074079D02*
Y0074571D01*
X-0066011Y-0146627D02*
X-0024998Y-0105614D01*
X-0019653D01*
X-0009785Y-0095746D01*
Y-0093994D01*
X-00092Y-0093408D01*
X-0004479D01*
X0064857Y0089313D02*
X0067149Y0091605D01*
X0062034Y0089313D02*
X0064857D01*
X0028347Y-0080788D02*
Y-0063019D01*
Y-0080788D02*
X0035521Y-0087962D01*
Y-0093408D02*
Y-0087962D01*
X005474Y0082019D02*
X0062034Y0089313D01*
X0064434Y-0004086D02*
Y0008655D01*
Y-0004086D02*
X0107654Y-0047306D01*
X0015521Y-0093408D02*
Y-0093015D01*
X-0025361Y-009429D02*
X-0024479Y-0093408D01*
X0068413Y-0103156D02*
X0069964Y-0101605D01*
X0042411Y0094068D02*
X0051033D01*
X005937Y0102406D01*
X0024885Y0111594D02*
Y0136161D01*
X-0116553Y0093311D02*
X-0079397D01*
X-0078645Y0094063D01*
X-0126803Y0103561D02*
X-0116553Y0093311D01*
X-0102204Y0119367D02*
X-0092141D01*
X-0078806Y0106031D02*
X-0069466D01*
X-0092141Y0119367D02*
X-0078806Y0106031D01*
X-0036429Y0129688D02*
X-0027563Y0138554D01*
X-000837Y0164207D02*
X-0005718Y0161555D01*
X-0009984Y0164207D02*
X-000837D01*
X-0005718Y0158839D02*
Y0161555D01*
X-0022432Y0142124D02*
X-0005718Y0158839D01*
X-0022432Y0135867D02*
Y0142124D01*
X-0049962Y0108338D02*
X-0022432Y0135867D01*
X-0052351Y0108338D02*
X-0049962D01*
X-005873Y0101959D02*
X-0052351Y0108338D01*
X-0017365Y0151623D02*
Y0156826D01*
X-0017055Y0157136D01*
X-0027563Y0141425D02*
X-0017365Y0151623D01*
X-0027563Y0138554D02*
Y0141425D01*
X010542Y-0089744D02*
X0107654Y-008751D01*
Y-0047306D01*
X0037187Y0166889D02*
X0043676Y0160399D01*
X0011861Y0166889D02*
X0037187D01*
X0043676Y0160399D02*
X011419D01*
X-0064875Y0101939D02*
Y0107862D01*
Y0101939D02*
X-0059347Y0096411D01*
X-0064875Y0107862D02*
X-0056686Y011605D01*
X-005373Y0096996D02*
Y0101959D01*
X-0059347Y0096411D02*
X-0054316D01*
X-005373Y0096996D01*
X0087686Y-0119826D02*
Y-0116064D01*
X0100681Y-0103069D01*
X0101173D01*
X0103621Y-0091544D02*
X0104592Y-0090573D01*
X0103621Y-0091741D02*
Y-0091544D01*
X0101365Y-0093997D02*
X0103621Y-0091741D01*
X0104592Y-0090573D02*
X0104659D01*
X010542Y-0089811D01*
Y-0089744D01*
X0101168Y-0093997D02*
X0101365D01*
X0101168Y-0103063D02*
Y-0093997D01*
Y-0103063D02*
X0101173Y-0103069D01*
X0010497Y0166232D02*
X0010512Y0166217D01*
X0011189D01*
X011419Y0160399D02*
X0114538Y0160052D01*
X0011189Y0166217D02*
X0011861Y0166889D01*
X0017568Y0158586D02*
X0021148Y0155007D01*
X0017568Y0158586D02*
Y0159161D01*
X0021148Y015425D02*
Y0155007D01*
Y015425D02*
X0021908Y015349D01*
Y0139138D02*
Y015349D01*
Y0139138D02*
X0024885Y0136161D01*
X005937Y0102406D02*
X0063782D01*
X-0049638Y0067777D02*
X-0049571Y0067844D01*
X-0039554D01*
X-0056686Y011605D02*
Y0116542D01*
X-0136803Y0103561D02*
Y0118642D01*
X-0115366Y0140079D01*
Y0153823D01*
X-0118749Y0157206D02*
X-0115366Y0153823D01*
X-0118749Y0157206D02*
Y015984D01*
X-0118401Y0160188D01*
X0050046Y0105719D02*
X0060365Y0116037D01*
X0050046Y0102844D02*
Y0105719D01*
X0049447Y0102244D02*
X0050046Y0102844D01*
X0060365Y0116037D02*
X0060857D01*
X0067149Y0091605D02*
Y0091729D01*
X0068782Y0093362D01*
Y009421D01*
X0043137Y0143075D02*
X0070205Y0116006D01*
X0042239Y0143075D02*
X0043137D01*
X0048246Y0106044D02*
Y0123777D01*
X0051013Y0126543D01*
X0101722Y0105219D02*
X0124062D01*
X0098839Y0102337D02*
X0101722Y0105219D01*
X0044447Y0102244D02*
X0048246Y0106044D01*
X-0125715Y0153293D02*
X-0124496D01*
X-0118666Y0147463D01*
X-0118666D01*
D18*
X-0059055Y009154D02*
D03*
Y008406D02*
D03*
X0101168Y-0093997D02*
D03*
Y-0086516D02*
D03*
X-0048968Y0084325D02*
D03*
Y0076845D02*
D03*
X0063994Y0076246D02*
D03*
Y0083726D02*
D03*
X0073782Y0083724D02*
D03*
Y0076243D02*
D03*
D19*
X-003168Y0067844D02*
D03*
X-0039554D02*
D03*
X-0048812Y0116542D02*
D03*
X-0056686D02*
D03*
X-0058298Y0074571D02*
D03*
X-0066172D02*
D03*
X0069615Y-011138D02*
D03*
X0077489D02*
D03*
D21*
X0070698Y0108132D02*
D03*
Y0116006D02*
D03*
X0060857Y0108163D02*
D03*
Y0116037D02*
D03*
X0101173Y-0110943D02*
D03*
Y-0103069D02*
D03*
D23*
X0077412Y-0091563D02*
D03*
X0069932D02*
D03*
X0077445Y-0101585D02*
D03*
X0069964D02*
D03*
D48*
X0064258Y-0132998D02*
D03*
D49*
X0054416D02*
D03*
D52*
X0078466Y007751D02*
X0081452Y0080497D01*
Y0111658D01*
X0075031Y007751D02*
X0078466D01*
X0073746Y0076225D02*
X0075031Y007751D01*
X0078044Y0115066D02*
X0081452Y0111658D01*
X-0100325Y0058864D02*
X-0075129Y008406D01*
X-0059055D01*
X0064086Y0076236D02*
X0073735D01*
X-0058858Y008406D02*
X-0057102Y0082304D01*
Y0082108D02*
Y0082304D01*
X-0056085Y0085816D02*
X-0046552Y0095349D01*
X-0057299Y0085816D02*
X-0056085D01*
X0053815Y-0103156D02*
X0068413D01*
X0073746Y0076225D02*
X0073961D01*
X-0082877Y-008872D02*
X-0069772D01*
X0026437Y-0147135D02*
X003414Y-0139432D01*
X0026437Y-0152886D02*
Y-0147135D01*
X0025521Y-0153802D02*
X0026437Y-0152886D01*
X003414Y-0139432D02*
X0069634D01*
X0079042Y-0130024D01*
X-0046552Y0095349D02*
X-0040144D01*
X-0029617Y0105876D01*
Y0116216D01*
X-0057102Y0082108D02*
X-0054096Y0079101D01*
X-0051421D02*
X-0049165Y0076845D01*
X-0048968D01*
X-0059055Y008406D02*
X-0058858D01*
X-0054096Y0079101D02*
X-0051421D01*
X-0059055Y008406D02*
X-0057299Y0085816D01*
X-0139899Y0153212D02*
Y0157695D01*
X-0132187Y0165408D01*
X-0124317D01*
X-0105364Y-0111207D02*
X-0082877Y-008872D01*
X-0106151Y-0111207D02*
X-0105364D01*
X0073735Y0076236D02*
X0073746Y0076225D01*
X0079121Y0148719D02*
X0109787D01*
X0121289Y016022D01*
Y016251D01*
X0120106Y0163693D02*
Y0165619D01*
Y0163693D02*
X0121289Y016251D01*
X0078535Y0148133D02*
X0079121Y0148719D01*
X0078044Y0115066D02*
X0078535Y0115557D01*
Y0148133D01*
X-0123621Y0166103D02*
X-007989D01*
X-0123969Y0165755D02*
X-0123621Y0166103D01*
X-007989D02*
X-0055879Y0190115D01*
X0056044D01*
X0080191Y0165967D01*
X0119758D01*
X0120106Y0165619D01*
X-0124317Y0165408D02*
X-0123969Y0165755D01*
X0079042Y-0130024D02*
X0080067D01*
X0073387D02*
X0078758D01*
X0069615Y-0111872D02*
Y-011138D01*
Y-0111872D02*
X0073387Y-0115643D01*
Y-0130024D02*
Y-0115643D01*
X0069964Y-0101605D02*
Y-0101585D01*
Y-0111031D02*
Y-0101605D01*
X0069615Y-011138D02*
X0069964Y-0111031D01*
X0069932Y-0101552D02*
X0069964Y-0101585D01*
X0069932Y-0101552D02*
Y-0091563D01*
X0080067Y-0130024D02*
X0106012D01*
D53*
X0112866Y-0132445D02*
Y-0117126D01*
X0106684Y-0110943D02*
X0112866Y-0117126D01*
X0101173Y-0110943D02*
X0106684D01*
X0106272Y-0139039D02*
X0112866Y-0132445D01*
X0106012Y-0139039D02*
X0106272D01*
X-0041203Y0144849D02*
Y0157523D01*
X-0086721Y0144849D02*
X-0041203D01*
X-0112204Y0119367D02*
X-0086721Y0144849D01*
X-002108Y0177646D02*
X0010408D01*
X-0041203Y0157523D02*
X-002108Y0177646D01*
X0093199Y0124746D02*
Y0142941D01*
Y0124746D02*
X0098884Y0119061D01*
D54*
X0053815Y-0109062D02*
D03*
Y-0103156D02*
D03*
Y-0097251D02*
D03*
Y-0091345D02*
D03*
Y-008544D02*
D03*
Y-0079534D02*
D03*
X-0069772Y-0112342D02*
D03*
Y-0106436D02*
D03*
Y-0100531D02*
D03*
Y-0094625D02*
D03*
Y-008872D02*
D03*
Y-0082814D02*
D03*
D55*
X0089675Y0058864D02*
D03*
D56*
X0079675D02*
D03*
X0069675D02*
D03*
X0059675D02*
D03*
X0049675D02*
D03*
X0039675D02*
D03*
X0029675D02*
D03*
X0019675D02*
D03*
X0009675D02*
D03*
X-0000325D02*
D03*
X-0010325D02*
D03*
X-0020325D02*
D03*
X-0030325D02*
D03*
X-0040325D02*
D03*
X-0050325D02*
D03*
X-0060325D02*
D03*
X-0070325D02*
D03*
X-0080325D02*
D03*
X-0090325D02*
D03*
X-0100325D02*
D03*
Y-0001136D02*
D03*
X-0090325D02*
D03*
X-0080325D02*
D03*
X-0070325D02*
D03*
X-0060325D02*
D03*
X-0050325D02*
D03*
X-0040325D02*
D03*
X-0030325D02*
D03*
X-0020325D02*
D03*
X-0010325D02*
D03*
X-0000325D02*
D03*
X0009675D02*
D03*
X0019675D02*
D03*
X0029675D02*
D03*
X0039675D02*
D03*
X0049675D02*
D03*
X0059675D02*
D03*
X0069675D02*
D03*
X0079675D02*
D03*
X0089675D02*
D03*
X0124062Y0105219D02*
D03*
X0010497Y0166232D02*
D03*
X-0017055Y0157136D02*
D03*
X-0136803Y0103561D02*
D03*
D57*
X0013353Y-0070485D02*
D03*
X0003353D02*
D03*
X-0006647D02*
D03*
X-0016647D02*
D03*
X-0026647D02*
D03*
X-0036647D02*
D03*
X0023353D02*
D03*
X0033353D02*
D03*
D58*
X-0032521Y-0025954D02*
D03*
X0029479D02*
D03*
X0014171Y0135293D02*
D03*
X-0014243Y0135217D02*
D03*
D59*
X-0102204Y0119367D02*
D03*
X-0112204D02*
D03*
X-0034131Y015192D02*
D03*
X-0041203Y0144849D02*
D03*
X0042239Y0143075D02*
D03*
X0035168Y0150146D02*
D03*
X0098884Y0119061D02*
D03*
X0108884D02*
D03*
D60*
X-0032087Y0092645D02*
D03*
X0031037Y0092837D02*
D03*
X0144329Y-0000878D02*
D03*
X-0148834Y-0000877D02*
D03*
X-0148835Y-0072574D02*
D03*
X0144331Y-0072575D02*
D03*
D61*
X0091714Y-0104676D02*
D03*
Y-0094833D02*
D03*
Y-0084991D02*
D03*
X0112974D02*
D03*
Y-0094833D02*
D03*
D62*
Y-0104676D02*
D03*
D63*
X-0106151Y-0121207D02*
D03*
D64*
Y-0111207D02*
D03*
Y-0101207D02*
D03*
Y-0091207D02*
D03*
Y-0081207D02*
D03*
Y-0071207D02*
D03*
D65*
X-0078645Y0094063D02*
D03*
X0044447Y0102244D02*
D03*
X-005873Y0101959D02*
D03*
X0063782Y009421D02*
D03*
D66*
X-0073645Y0094063D02*
D03*
X-0068645D02*
D03*
X0054447Y0102244D02*
D03*
X0049447D02*
D03*
X-004873Y0101959D02*
D03*
X-005373D02*
D03*
X0073782Y009421D02*
D03*
X0068782D02*
D03*
D67*
X0134062Y0105219D02*
D03*
X-0126803Y0103561D02*
D03*
D68*
X0017568Y0159161D02*
D03*
D69*
X-0009984Y0164207D02*
D03*
D70*
X0035521Y-0153802D02*
D03*
X0025521D02*
D03*
X0015521D02*
D03*
X0005521D02*
D03*
X-0004479D02*
D03*
X-0014479D02*
D03*
X-0024479D02*
D03*
X-0034979D02*
D03*
X0035521Y-0093408D02*
D03*
X0025521D02*
D03*
X0015521D02*
D03*
X0005521D02*
D03*
X-0004479D02*
D03*
X-0014479D02*
D03*
X-0024479D02*
D03*
X-0034479D02*
D03*
D71*
X0159297Y-0007927D02*
D03*
Y-0018163D02*
D03*
Y-0028399D02*
D03*
Y-0038635D02*
D03*
Y-0048872D02*
D03*
Y-0059108D02*
D03*
X0154179Y0002309D02*
D03*
X0156738Y-0002809D02*
D03*
X0154179Y-0007927D02*
D03*
X0156738Y-0013045D02*
D03*
X0154179Y-0018163D02*
D03*
X0156738Y-0023281D02*
D03*
X0154179Y-0028399D02*
D03*
X0156738Y-0033517D02*
D03*
X0154179Y-0038635D02*
D03*
X0156738Y-0043754D02*
D03*
X0154179Y-0048872D02*
D03*
X0156738Y-005399D02*
D03*
X0154179Y-0059108D02*
D03*
X0156738Y-0064226D02*
D03*
X0154179Y-0069344D02*
D03*
X015162Y-0002809D02*
D03*
X0149061Y-0007927D02*
D03*
X015162Y-0013045D02*
D03*
X0149061Y-0018163D02*
D03*
X015162Y-0023281D02*
D03*
X0149061Y-0028399D02*
D03*
X015162Y-0033517D02*
D03*
X0149061Y-0038635D02*
D03*
X015162Y-0043754D02*
D03*
X0149061Y-0048872D02*
D03*
X015162Y-005399D02*
D03*
X0149061Y-0059108D02*
D03*
X015162Y-0064226D02*
D03*
Y-0074462D02*
D03*
X0146502Y-0013045D02*
D03*
X0143942Y-0018163D02*
D03*
X0146502Y-0023281D02*
D03*
X0143942Y-0028399D02*
D03*
X0146502Y-0033517D02*
D03*
X0143942Y-0038635D02*
D03*
X0146502Y-0043754D02*
D03*
X0143942Y-0048872D02*
D03*
X0146502Y-005399D02*
D03*
X0143942Y-0059108D02*
D03*
X0146502Y-0064226D02*
D03*
X0141383Y0160971D02*
D03*
X0138824Y0155853D02*
D03*
X0141383Y0150735D02*
D03*
X0138824Y0145616D02*
D03*
X0141383Y0140498D02*
D03*
X0138824Y-0007927D02*
D03*
X0141383Y-0013045D02*
D03*
X0138824Y-0018163D02*
D03*
X0141383Y-0023281D02*
D03*
X0138824Y-0028399D02*
D03*
X0141383Y-0033517D02*
D03*
X0138824Y-0038635D02*
D03*
X0141383Y-0043754D02*
D03*
X0138824Y-0048872D02*
D03*
X0141383Y-005399D02*
D03*
X0138824Y-0059108D02*
D03*
X0141383Y-0064226D02*
D03*
X0138824Y-007958D02*
D03*
X0141383Y-0084698D02*
D03*
X0133706Y0166089D02*
D03*
X0136265Y0160971D02*
D03*
X0133706Y0155853D02*
D03*
X0136265Y0150735D02*
D03*
X0133706Y013538D02*
D03*
X0136265Y0130262D02*
D03*
X0133706Y0125144D02*
D03*
X0136265Y0120026D02*
D03*
X0133706Y0114908D02*
D03*
Y0002309D02*
D03*
X0136265Y-0002809D02*
D03*
X0133706Y-0007927D02*
D03*
X0136265Y-0013045D02*
D03*
X0133706Y-0018163D02*
D03*
X0136265Y-0023281D02*
D03*
X0133706Y-0028399D02*
D03*
X0136265Y-0033517D02*
D03*
X0133706Y-0038635D02*
D03*
X0136265Y-0043754D02*
D03*
X0133706Y-0048872D02*
D03*
X0136265Y-005399D02*
D03*
X0133706Y-0059108D02*
D03*
X0136265Y-0064226D02*
D03*
X0133706Y-0069344D02*
D03*
X0136265Y-0074462D02*
D03*
X0133706Y-007958D02*
D03*
X0136265Y-0084698D02*
D03*
X0133706Y-0089816D02*
D03*
Y-0100053D02*
D03*
Y-0110289D02*
D03*
X0128588Y0166089D02*
D03*
X0131147Y0150735D02*
D03*
X0128588Y013538D02*
D03*
X0131147Y0130262D02*
D03*
X0128588Y0125144D02*
D03*
X0131147Y0120026D02*
D03*
X0128588Y0002309D02*
D03*
X0131147Y-0002809D02*
D03*
X0128588Y-0007927D02*
D03*
X0131147Y-0013045D02*
D03*
X0128588Y-0018163D02*
D03*
X0131147Y-0023281D02*
D03*
X0128588Y-0028399D02*
D03*
X0131147Y-0033517D02*
D03*
X0128588Y-0038635D02*
D03*
X0131147Y-0043754D02*
D03*
X0128588Y-0048872D02*
D03*
X0131147Y-005399D02*
D03*
X0128588Y-0059108D02*
D03*
X0131147Y-0064226D02*
D03*
X0128588Y-0069344D02*
D03*
X0131147Y-0074462D02*
D03*
X0128588Y-007958D02*
D03*
X0131147Y-0084698D02*
D03*
X0128588Y-0089816D02*
D03*
X0131147Y-0094935D02*
D03*
X0128588Y-0100053D02*
D03*
X0131147Y-0105171D02*
D03*
X0128588Y-0110289D02*
D03*
X0131147Y-0115407D02*
D03*
X0128588Y-0120525D02*
D03*
X012347Y0145616D02*
D03*
X0126029Y0140498D02*
D03*
X012347Y013538D02*
D03*
X0126029Y0130262D02*
D03*
X012347Y0125144D02*
D03*
X0126029Y0120026D02*
D03*
Y0099554D02*
D03*
X012347Y0002309D02*
D03*
X0126029Y-0002809D02*
D03*
X012347Y-0007927D02*
D03*
X0126029Y-0013045D02*
D03*
X012347Y-0018163D02*
D03*
X0126029Y-0023281D02*
D03*
X012347Y-0028399D02*
D03*
X0126029Y-0033517D02*
D03*
X012347Y-0038635D02*
D03*
X0126029Y-0043754D02*
D03*
X012347Y-0048872D02*
D03*
X0126029Y-005399D02*
D03*
X012347Y-0059108D02*
D03*
X0126029Y-0064226D02*
D03*
X012347Y-0069344D02*
D03*
X0126029Y-0074462D02*
D03*
X012347Y-007958D02*
D03*
X0126029Y-0084698D02*
D03*
Y-0094935D02*
D03*
Y-0105171D02*
D03*
Y-0115407D02*
D03*
X012347Y-0120525D02*
D03*
X0118352Y0145616D02*
D03*
X0120911Y0140498D02*
D03*
X0118352Y013538D02*
D03*
X0120911Y0130262D02*
D03*
X0118352Y0114908D02*
D03*
X0120911Y0099554D02*
D03*
X0118352Y0002309D02*
D03*
X0120911Y-0002809D02*
D03*
X0118352Y-0007927D02*
D03*
X0120911Y-0013045D02*
D03*
X0118352Y-0018163D02*
D03*
X0120911Y-0023281D02*
D03*
X0118352Y-0028399D02*
D03*
X0120911Y-0033517D02*
D03*
X0118352Y-0038635D02*
D03*
X0120911Y-0043754D02*
D03*
X0118352Y-0048872D02*
D03*
X0120911Y-005399D02*
D03*
X0118352Y-0059108D02*
D03*
X0120911Y-0064226D02*
D03*
X0118352Y-0069344D02*
D03*
X0120911Y-0074462D02*
D03*
X0118352Y-007958D02*
D03*
X0120911Y-0084698D02*
D03*
Y-0115407D02*
D03*
X0118352Y-0120525D02*
D03*
X0120911Y-0125643D02*
D03*
X0118352Y-0130761D02*
D03*
X0115793Y0171207D02*
D03*
X0113234Y0145616D02*
D03*
X0115793Y0140498D02*
D03*
X0113234Y013538D02*
D03*
X0115793Y0130262D02*
D03*
Y010979D02*
D03*
Y0099554D02*
D03*
X0113234Y0002309D02*
D03*
X0115793Y-0002809D02*
D03*
X0113234Y-0007927D02*
D03*
X0115793Y-0013045D02*
D03*
X0113234Y-0018163D02*
D03*
X0115793Y-0023281D02*
D03*
X0113234Y-0028399D02*
D03*
X0115793Y-0033517D02*
D03*
X0113234Y-0038635D02*
D03*
X0115793Y-0043754D02*
D03*
X0113234Y-0048872D02*
D03*
X0115793Y-005399D02*
D03*
X0113234Y-0059108D02*
D03*
X0115793Y-0064226D02*
D03*
X0113234Y-0069344D02*
D03*
X0115793Y-0074462D02*
D03*
X0113234Y-007958D02*
D03*
X0108116Y0176325D02*
D03*
X0110675Y0171207D02*
D03*
X0108116Y0155853D02*
D03*
X0110675Y0140498D02*
D03*
Y010979D02*
D03*
Y0099554D02*
D03*
Y0089317D02*
D03*
Y0007428D02*
D03*
X0108116Y0002309D02*
D03*
X0110675Y-0002809D02*
D03*
X0108116Y-0007927D02*
D03*
X0110675Y-0013045D02*
D03*
X0108116Y-0018163D02*
D03*
X0110675Y-0023281D02*
D03*
X0108116Y-0028399D02*
D03*
X0110675Y-0033517D02*
D03*
X0108116Y-0038635D02*
D03*
X0110675Y-0043754D02*
D03*
X0102998Y0176325D02*
D03*
X0105557Y0171207D02*
D03*
X0102998Y0155853D02*
D03*
X0105557Y0140498D02*
D03*
X0102998Y0012546D02*
D03*
X0105557Y0007428D02*
D03*
X0102998Y0002309D02*
D03*
X0105557Y-0002809D02*
D03*
X0102998Y-0007927D02*
D03*
X0105557Y-0013045D02*
D03*
X0102998Y-0018163D02*
D03*
X0105557Y-0023281D02*
D03*
X0102998Y-0028399D02*
D03*
X0105557Y-0033517D02*
D03*
X0102998Y-0048872D02*
D03*
Y-0059108D02*
D03*
Y-0069344D02*
D03*
Y-007958D02*
D03*
X0100438Y0181443D02*
D03*
X0097879Y0176325D02*
D03*
X0100438Y0171207D02*
D03*
X0097879Y0155853D02*
D03*
X0100438Y0140498D02*
D03*
X0097879Y0094435D02*
D03*
Y0033018D02*
D03*
Y0022782D02*
D03*
X0100438Y0007428D02*
D03*
X0097879Y0002309D02*
D03*
X0100438Y-0002809D02*
D03*
X0097879Y-0007927D02*
D03*
X0100438Y-0013045D02*
D03*
X0097879Y-0018163D02*
D03*
X0100438Y-0023281D02*
D03*
X0097879Y-0028399D02*
D03*
X0100438Y-0033517D02*
D03*
X0097879Y-0048872D02*
D03*
X0100438Y-005399D02*
D03*
X0097879Y-0059108D02*
D03*
X0100438Y-0064226D02*
D03*
X0097879Y-0069344D02*
D03*
X0100438Y-0074462D02*
D03*
X0097879Y-007958D02*
D03*
X009532Y0181443D02*
D03*
X0092761Y0176325D02*
D03*
X009532Y0171207D02*
D03*
X0092761Y0094435D02*
D03*
X009532Y0089317D02*
D03*
X0092761Y0084199D02*
D03*
X009532Y0079081D02*
D03*
X0092761Y0073963D02*
D03*
X009532Y0068845D02*
D03*
Y0038136D02*
D03*
X0092761Y0033018D02*
D03*
X009532Y00279D02*
D03*
X0092761Y0022782D02*
D03*
X009532Y0017664D02*
D03*
Y-0002809D02*
D03*
X0092761Y-0007927D02*
D03*
X009532Y-0013045D02*
D03*
X0092761Y-0018163D02*
D03*
X009532Y-0023281D02*
D03*
X0092761Y-0038635D02*
D03*
X009532Y-0043754D02*
D03*
X0092761Y-0048872D02*
D03*
X009532Y-005399D02*
D03*
X0092761Y-0059108D02*
D03*
X009532Y-0064226D02*
D03*
X0092761Y-0069344D02*
D03*
X009532Y-0074462D02*
D03*
X0092761Y-007958D02*
D03*
X009532Y-0146116D02*
D03*
X0087643Y0186561D02*
D03*
X0090202Y0181443D02*
D03*
X0087643Y0176325D02*
D03*
X0090202Y0171207D02*
D03*
X0087643Y0104672D02*
D03*
X0090202Y0099554D02*
D03*
X0087643Y0094435D02*
D03*
X0090202Y0089317D02*
D03*
X0087643Y0084199D02*
D03*
X0090202Y0079081D02*
D03*
X0087643Y0073963D02*
D03*
X0090202Y0068845D02*
D03*
Y0048372D02*
D03*
Y0038136D02*
D03*
X0087643Y0033018D02*
D03*
X0090202Y00279D02*
D03*
X0087643Y0022782D02*
D03*
X0090202Y0017664D02*
D03*
X0087643Y0012546D02*
D03*
Y-0007927D02*
D03*
X0090202Y-0013045D02*
D03*
X0087643Y-0018163D02*
D03*
X0090202Y-0023281D02*
D03*
X0087643Y-0038635D02*
D03*
X0090202Y-0043754D02*
D03*
X0087643Y-0048872D02*
D03*
X0090202Y-005399D02*
D03*
X0087643Y-0059108D02*
D03*
X0090202Y-0064226D02*
D03*
X0087643Y-0069344D02*
D03*
X0090202Y-0074462D02*
D03*
X0087643Y-007958D02*
D03*
Y-0089816D02*
D03*
Y-0100053D02*
D03*
Y-0110289D02*
D03*
X0090202Y-013588D02*
D03*
X0087643Y-0140998D02*
D03*
X0090202Y-0146116D02*
D03*
X0087643Y-016147D02*
D03*
X0082525Y0186561D02*
D03*
X0085084Y0181443D02*
D03*
X0082525Y0176325D02*
D03*
X0085084Y0171207D02*
D03*
X0082525Y0155853D02*
D03*
X0085084Y0140498D02*
D03*
X0082525Y0125144D02*
D03*
X0085084Y0079081D02*
D03*
X0082525Y0073963D02*
D03*
X0085084Y0068845D02*
D03*
X0082525Y0053491D02*
D03*
X0085084Y0048372D02*
D03*
Y0038136D02*
D03*
X0082525Y0033018D02*
D03*
X0085084Y00279D02*
D03*
X0082525Y0022782D02*
D03*
X0085084Y0017664D02*
D03*
X0082525Y0012546D02*
D03*
X0085084Y0007428D02*
D03*
X0082525Y-0007927D02*
D03*
X0085084Y-0013045D02*
D03*
X0082525Y-0028399D02*
D03*
X0085084Y-0033517D02*
D03*
X0082525Y-0038635D02*
D03*
X0085084Y-0043754D02*
D03*
X0082525Y-0048872D02*
D03*
X0085084Y-005399D02*
D03*
X0082525Y-0059108D02*
D03*
X0085084Y-0064226D02*
D03*
X0082525Y-0069344D02*
D03*
X0085084Y-0074462D02*
D03*
X0082525Y-007958D02*
D03*
X0085084Y-0084698D02*
D03*
Y-0094935D02*
D03*
Y-0105171D02*
D03*
Y-013588D02*
D03*
X0082525Y-0140998D02*
D03*
X0085084Y-0146116D02*
D03*
X0082525Y-016147D02*
D03*
X0077407Y0186561D02*
D03*
X0079966Y0181443D02*
D03*
X0077407Y0176325D02*
D03*
Y0155853D02*
D03*
X0079966Y0068845D02*
D03*
Y0048372D02*
D03*
Y0038136D02*
D03*
X0077407Y0033018D02*
D03*
X0079966Y00279D02*
D03*
X0077407Y0022782D02*
D03*
X0079966Y0017664D02*
D03*
X0077407Y0012546D02*
D03*
X0079966Y0007428D02*
D03*
X0077407Y-0069344D02*
D03*
X0079966Y-0074462D02*
D03*
X0077407Y-007958D02*
D03*
X0079966Y-0084698D02*
D03*
X0077407Y-0120525D02*
D03*
Y-0140998D02*
D03*
X0079966Y-0146116D02*
D03*
X0077407Y-016147D02*
D03*
X0072289Y0186561D02*
D03*
X0074848Y0181443D02*
D03*
X0072289Y0166089D02*
D03*
Y0155853D02*
D03*
X0074848Y0150735D02*
D03*
X0072289Y0145616D02*
D03*
X0074848Y0089317D02*
D03*
Y0068845D02*
D03*
Y0048372D02*
D03*
Y0038136D02*
D03*
X0072289Y0033018D02*
D03*
X0074848Y00279D02*
D03*
X0072289Y0022782D02*
D03*
X0074848Y0017664D02*
D03*
X0072289Y0012546D02*
D03*
X0074848Y0007428D02*
D03*
Y-0074462D02*
D03*
X0072289Y-007958D02*
D03*
X0074848Y-0084698D02*
D03*
Y-0146116D02*
D03*
X0072289Y-016147D02*
D03*
X006973Y019168D02*
D03*
X0067171Y0186561D02*
D03*
Y0166089D02*
D03*
Y0155853D02*
D03*
X006973Y0150735D02*
D03*
X0067171Y0145616D02*
D03*
X006973Y0140498D02*
D03*
Y0089317D02*
D03*
Y0068845D02*
D03*
Y0038136D02*
D03*
X0067171Y0033018D02*
D03*
X006973Y00279D02*
D03*
X0067171Y0022782D02*
D03*
X006973Y0017664D02*
D03*
X0067171Y0012546D02*
D03*
X006973Y0007428D02*
D03*
Y-0074462D02*
D03*
X0067171Y-007958D02*
D03*
X006973Y-0084698D02*
D03*
Y-0146116D02*
D03*
X0067171Y-016147D02*
D03*
X0064612Y019168D02*
D03*
X0062053Y0176325D02*
D03*
X0064612Y0171207D02*
D03*
X0062053Y0166089D02*
D03*
Y0155853D02*
D03*
X0064612Y0150735D02*
D03*
X0062053Y0145616D02*
D03*
X0064612Y0140498D02*
D03*
Y0068845D02*
D03*
Y0038136D02*
D03*
X0062053Y0033018D02*
D03*
X0064612Y00279D02*
D03*
X0062053Y0022782D02*
D03*
X0064612Y0017664D02*
D03*
Y-0074462D02*
D03*
X0062053Y-007958D02*
D03*
X0064612Y-0084698D02*
D03*
Y-0146116D02*
D03*
X0062053Y-016147D02*
D03*
X0056935Y0176325D02*
D03*
X0059494Y0171207D02*
D03*
X0056935Y0166089D02*
D03*
Y0155853D02*
D03*
X0059494Y0150735D02*
D03*
X0056935Y0145616D02*
D03*
X0059494Y0140498D02*
D03*
Y0068845D02*
D03*
Y0038136D02*
D03*
X0056935Y0033018D02*
D03*
X0059494Y00279D02*
D03*
X0056935Y0022782D02*
D03*
X0059494Y0007428D02*
D03*
Y-0074462D02*
D03*
X0056935Y-0120525D02*
D03*
X0059494Y-0146116D02*
D03*
X0056935Y-016147D02*
D03*
X0051816Y0196798D02*
D03*
X0054376Y0171207D02*
D03*
X0051816Y0166089D02*
D03*
Y0155853D02*
D03*
X0054376Y0038136D02*
D03*
X0051816Y0033018D02*
D03*
X0054376Y00279D02*
D03*
X0051816Y0012546D02*
D03*
X0054376Y0007428D02*
D03*
X0051816Y-0007927D02*
D03*
X0054376Y-0125643D02*
D03*
Y-0146116D02*
D03*
X0051816Y-016147D02*
D03*
X0046698Y0196798D02*
D03*
X0049257Y0130262D02*
D03*
X0046698Y0073963D02*
D03*
X0049257Y0038136D02*
D03*
X0046698Y0033018D02*
D03*
X0049257Y0017664D02*
D03*
X0046698Y0012546D02*
D03*
X0049257Y0007428D02*
D03*
X0046698Y-0007927D02*
D03*
X0049257Y-0074462D02*
D03*
Y-0115407D02*
D03*
X0046698Y-0130761D02*
D03*
X0049257Y-0146116D02*
D03*
X0046698Y-016147D02*
D03*
X004158Y0196798D02*
D03*
Y013538D02*
D03*
Y0125144D02*
D03*
X0044139Y0120026D02*
D03*
X004158Y0114908D02*
D03*
X0044139Y010979D02*
D03*
Y0068845D02*
D03*
Y0038136D02*
D03*
X004158Y0022782D02*
D03*
X0044139Y0017664D02*
D03*
X004158Y0012546D02*
D03*
X0044139Y0007428D02*
D03*
X004158Y-0007927D02*
D03*
X0044139Y-0115407D02*
D03*
X004158Y-0120525D02*
D03*
X0044139Y-0146116D02*
D03*
X004158Y-016147D02*
D03*
X0036462Y0196798D02*
D03*
Y013538D02*
D03*
X0039021Y0120026D02*
D03*
X0036462Y0114908D02*
D03*
X0039021Y010979D02*
D03*
X0036462Y0063727D02*
D03*
X0039021Y0038136D02*
D03*
X0036462Y0022782D02*
D03*
X0039021Y0017664D02*
D03*
X0036462Y0012546D02*
D03*
X0039021Y0007428D02*
D03*
Y-0013045D02*
D03*
X0036462Y-0018163D02*
D03*
X0039021Y-0023281D02*
D03*
Y-0033517D02*
D03*
X0036462Y-0038635D02*
D03*
X0039021Y-0043754D02*
D03*
X0036462Y-0048872D02*
D03*
X0039021Y-0115407D02*
D03*
X0036462Y-0120525D02*
D03*
X0039021Y-0146116D02*
D03*
X0036462Y-016147D02*
D03*
X0031344Y0196798D02*
D03*
Y0176325D02*
D03*
Y013538D02*
D03*
X0033903Y0130262D02*
D03*
X0031344Y0125144D02*
D03*
X0033903Y010979D02*
D03*
Y0038136D02*
D03*
X0031344Y0022782D02*
D03*
X0033903Y0017664D02*
D03*
X0031344Y0012546D02*
D03*
X0033903Y0007428D02*
D03*
Y-0013045D02*
D03*
X0031344Y-0038635D02*
D03*
X0033903Y-0043754D02*
D03*
Y-0115407D02*
D03*
X0031344Y-0120525D02*
D03*
X0033903Y-0146116D02*
D03*
X0031344Y-016147D02*
D03*
X0026226Y0196798D02*
D03*
Y0176325D02*
D03*
X0028785Y0171207D02*
D03*
Y0130262D02*
D03*
X0026226Y0104672D02*
D03*
Y0084199D02*
D03*
X0028785Y0038136D02*
D03*
X0026226Y0022782D02*
D03*
X0028785Y0017664D02*
D03*
X0026226Y0012546D02*
D03*
X0028785Y0007428D02*
D03*
X0026226Y-0038635D02*
D03*
Y-0120525D02*
D03*
X0028785Y-013588D02*
D03*
X0026226Y-0140998D02*
D03*
Y-016147D02*
D03*
X0021108Y0196798D02*
D03*
Y0176325D02*
D03*
X0023667Y0171207D02*
D03*
X0021108Y0125144D02*
D03*
Y0114908D02*
D03*
Y0104672D02*
D03*
X0023667Y0099554D02*
D03*
X0021108Y0094435D02*
D03*
X0023667Y0089317D02*
D03*
X0021108Y0084199D02*
D03*
X0023667Y0079081D02*
D03*
Y0038136D02*
D03*
X0021108Y0022782D02*
D03*
X0023667Y0017664D02*
D03*
X0021108Y0012546D02*
D03*
Y-007958D02*
D03*
X0023667Y-0084698D02*
D03*
X0021108Y-0110289D02*
D03*
X0023667Y-013588D02*
D03*
X0021108Y-0140998D02*
D03*
Y-016147D02*
D03*
X001599Y0196798D02*
D03*
Y0176325D02*
D03*
X0018549Y0150735D02*
D03*
X001599Y0145616D02*
D03*
Y0125144D02*
D03*
X0018549Y0120026D02*
D03*
X001599Y0114908D02*
D03*
X0018549Y010979D02*
D03*
X001599Y0104672D02*
D03*
X0018549Y0099554D02*
D03*
X001599Y0094435D02*
D03*
X0018549Y0089317D02*
D03*
X001599Y0084199D02*
D03*
X0018549Y0079081D02*
D03*
X001599Y0073963D02*
D03*
X0018549Y0038136D02*
D03*
X001599Y0022782D02*
D03*
X0018549Y0017664D02*
D03*
X001599Y0012546D02*
D03*
Y-0059108D02*
D03*
X0018549Y-0064226D02*
D03*
X001599Y-007958D02*
D03*
X0018549Y-0084698D02*
D03*
X001599Y-0110289D02*
D03*
X0018549Y-0115407D02*
D03*
X001599Y-0140998D02*
D03*
X0018549Y-0146116D02*
D03*
X001599Y-016147D02*
D03*
X0010872Y0196798D02*
D03*
Y0155853D02*
D03*
X0013431Y0150735D02*
D03*
X0010872Y0145616D02*
D03*
Y0125144D02*
D03*
X0013431Y0120026D02*
D03*
X0010872Y0114908D02*
D03*
X0013431Y010979D02*
D03*
X0010872Y0104672D02*
D03*
X0013431Y0099554D02*
D03*
X0010872Y0094435D02*
D03*
X0013431Y0089317D02*
D03*
X0010872Y0084199D02*
D03*
X0013431Y0079081D02*
D03*
X0010872Y0073963D02*
D03*
X0013431Y0068845D02*
D03*
X0010872Y0022782D02*
D03*
X0013431Y0017664D02*
D03*
X0010872Y0012546D02*
D03*
X0013431Y-005399D02*
D03*
X0010872Y-0059108D02*
D03*
Y-007958D02*
D03*
X0013431Y-0084698D02*
D03*
X0010872Y-0110289D02*
D03*
X0013431Y-0115407D02*
D03*
X0010872Y-0120525D02*
D03*
X0013431Y-0146116D02*
D03*
X0010872Y-016147D02*
D03*
X0005754Y0196798D02*
D03*
Y0155853D02*
D03*
X0008313Y0150735D02*
D03*
X0005754Y0145616D02*
D03*
Y0125144D02*
D03*
X0008313Y0120026D02*
D03*
X0005754Y0114908D02*
D03*
X0008313Y010979D02*
D03*
X0005754Y0104672D02*
D03*
X0008313Y0099554D02*
D03*
Y0089317D02*
D03*
Y0079081D02*
D03*
Y0068845D02*
D03*
X0005754Y0022782D02*
D03*
X0008313Y0017664D02*
D03*
X0005754Y0012546D02*
D03*
Y-0007927D02*
D03*
Y-0038635D02*
D03*
Y-0048872D02*
D03*
X0008313Y-005399D02*
D03*
X0005754Y-0059108D02*
D03*
X0008313Y-0064226D02*
D03*
X0005754Y-007958D02*
D03*
X0008313Y-0084698D02*
D03*
X0005754Y-0110289D02*
D03*
X0008313Y-0115407D02*
D03*
X0005754Y-0120525D02*
D03*
X0008313Y-0125643D02*
D03*
X0005754Y-016147D02*
D03*
X0000635Y0196798D02*
D03*
X0003195Y0181443D02*
D03*
Y0171207D02*
D03*
X0000635Y0166089D02*
D03*
X0003195Y0160971D02*
D03*
X0000635Y0155853D02*
D03*
X0003195Y0150735D02*
D03*
X0000635Y0145616D02*
D03*
X0003195Y0140498D02*
D03*
X0000635Y013538D02*
D03*
X0003195Y0130262D02*
D03*
X0000635Y0125144D02*
D03*
X0003195Y0120026D02*
D03*
X0000635Y0114908D02*
D03*
X0003195Y010979D02*
D03*
X0000635Y0094435D02*
D03*
Y0084199D02*
D03*
Y0073963D02*
D03*
Y0022782D02*
D03*
X0003195Y0017664D02*
D03*
X0000635Y0012546D02*
D03*
Y-0007927D02*
D03*
X0003195Y-0013045D02*
D03*
X0000635Y-0018163D02*
D03*
X0003195Y-0043754D02*
D03*
X0000635Y-0048872D02*
D03*
X0003195Y-005399D02*
D03*
X0000635Y-0059108D02*
D03*
Y-007958D02*
D03*
Y-0110289D02*
D03*
X0003195Y-0115407D02*
D03*
X0000635Y-0120525D02*
D03*
X0003195Y-0125643D02*
D03*
X0000635Y-0130761D02*
D03*
Y-016147D02*
D03*
X-0004483Y0196798D02*
D03*
X-0001924Y0181443D02*
D03*
Y0171207D02*
D03*
Y0160971D02*
D03*
Y0150735D02*
D03*
X-0004483Y0145616D02*
D03*
X-0001924Y0140498D02*
D03*
X-0004483Y013538D02*
D03*
X-0001924Y0130262D02*
D03*
X-0004483Y0125144D02*
D03*
X-0001924Y0120026D02*
D03*
X-0004483Y0114908D02*
D03*
X-0001924Y0099554D02*
D03*
X-0004483Y0094435D02*
D03*
X-0001924Y0089317D02*
D03*
X-0004483Y0084199D02*
D03*
X-0001924Y0079081D02*
D03*
X-0004483Y0063727D02*
D03*
Y0022782D02*
D03*
X-0001924Y0017664D02*
D03*
X-0004483Y0012546D02*
D03*
Y-0007927D02*
D03*
X-0001924Y-0013045D02*
D03*
X-0004483Y-0018163D02*
D03*
X-0001924Y-005399D02*
D03*
Y-0064226D02*
D03*
X-0004483Y-007958D02*
D03*
Y-0110289D02*
D03*
X-0001924Y-0115407D02*
D03*
X-0004483Y-0120525D02*
D03*
X-0001924Y-0125643D02*
D03*
X-0004483Y-0130761D02*
D03*
X-0001924Y-013588D02*
D03*
X-0004483Y-016147D02*
D03*
X-0009601Y0196798D02*
D03*
X-0007042Y0181443D02*
D03*
Y0171207D02*
D03*
Y0150735D02*
D03*
X-0009601Y0145616D02*
D03*
Y0125144D02*
D03*
X-0007042Y0120026D02*
D03*
X-0009601Y0104672D02*
D03*
X-0007042Y0099554D02*
D03*
X-0009601Y0094435D02*
D03*
X-0007042Y0089317D02*
D03*
X-0009601Y0084199D02*
D03*
Y0073963D02*
D03*
X-0007042Y0068845D02*
D03*
X-0009601Y0022782D02*
D03*
X-0007042Y0017664D02*
D03*
X-0009601Y0012546D02*
D03*
X-0007042Y0007428D02*
D03*
X-0009601Y-0007927D02*
D03*
X-0007042Y-0013045D02*
D03*
X-0009601Y-0018163D02*
D03*
X-0007042Y-0023281D02*
D03*
X-0009601Y-0028399D02*
D03*
Y-007958D02*
D03*
Y-0110289D02*
D03*
X-0007042Y-0115407D02*
D03*
X-0009601Y-0120525D02*
D03*
X-0007042Y-0125643D02*
D03*
X-0009601Y-0130761D02*
D03*
X-0007042Y-013588D02*
D03*
X-0009601Y-0140998D02*
D03*
Y-016147D02*
D03*
X-0014719Y0196798D02*
D03*
X-001216Y0181443D02*
D03*
Y0171207D02*
D03*
X-0014719Y0125144D02*
D03*
X-001216Y010979D02*
D03*
X-0014719Y0104672D02*
D03*
X-001216Y0099554D02*
D03*
X-0014719Y0094435D02*
D03*
X-001216Y0089317D02*
D03*
X-0014719Y0073963D02*
D03*
X-001216Y0068845D02*
D03*
X-0014719Y0022782D02*
D03*
X-001216Y0017664D02*
D03*
X-0014719Y0012546D02*
D03*
X-001216Y0007428D02*
D03*
Y-005399D02*
D03*
X-0014719Y-007958D02*
D03*
Y-0110289D02*
D03*
X-001216Y-0115407D02*
D03*
X-0014719Y-0120525D02*
D03*
X-001216Y-0125643D02*
D03*
X-0014719Y-0130761D02*
D03*
X-001216Y-013588D02*
D03*
X-0014719Y-0140998D02*
D03*
X-001216Y-0146116D02*
D03*
X-0014719Y-016147D02*
D03*
X-0019837Y0196798D02*
D03*
X-0017278Y0181443D02*
D03*
Y0171207D02*
D03*
X-0019837Y0166089D02*
D03*
Y0114908D02*
D03*
X-0017278Y010979D02*
D03*
X-0019837Y0104672D02*
D03*
X-0017278Y0099554D02*
D03*
X-0019837Y0094435D02*
D03*
Y0084199D02*
D03*
X-0017278Y0079081D02*
D03*
X-0019837Y0073963D02*
D03*
Y0022782D02*
D03*
X-0017278Y0017664D02*
D03*
X-0019837Y0012546D02*
D03*
X-0017278Y0007428D02*
D03*
X-0019837Y-0110289D02*
D03*
X-0017278Y-0115407D02*
D03*
X-0019837Y-0120525D02*
D03*
X-0017278Y-0125643D02*
D03*
X-0019837Y-0130761D02*
D03*
X-0017278Y-013588D02*
D03*
X-0019837Y-0140998D02*
D03*
Y-016147D02*
D03*
X-0024955Y0196798D02*
D03*
X-0022396Y0181443D02*
D03*
Y0171207D02*
D03*
X-0024955Y0166089D02*
D03*
X-0022396Y0120026D02*
D03*
Y010979D02*
D03*
X-0024955Y0104672D02*
D03*
X-0022396Y0099554D02*
D03*
X-0024955Y0084199D02*
D03*
X-0022396Y0079081D02*
D03*
X-0024955Y0073963D02*
D03*
Y0022782D02*
D03*
X-0022396Y0017664D02*
D03*
X-0024955Y0012546D02*
D03*
X-0022396Y0007428D02*
D03*
X-0024955Y-0018163D02*
D03*
Y-0059108D02*
D03*
Y-007958D02*
D03*
Y-0110289D02*
D03*
X-0022396Y-0115407D02*
D03*
X-0024955Y-0120525D02*
D03*
X-0022396Y-0125643D02*
D03*
X-0024955Y-0130761D02*
D03*
Y-016147D02*
D03*
X-0030073Y0196798D02*
D03*
X-0027514Y0181443D02*
D03*
X-0030073Y0176325D02*
D03*
Y0084199D02*
D03*
X-0027514Y0079081D02*
D03*
X-0030073Y0022782D02*
D03*
X-0027514Y0017664D02*
D03*
X-0030073Y0012546D02*
D03*
X-0027514Y0007428D02*
D03*
Y-0013045D02*
D03*
X-0030073Y-0038635D02*
D03*
Y-007958D02*
D03*
X-0027514Y-0115407D02*
D03*
X-0030073Y-0120525D02*
D03*
X-0027514Y-0125643D02*
D03*
X-0030073Y-0140998D02*
D03*
Y-016147D02*
D03*
X-0035191Y0196798D02*
D03*
X-0032632Y0181443D02*
D03*
Y0160971D02*
D03*
X-0035191Y0084199D02*
D03*
Y0022782D02*
D03*
X-0032632Y0017664D02*
D03*
X-0035191Y0012546D02*
D03*
X-0032632Y0007428D02*
D03*
X-0035191Y0002309D02*
D03*
X-0032632Y-0013045D02*
D03*
X-0035191Y-0038635D02*
D03*
Y-007958D02*
D03*
Y-0120525D02*
D03*
Y-0130761D02*
D03*
Y-016147D02*
D03*
X-004031Y0196798D02*
D03*
X-003775Y0181443D02*
D03*
X-004031Y0176325D02*
D03*
Y0022782D02*
D03*
X-003775Y0017664D02*
D03*
X-004031Y0012546D02*
D03*
X-003775Y0007428D02*
D03*
Y-0013045D02*
D03*
X-004031Y-0018163D02*
D03*
Y-0038635D02*
D03*
X-003775Y-0043754D02*
D03*
X-004031Y-0048872D02*
D03*
Y-0140998D02*
D03*
X-003775Y-0146116D02*
D03*
X-004031Y-016147D02*
D03*
X-0042869Y0181443D02*
D03*
X-0045428Y0176325D02*
D03*
Y0155853D02*
D03*
X-0042869Y0099554D02*
D03*
Y0017664D02*
D03*
X-0045428Y0012546D02*
D03*
X-0042869Y0007428D02*
D03*
X-0045428Y0002309D02*
D03*
X-0042869Y-0013045D02*
D03*
Y-0023281D02*
D03*
Y-0033517D02*
D03*
Y-0043754D02*
D03*
Y-005399D02*
D03*
X-0045428Y-0100053D02*
D03*
Y-0110289D02*
D03*
X-0042869Y-013588D02*
D03*
X-0045428Y-0140998D02*
D03*
X-0042869Y-0146116D02*
D03*
X-0045428Y-0151234D02*
D03*
X-0042869Y-0156352D02*
D03*
X-0045428Y-016147D02*
D03*
X-0047987Y0181443D02*
D03*
X-0050546Y0176325D02*
D03*
Y0166089D02*
D03*
X-0047987Y0160971D02*
D03*
X-0050546Y0155853D02*
D03*
Y0012546D02*
D03*
X-0047987Y0007428D02*
D03*
X-0050546Y-0100053D02*
D03*
X-0047987Y-0105171D02*
D03*
X-0050546Y-0120525D02*
D03*
X-0047987Y-013588D02*
D03*
X-0050546Y-0140998D02*
D03*
X-0047987Y-0146116D02*
D03*
X-0050546Y-0151234D02*
D03*
X-0047987Y-0156352D02*
D03*
X-0050546Y-016147D02*
D03*
X-0053105Y0181443D02*
D03*
X-0055664Y0176325D02*
D03*
Y0166089D02*
D03*
X-0053105Y0160971D02*
D03*
X-0055664Y0155853D02*
D03*
X-0053105Y0150735D02*
D03*
X-0055664Y013538D02*
D03*
X-0053105Y0130262D02*
D03*
X-0055664Y0125144D02*
D03*
X-0053105Y00279D02*
D03*
X-0055664Y0022782D02*
D03*
X-0053105Y0007428D02*
D03*
X-0055664Y-0100053D02*
D03*
X-0053105Y-0105171D02*
D03*
X-0055664Y-0120525D02*
D03*
Y-0140998D02*
D03*
X-0053105Y-0146116D02*
D03*
X-0055664Y-0151234D02*
D03*
X-0053105Y-0156352D02*
D03*
X-0055664Y-016147D02*
D03*
X-0058223Y0181443D02*
D03*
X-0060782Y0176325D02*
D03*
X-0058223Y0171207D02*
D03*
X-0060782Y0166089D02*
D03*
X-0058223Y0160971D02*
D03*
X-0060782Y0155853D02*
D03*
X-0058223Y0150735D02*
D03*
Y0140498D02*
D03*
X-0060782Y013538D02*
D03*
X-0058223Y0130262D02*
D03*
X-0060782Y0125144D02*
D03*
X-0058223Y010979D02*
D03*
X-0060782Y0022782D02*
D03*
X-0058223Y0017664D02*
D03*
X-0060782Y-0007927D02*
D03*
X-0058223Y-0105171D02*
D03*
X-0060782Y-0120525D02*
D03*
X-0058223Y-0125643D02*
D03*
Y-0146116D02*
D03*
X-0060782Y-0151234D02*
D03*
X-0058223Y-0156352D02*
D03*
X-0060782Y-016147D02*
D03*
X-0063341Y019168D02*
D03*
X-00659Y0186561D02*
D03*
X-0063341Y0171207D02*
D03*
X-00659Y0166089D02*
D03*
X-0063341Y0160971D02*
D03*
X-00659Y0155853D02*
D03*
X-0063341Y0150735D02*
D03*
Y0140498D02*
D03*
X-00659Y013538D02*
D03*
X-0063341Y0130262D02*
D03*
X-00659Y0125144D02*
D03*
X-0063341Y0120026D02*
D03*
X-00659Y0114908D02*
D03*
X-0063341Y0017664D02*
D03*
X-00659Y0012546D02*
D03*
Y-0007927D02*
D03*
X-0063341Y-0105171D02*
D03*
X-00659Y-0130761D02*
D03*
Y-0151234D02*
D03*
X-0063341Y-0156352D02*
D03*
X-00659Y-016147D02*
D03*
X-0071018Y0186561D02*
D03*
X-0068459Y0171207D02*
D03*
X-0071018Y0166089D02*
D03*
X-0068459Y0160971D02*
D03*
X-0071018Y0155853D02*
D03*
X-0068459Y0150735D02*
D03*
Y0140498D02*
D03*
X-0071018Y013538D02*
D03*
X-0068459Y0130262D02*
D03*
X-0071018Y0125144D02*
D03*
X-0068459Y0120026D02*
D03*
X-0071018Y0114908D02*
D03*
X-0068459Y010979D02*
D03*
Y0099554D02*
D03*
X-0071018Y0012546D02*
D03*
X-0068459Y0007428D02*
D03*
X-0071018Y-0007927D02*
D03*
Y-0130761D02*
D03*
X-0068459Y-013588D02*
D03*
X-0071018Y-0151234D02*
D03*
X-0068459Y-0156352D02*
D03*
X-0071018Y-016147D02*
D03*
X-0076136Y0186561D02*
D03*
X-0073577Y0181443D02*
D03*
X-0076136Y0176325D02*
D03*
X-0073577Y0160971D02*
D03*
X-0076136Y0155853D02*
D03*
X-0073577Y0150735D02*
D03*
Y0140498D02*
D03*
X-0076136Y013538D02*
D03*
X-0073577Y0130262D02*
D03*
X-0076136Y0125144D02*
D03*
X-0073577Y0120026D02*
D03*
X-0076136Y0114908D02*
D03*
X-0073577Y010979D02*
D03*
Y0099554D02*
D03*
X-0076136Y0073963D02*
D03*
X-0073577Y0068845D02*
D03*
X-0076136Y0063727D02*
D03*
X-0073577Y0007428D02*
D03*
X-0076136Y-0007927D02*
D03*
Y-0018163D02*
D03*
Y-0028399D02*
D03*
Y-0038635D02*
D03*
Y-0048872D02*
D03*
Y-0059108D02*
D03*
Y-007958D02*
D03*
Y-0100053D02*
D03*
Y-0120525D02*
D03*
X-0073577Y-0125643D02*
D03*
X-0076136Y-0130761D02*
D03*
X-0073577Y-013588D02*
D03*
X-0076136Y-0151234D02*
D03*
X-0073577Y-0156352D02*
D03*
X-0076136Y-016147D02*
D03*
X-0081254Y0186561D02*
D03*
X-0078695Y0181443D02*
D03*
X-0081254Y0176325D02*
D03*
X-0078695Y0160971D02*
D03*
X-0081254Y0155853D02*
D03*
X-0078695Y0150735D02*
D03*
Y0140498D02*
D03*
X-0081254Y013538D02*
D03*
X-0078695Y0130262D02*
D03*
X-0081254Y0125144D02*
D03*
X-0078695Y0120026D02*
D03*
X-0081254Y0114908D02*
D03*
X-0078695Y0099554D02*
D03*
X-0081254Y0084199D02*
D03*
X-0078695Y0038136D02*
D03*
X-0081254Y0033018D02*
D03*
Y-0007927D02*
D03*
X-0078695Y-0013045D02*
D03*
X-0081254Y-0018163D02*
D03*
X-0078695Y-0023281D02*
D03*
X-0081254Y-0028399D02*
D03*
X-0078695Y-0033517D02*
D03*
X-0081254Y-0038635D02*
D03*
X-0078695Y-0043754D02*
D03*
X-0081254Y-0048872D02*
D03*
X-0078695Y-005399D02*
D03*
X-0081254Y-0059108D02*
D03*
X-0078695Y-0064226D02*
D03*
Y-0084698D02*
D03*
Y-0105171D02*
D03*
X-0081254Y-0120525D02*
D03*
X-0078695Y-0125643D02*
D03*
X-0081254Y-0130761D02*
D03*
X-0078695Y-013588D02*
D03*
X-0081254Y-0151234D02*
D03*
X-0078695Y-0156352D02*
D03*
X-0081254Y-016147D02*
D03*
X-0083813Y0181443D02*
D03*
X-0086373Y0176325D02*
D03*
X-0083813Y0171207D02*
D03*
Y0160971D02*
D03*
X-0086373Y0155853D02*
D03*
X-0083813Y0150735D02*
D03*
Y0140498D02*
D03*
X-0086373Y013538D02*
D03*
X-0083813Y0130262D02*
D03*
X-0086373Y0125144D02*
D03*
X-0083813Y0120026D02*
D03*
X-0086373Y0104672D02*
D03*
X-0083813Y0099554D02*
D03*
X-0086373Y0063727D02*
D03*
X-0083813Y0038136D02*
D03*
X-0086373Y0033018D02*
D03*
X-0083813Y00279D02*
D03*
X-0086373Y-0007927D02*
D03*
X-0083813Y-0013045D02*
D03*
X-0086373Y-0018163D02*
D03*
X-0083813Y-0023281D02*
D03*
X-0086373Y-0028399D02*
D03*
X-0083813Y-0033517D02*
D03*
X-0086373Y-0038635D02*
D03*
X-0083813Y-0043754D02*
D03*
X-0086373Y-0048872D02*
D03*
X-0083813Y-005399D02*
D03*
X-0086373Y-0059108D02*
D03*
X-0083813Y-0064226D02*
D03*
Y-0084698D02*
D03*
X-0086373Y-0100053D02*
D03*
Y-0110289D02*
D03*
X-0083813Y-0115407D02*
D03*
X-0086373Y-0120525D02*
D03*
X-0083813Y-0125643D02*
D03*
X-0086373Y-0130761D02*
D03*
X-0083813Y-013588D02*
D03*
X-0086373Y-0151234D02*
D03*
X-0083813Y-0156352D02*
D03*
X-0086373Y-016147D02*
D03*
X-0088932Y0181443D02*
D03*
X-0091491Y0176325D02*
D03*
X-0088932Y0171207D02*
D03*
Y0160971D02*
D03*
X-0091491Y0155853D02*
D03*
X-0088932Y0150735D02*
D03*
X-0091491Y0145616D02*
D03*
X-0088932Y0130262D02*
D03*
X-0091491Y0125144D02*
D03*
X-0088932Y010979D02*
D03*
Y0089317D02*
D03*
X-0091491Y0073963D02*
D03*
X-0088932Y0038136D02*
D03*
X-0091491Y0033018D02*
D03*
X-0088932Y00279D02*
D03*
X-0091491Y0022782D02*
D03*
Y-0007927D02*
D03*
X-0088932Y-0013045D02*
D03*
X-0091491Y-0018163D02*
D03*
X-0088932Y-0023281D02*
D03*
X-0091491Y-0028399D02*
D03*
X-0088932Y-0033517D02*
D03*
X-0091491Y-0038635D02*
D03*
X-0088932Y-0043754D02*
D03*
X-0091491Y-0048872D02*
D03*
X-0088932Y-005399D02*
D03*
X-0091491Y-0059108D02*
D03*
X-0088932Y-0064226D02*
D03*
Y-0105171D02*
D03*
X-0091491Y-0110289D02*
D03*
X-0088932Y-0115407D02*
D03*
X-0091491Y-0151234D02*
D03*
X-0088932Y-0156352D02*
D03*
X-0091491Y-016147D02*
D03*
X-009405Y0181443D02*
D03*
X-0096609Y0176325D02*
D03*
X-009405Y0171207D02*
D03*
Y0160971D02*
D03*
X-0096609Y0155853D02*
D03*
X-009405Y0150735D02*
D03*
X-0096609Y0145616D02*
D03*
X-009405Y0130262D02*
D03*
X-0096609Y0114908D02*
D03*
Y0104672D02*
D03*
Y0084199D02*
D03*
X-009405Y0079081D02*
D03*
X-0096609Y-0007927D02*
D03*
X-009405Y-0013045D02*
D03*
X-0096609Y-0018163D02*
D03*
X-009405Y-0023281D02*
D03*
X-0096609Y-0028399D02*
D03*
X-009405Y-0033517D02*
D03*
X-0096609Y-0038635D02*
D03*
X-009405Y-0043754D02*
D03*
X-0096609Y-0048872D02*
D03*
X-009405Y-005399D02*
D03*
X-0096609Y-0059108D02*
D03*
X-009405Y-0064226D02*
D03*
Y-0084698D02*
D03*
X-0096609Y-0110289D02*
D03*
X-009405Y-0115407D02*
D03*
X-0096609Y-0130761D02*
D03*
Y-0151234D02*
D03*
X-009405Y-0156352D02*
D03*
X-0101727Y0176325D02*
D03*
X-0099168Y0171207D02*
D03*
Y0160971D02*
D03*
X-0101727Y0155853D02*
D03*
X-0099168Y0150735D02*
D03*
X-0101727Y0145616D02*
D03*
X-0099168Y0140498D02*
D03*
X-0101727Y013538D02*
D03*
X-0099168Y010979D02*
D03*
X-0101727Y0104672D02*
D03*
X-0099168Y0099554D02*
D03*
X-0101727Y-0007927D02*
D03*
X-0099168Y-0013045D02*
D03*
X-0101727Y-0018163D02*
D03*
X-0099168Y-0023281D02*
D03*
X-0101727Y-0028399D02*
D03*
X-0099168Y-0033517D02*
D03*
X-0101727Y-0038635D02*
D03*
X-0099168Y-0043754D02*
D03*
X-0101727Y-0048872D02*
D03*
X-0099168Y-005399D02*
D03*
X-0101727Y-0059108D02*
D03*
X-0099168Y-0064226D02*
D03*
Y-0084698D02*
D03*
Y-0094935D02*
D03*
Y-0125643D02*
D03*
X-0101727Y-0130761D02*
D03*
X-0099168Y-013588D02*
D03*
X-0101727Y-0151234D02*
D03*
X-0099168Y-0156352D02*
D03*
X-0106845Y0176325D02*
D03*
X-0104286Y0171207D02*
D03*
Y0160971D02*
D03*
X-0106845Y0155853D02*
D03*
X-0104286Y0150735D02*
D03*
X-0106845Y0145616D02*
D03*
X-0104286Y0140498D02*
D03*
Y010979D02*
D03*
Y0079081D02*
D03*
X-0106845Y0073963D02*
D03*
X-0104286Y0068845D02*
D03*
X-0106845Y0063727D02*
D03*
Y0053491D02*
D03*
X-0104286Y0048372D02*
D03*
X-0106845Y0043254D02*
D03*
Y-0007927D02*
D03*
X-0104286Y-0013045D02*
D03*
X-0106845Y-0018163D02*
D03*
X-0104286Y-0023281D02*
D03*
X-0106845Y-0028399D02*
D03*
X-0104286Y-0033517D02*
D03*
X-0106845Y-0038635D02*
D03*
X-0104286Y-0043754D02*
D03*
X-0106845Y-0048872D02*
D03*
X-0104286Y-005399D02*
D03*
X-0106845Y-0059108D02*
D03*
X-0104286Y-0064226D02*
D03*
X-0106845Y-0130761D02*
D03*
X-0104286Y-013588D02*
D03*
X-0111963Y0176325D02*
D03*
X-0109404Y0171207D02*
D03*
Y0160971D02*
D03*
X-0111963Y0155853D02*
D03*
X-0109404Y0150735D02*
D03*
X-0111963Y0145616D02*
D03*
Y013538D02*
D03*
X-0109404Y0079081D02*
D03*
Y0068845D02*
D03*
Y0058609D02*
D03*
Y0048372D02*
D03*
Y0038136D02*
D03*
Y00279D02*
D03*
Y0017664D02*
D03*
X-0111963Y0012546D02*
D03*
X-0109404Y-0013045D02*
D03*
X-0111963Y-0018163D02*
D03*
X-0109404Y-0023281D02*
D03*
X-0111963Y-0028399D02*
D03*
X-0109404Y-0033517D02*
D03*
X-0111963Y-0038635D02*
D03*
X-0109404Y-0043754D02*
D03*
X-0111963Y-0048872D02*
D03*
X-0109404Y-005399D02*
D03*
X-0111963Y-0059108D02*
D03*
X-0109404Y-0064226D02*
D03*
X-0111963Y-0130761D02*
D03*
X-0114522Y0171207D02*
D03*
Y0089317D02*
D03*
X-0117081Y-0120525D02*
D03*
X-0114522Y-0125643D02*
D03*
X-011964Y0171207D02*
D03*
X-0122199Y0002309D02*
D03*
Y-0018163D02*
D03*
Y-0028399D02*
D03*
Y-0038635D02*
D03*
Y-0048872D02*
D03*
Y-0059108D02*
D03*
Y-0069344D02*
D03*
Y-007958D02*
D03*
Y-0089816D02*
D03*
Y-0100053D02*
D03*
Y-0110289D02*
D03*
Y-0120525D02*
D03*
X-0127317Y0114908D02*
D03*
X-0124758Y010979D02*
D03*
X-0127317Y0094435D02*
D03*
Y0002309D02*
D03*
Y-0018163D02*
D03*
X-0124758Y-0023281D02*
D03*
X-0127317Y-0028399D02*
D03*
X-0124758Y-0033517D02*
D03*
X-0127317Y-0038635D02*
D03*
X-0124758Y-0043754D02*
D03*
X-0127317Y-0048872D02*
D03*
X-0124758Y-005399D02*
D03*
X-0127317Y-0059108D02*
D03*
X-0124758Y-0064226D02*
D03*
X-0127317Y-0069344D02*
D03*
X-0124758Y-0074462D02*
D03*
X-0127317Y-007958D02*
D03*
X-0124758Y-0084698D02*
D03*
X-0127317Y-0089816D02*
D03*
X-0124758Y-0094935D02*
D03*
X-0127317Y-0100053D02*
D03*
X-0124758Y-0105171D02*
D03*
X-0127317Y-0110289D02*
D03*
X-0124758Y-0115407D02*
D03*
X-0132435Y013538D02*
D03*
X-0129876Y0120026D02*
D03*
X-0132435Y0114908D02*
D03*
X-0129876Y010979D02*
D03*
X-0132435Y0094435D02*
D03*
Y0002309D02*
D03*
Y-0018163D02*
D03*
X-0129876Y-0023281D02*
D03*
X-0132435Y-0028399D02*
D03*
X-0129876Y-0033517D02*
D03*
X-0132435Y-0038635D02*
D03*
X-0129876Y-0043754D02*
D03*
X-0132435Y-0048872D02*
D03*
X-0129876Y-005399D02*
D03*
X-0132435Y-0059108D02*
D03*
X-0129876Y-0064226D02*
D03*
X-0132435Y-0069344D02*
D03*
X-0129876Y-0074462D02*
D03*
X-0132435Y-007958D02*
D03*
X-0129876Y-0084698D02*
D03*
X-0132435Y-0089816D02*
D03*
X-0134994Y0140498D02*
D03*
X-0137554Y013538D02*
D03*
X-0134994Y0130262D02*
D03*
X-0137554Y0125144D02*
D03*
Y0094435D02*
D03*
Y0002309D02*
D03*
Y-0018163D02*
D03*
X-0134994Y-0023281D02*
D03*
X-0137554Y-0028399D02*
D03*
X-0134994Y-0033517D02*
D03*
X-0137554Y-0038635D02*
D03*
X-0134994Y-0043754D02*
D03*
X-0137554Y-0048872D02*
D03*
X-0134994Y-005399D02*
D03*
X-0137554Y-0059108D02*
D03*
X-0134994Y-0064226D02*
D03*
X-0137554Y-0069344D02*
D03*
X-0134994Y-0074462D02*
D03*
X-0137554Y-007958D02*
D03*
X-0134994Y-0084698D02*
D03*
X-0142672Y0145616D02*
D03*
X-0140113Y0140498D02*
D03*
X-0142672Y013538D02*
D03*
X-0140113Y0130262D02*
D03*
X-0142672Y0125144D02*
D03*
X-0140113Y0120026D02*
D03*
X-0142672Y0114908D02*
D03*
Y0104672D02*
D03*
X-0140113Y-0002809D02*
D03*
X-0142672Y-0018163D02*
D03*
X-0140113Y-0023281D02*
D03*
X-0142672Y-0028399D02*
D03*
X-0140113Y-0033517D02*
D03*
X-0142672Y-0038635D02*
D03*
X-0140113Y-0043754D02*
D03*
X-0142672Y-0048872D02*
D03*
X-0140113Y-005399D02*
D03*
X-0142672Y-0059108D02*
D03*
X-0140113Y-0064226D02*
D03*
X-014779Y-0018163D02*
D03*
X-0145231Y-0023281D02*
D03*
X-014779Y-0028399D02*
D03*
X-0145231Y-0033517D02*
D03*
X-014779Y-0038635D02*
D03*
X-0145231Y-0043754D02*
D03*
X-014779Y-0048872D02*
D03*
X-0145231Y-005399D02*
D03*
X-014779Y-0059108D02*
D03*
X-0152908Y-0018163D02*
D03*
X-0150349Y-0023281D02*
D03*
X-0152908Y-0028399D02*
D03*
X-0150349Y-0033517D02*
D03*
X-0152908Y-0038635D02*
D03*
X-0150349Y-0043754D02*
D03*
X-0152908Y-0048872D02*
D03*
X-0150349Y-005399D02*
D03*
X-0152908Y-0059108D02*
D03*
X-0158026Y0002309D02*
D03*
X-0160585Y-0002809D02*
D03*
X-0163144Y-0007927D02*
D03*
X0073746Y0083706D02*
D03*
X005474Y0079831D02*
D03*
X0064086Y0083716D02*
D03*
X-0049013Y0084069D02*
D03*
X0077412Y-0091563D02*
D03*
X-0131275Y0159129D02*
D03*
X0078044Y0115066D02*
D03*
X0010408Y0177646D02*
D03*
X-0058306Y0074515D02*
D03*
X0087686Y-0119826D02*
D03*
X-0036613Y0171565D02*
D03*
X-0049638Y0067777D02*
D03*
X0063782Y0102406D02*
D03*
X0098839Y0102337D02*
D03*
X0037439Y0172512D02*
D03*
X-0118666Y0147463D02*
D03*
X0106012Y-0121008D02*
D03*
Y-0139039D02*
D03*
X007785Y-0111048D02*
D03*
Y-0102781D02*
D03*
X0064086Y0076236D02*
D03*
X0073746Y0076225D02*
D03*
X0070698Y0108132D02*
D03*
X0127503Y0158845D02*
D03*
X0042798Y0166934D02*
D03*
X-0041912Y0165705D02*
D03*
X-0048745Y0116609D02*
D03*
X-0058925Y0091835D02*
D03*
D72*
X-0029617Y0116216D02*
D03*
X-0048968Y0076845D02*
D03*
X-0036429Y0129688D02*
D03*
X-0139899Y0153212D02*
D03*
X0093199Y0142941D02*
D03*
X-0069466Y0106031D02*
D03*
X-0046309Y0030541D02*
D03*
X0051013Y0126543D02*
D03*
X0008242Y0036766D02*
D03*
D73*
X0024103Y-0006981D02*
D03*
D74*
X-0042057Y0165958D02*
D03*
X-003649Y0171526D02*
D03*
X0114538Y0160052D02*
D03*
X0120106Y0165619D02*
D03*
X01218Y0152878D02*
D03*
X0127368Y0158446D02*
D03*
D75*
X0037439Y0172512D02*
D03*
X0043007Y0166944D02*
D03*
X-0118401Y0160188D02*
D03*
X-0123969Y0165755D02*
D03*
X-0131283Y0158861D02*
D03*
X-0125715Y0153293D02*
D03*
D76*
X0080067Y-0130024D02*
D03*
D77*
X0106012Y-0139039D02*
D03*
Y-0130024D02*
D03*
D78*
Y-0121008D02*
D03*
M02*
