G04*
G04 #@! TF.GenerationSoftware,Altium Limited,Altium Designer,26.2.0 (7)*
G04*
G04 Layer_Color=255*
%FSTAX25Y25*%
%MOIN*%
G70*
G04*
G04 #@! TF.SameCoordinates,DDC7E0C6-02D7-4959-A8D0-6A7BEAAAFFDF*
G04*
G04*
G04 #@! TF.FilePolarity,Positive*
G04*
G01*
G75*
%ADD18R,0.05906X0.05512*%
%ADD19R,0.04724X0.05709*%
%ADD21R,0.05709X0.04724*%
%ADD23R,0.05512X0.05906*%
%ADD48C,0.06102*%
%ADD49R,0.06102X0.06102*%
%ADD54C,0.04756*%
%ADD55R,0.05937X0.05937*%
%ADD56C,0.05937*%
%ADD57O,0.05906X0.11811*%
%ADD58C,0.13780*%
%ADD59C,0.07874*%
%ADD60C,0.09449*%
%ADD61C,0.05150*%
%ADD62R,0.05150X0.05150*%
%ADD63R,0.07874X0.06299*%
%ADD64O,0.07874X0.06299*%
%ADD65R,0.04134X0.04134*%
%ADD66C,0.04134*%
%ADD67R,0.05937X0.05937*%
%ADD68P,0.08396X4X360.0*%
%ADD69P,0.08396X4X90.0*%
%ADD70O,0.06787X0.07575*%
G04:AMPARAMS|DCode=74|XSize=57.09mil|YSize=47.24mil|CornerRadius=0mil|HoleSize=0mil|Usage=FLASHONLY|Rotation=135.000|XOffset=0mil|YOffset=0mil|HoleType=Round|Shape=Rectangle|*
%AMROTATEDRECTD74*
4,1,4,0.03689,-0.00348,0.00348,-0.03689,-0.03689,0.00348,-0.00348,0.03689,0.03689,-0.00348,0.0*
%
%ADD74ROTATEDRECTD74*%

G04:AMPARAMS|DCode=75|XSize=57.09mil|YSize=47.24mil|CornerRadius=0mil|HoleSize=0mil|Usage=FLASHONLY|Rotation=45.000|XOffset=0mil|YOffset=0mil|HoleType=Round|Shape=Rectangle|*
%AMROTATEDRECTD75*
4,1,4,-0.00348,-0.03689,-0.03689,-0.00348,0.00348,0.03689,0.03689,0.00348,-0.00348,-0.03689,0.0*
%
%ADD75ROTATEDRECTD75*%

G04:AMPARAMS|DCode=76|XSize=39.54mil|YSize=125.28mil|CornerRadius=17.2mil|HoleSize=0mil|Usage=FLASHONLY|Rotation=180.000|XOffset=0mil|YOffset=0mil|HoleType=Round|Shape=RoundedRectangle|*
%AMROUNDEDRECTD76*
21,1,0.03954,0.09088,0,0,180.0*
21,1,0.00514,0.12528,0,0,180.0*
1,1,0.03440,-0.00257,0.04544*
1,1,0.03440,0.00257,0.04544*
1,1,0.03440,0.00257,-0.04544*
1,1,0.03440,-0.00257,-0.04544*
%
%ADD76ROUNDEDRECTD76*%
G04:AMPARAMS|DCode=77|XSize=39.54mil|YSize=34.34mil|CornerRadius=17.17mil|HoleSize=0mil|Usage=FLASHONLY|Rotation=180.000|XOffset=0mil|YOffset=0mil|HoleType=Round|Shape=RoundedRectangle|*
%AMROUNDEDRECTD77*
21,1,0.03954,0.00000,0,0,180.0*
21,1,0.00520,0.03434,0,0,180.0*
1,1,0.03434,-0.00260,0.00000*
1,1,0.03434,0.00260,0.00000*
1,1,0.03434,0.00260,0.00000*
1,1,0.03434,-0.00260,0.00000*
%
%ADD77ROUNDEDRECTD77*%
%ADD78R,0.03954X0.03434*%
D18*
X-0059055Y009154D02*
D03*
Y008406D02*
D03*
X0101168Y-0093997D02*
D03*
Y-0086516D02*
D03*
X-0048968Y0084325D02*
D03*
Y0076845D02*
D03*
X0063994Y0076246D02*
D03*
Y0083726D02*
D03*
X0073782Y0083724D02*
D03*
Y0076243D02*
D03*
D19*
X-003168Y0067844D02*
D03*
X-0039554D02*
D03*
X-0048812Y0116542D02*
D03*
X-0056686D02*
D03*
X-0058298Y0074571D02*
D03*
X-0066172D02*
D03*
X0069615Y-011138D02*
D03*
X0077489D02*
D03*
D21*
X0070698Y0108132D02*
D03*
Y0116006D02*
D03*
X0060857Y0108163D02*
D03*
Y0116037D02*
D03*
X0101173Y-0110943D02*
D03*
Y-0103069D02*
D03*
D23*
X0077412Y-0091563D02*
D03*
X0069932D02*
D03*
X0077445Y-0101585D02*
D03*
X0069964D02*
D03*
D48*
X0064258Y-0132998D02*
D03*
D49*
X0054416D02*
D03*
D54*
X0053815Y-0109062D02*
D03*
Y-0103156D02*
D03*
Y-0097251D02*
D03*
Y-0091345D02*
D03*
Y-008544D02*
D03*
Y-0079534D02*
D03*
X-0069772Y-0112342D02*
D03*
Y-0106436D02*
D03*
Y-0100531D02*
D03*
Y-0094625D02*
D03*
Y-008872D02*
D03*
Y-0082814D02*
D03*
D55*
X0089675Y0058864D02*
D03*
D56*
X0079675D02*
D03*
X0069675D02*
D03*
X0059675D02*
D03*
X0049675D02*
D03*
X0039675D02*
D03*
X0029675D02*
D03*
X0019675D02*
D03*
X0009675D02*
D03*
X-0000325D02*
D03*
X-0010325D02*
D03*
X-0020325D02*
D03*
X-0030325D02*
D03*
X-0040325D02*
D03*
X-0050325D02*
D03*
X-0060325D02*
D03*
X-0070325D02*
D03*
X-0080325D02*
D03*
X-0090325D02*
D03*
X-0100325D02*
D03*
Y-0001136D02*
D03*
X-0090325D02*
D03*
X-0080325D02*
D03*
X-0070325D02*
D03*
X-0060325D02*
D03*
X-0050325D02*
D03*
X-0040325D02*
D03*
X-0030325D02*
D03*
X-0020325D02*
D03*
X-0010325D02*
D03*
X-0000325D02*
D03*
X0009675D02*
D03*
X0019675D02*
D03*
X0029675D02*
D03*
X0039675D02*
D03*
X0049675D02*
D03*
X0059675D02*
D03*
X0069675D02*
D03*
X0079675D02*
D03*
X0089675D02*
D03*
X0124062Y0105219D02*
D03*
X0010497Y0166232D02*
D03*
X-0017055Y0157136D02*
D03*
X-0136803Y0103561D02*
D03*
D57*
X0013353Y-0070485D02*
D03*
X0003353D02*
D03*
X-0006647D02*
D03*
X-0016647D02*
D03*
X-0026647D02*
D03*
X-0036647D02*
D03*
X0023353D02*
D03*
X0033353D02*
D03*
D58*
X-0032521Y-0025954D02*
D03*
X0029479D02*
D03*
X0014171Y0135293D02*
D03*
X-0014243Y0135217D02*
D03*
D59*
X-0102204Y0119367D02*
D03*
X-0112204D02*
D03*
X-0034131Y015192D02*
D03*
X-0041203Y0144849D02*
D03*
X0042239Y0143075D02*
D03*
X0035168Y0150146D02*
D03*
X0098884Y0119061D02*
D03*
X0108884D02*
D03*
D60*
X-0032087Y0092645D02*
D03*
X0031037Y0092837D02*
D03*
X0144329Y-0000878D02*
D03*
X-0148834Y-0000877D02*
D03*
X-0148835Y-0072574D02*
D03*
X0144331Y-0072575D02*
D03*
D61*
X0091714Y-0104676D02*
D03*
Y-0094833D02*
D03*
Y-0084991D02*
D03*
X0112974D02*
D03*
Y-0094833D02*
D03*
D62*
Y-0104676D02*
D03*
D63*
X-0106151Y-0121207D02*
D03*
D64*
Y-0111207D02*
D03*
Y-0101207D02*
D03*
Y-0091207D02*
D03*
Y-0081207D02*
D03*
Y-0071207D02*
D03*
D65*
X-0078645Y0094063D02*
D03*
X0044447Y0102244D02*
D03*
X-005873Y0101959D02*
D03*
X0063782Y009421D02*
D03*
D66*
X-0073645Y0094063D02*
D03*
X-0068645D02*
D03*
X0054447Y0102244D02*
D03*
X0049447D02*
D03*
X-004873Y0101959D02*
D03*
X-005373D02*
D03*
X0073782Y009421D02*
D03*
X0068782D02*
D03*
D67*
X0134062Y0105219D02*
D03*
X-0126803Y0103561D02*
D03*
D68*
X0017568Y0159161D02*
D03*
D69*
X-0009984Y0164207D02*
D03*
D70*
X0035521Y-0153802D02*
D03*
X0025521D02*
D03*
X0015521D02*
D03*
X0005521D02*
D03*
X-0004479D02*
D03*
X-0014479D02*
D03*
X-0024479D02*
D03*
X-0034979D02*
D03*
X0035521Y-0093408D02*
D03*
X0025521D02*
D03*
X0015521D02*
D03*
X0005521D02*
D03*
X-0004479D02*
D03*
X-0014479D02*
D03*
X-0024479D02*
D03*
X-0034479D02*
D03*
D74*
X-0042057Y0165958D02*
D03*
X-003649Y0171526D02*
D03*
X0114538Y0160052D02*
D03*
X0120106Y0165619D02*
D03*
X01218Y0152878D02*
D03*
X0127368Y0158446D02*
D03*
D75*
X0037439Y0172512D02*
D03*
X0043007Y0166944D02*
D03*
X-0118401Y0160188D02*
D03*
X-0123969Y0165755D02*
D03*
X-0131283Y0158861D02*
D03*
X-0125715Y0153293D02*
D03*
D76*
X0080067Y-0130024D02*
D03*
D77*
X0106012Y-0139039D02*
D03*
Y-0130024D02*
D03*
D78*
Y-0121008D02*
D03*
M02*
