G04*
G04 #@! TF.GenerationSoftware,Altium Limited,Altium Designer,26.2.0 (7)*
G04*
G04 Layer_Color=16711935*
%FSTAX25Y25*%
%MOIN*%
G70*
G04*
G04 #@! TF.SameCoordinates,DDC7E0C6-02D7-4959-A8D0-6A7BEAAAFFDF*
G04*
G04*
G04 #@! TF.FilePolarity,Positive*
G04*
G01*
G75*
%ADD10C,0.00787*%
%ADD12C,0.00500*%
%ADD15C,0.00394*%
D10*
X0090069Y0076108D02*
G03*
X0090069Y0076108I-0000394J0D01*
G01*
X-0092624Y0119288D02*
G03*
X-0092624Y0119288I-0000564J0D01*
G01*
X0113367Y-0115306D02*
G03*
X0113367Y-0115306I-0000394J0D01*
G01*
X-0027137Y015824D02*
G03*
X-0027137Y015824I-0000564J0D01*
G01*
X0049122Y0136644D02*
G03*
X0049122Y0136644I-0000564J0D01*
G01*
X0118463Y0118982D02*
G03*
X0118463Y0118982I-0000564J0D01*
G01*
D12*
X-011644Y0112377D02*
G03*
X-011644Y0126356I0009275J000699D01*
G01*
X0102344Y-0112944D02*
G03*
X0103525Y-0111763I0J0001181D01*
G01*
X0101163D02*
G03*
X0102344Y-0112944I0001181J0D01*
G01*
X-0039255Y0136911D02*
G03*
X-004914Y0146796I0001616J0011501D01*
G01*
X002723Y0148199D02*
G03*
X0037115Y0158084I0011501J-0001616D01*
G01*
X0094648Y0112072D02*
G03*
X0094648Y0126051I0009275J000699D01*
G01*
X0108139Y-0016136D02*
Y0073864D01*
X0099675Y-0016136D02*
X0108139D01*
X-0110325D02*
X0099675D01*
X-0110325D02*
Y0073864D01*
X0099675D01*
X0108139D01*
X0099675Y-0016136D02*
Y0073864D01*
X-0116456Y0112398D02*
Y0126335D01*
X0103525Y-0111763D02*
X0119076D01*
X0085611D02*
X0101163D01*
X0085611D02*
Y-0078298D01*
X0119076D01*
Y-0111763D02*
Y-0078298D01*
X-0049136Y014677D02*
X-0039282Y0136915D01*
X0027234Y0148225D02*
X0037089Y015808D01*
X0094632Y0112092D02*
Y012603D01*
D15*
X-0066031Y0088806D02*
G03*
X-0081258Y0088805I-0007614J0005257D01*
G01*
X005706Y0096988D02*
G03*
X0041834Y0096986I-0007614J0005257D01*
G01*
X-0046117Y0096702D02*
G03*
X-0061343Y0096701I-0007614J0005257D01*
G01*
X0076396Y0088954D02*
G03*
X0061169Y0088952I-0007614J0005257D01*
G01*
X0071088Y0084099D02*
X0076403D01*
X0071088Y0075832D02*
X0076403D01*
Y0084099D01*
X0071088Y0075832D02*
Y0084099D01*
X0061428Y0075842D02*
Y008411D01*
X0066743Y0075842D02*
Y008411D01*
X0061428Y0075842D02*
X0066743D01*
X0061428Y008411D02*
X0066743D01*
X0054694Y007726D02*
Y0082575D01*
X0046426Y007726D02*
Y0082575D01*
Y007726D02*
X0054694D01*
X0046426Y0082575D02*
X0054694D01*
X0075389Y-0110852D02*
Y-0102978D01*
Y-0110852D02*
Y-0107899D01*
Y-0110852D02*
X008031D01*
Y-0102978D01*
X0075389D02*
X008031D01*
X-0041617Y0067208D02*
Y0075476D01*
X-0036302Y0067208D02*
Y0075476D01*
X-0041617Y0067208D02*
X-0036302D01*
X-0041617Y0075476D02*
X-0036302D01*
X-0061583Y0083764D02*
Y0092032D01*
X-0056268Y0083764D02*
Y0092032D01*
X-0061583Y0083764D02*
X-0056268D01*
X-0061583Y0092032D02*
X-0056268D01*
X0041197Y0168813D02*
X0046765Y0174381D01*
X0041197Y0168813D02*
X0043285Y0170901D01*
X0041197Y0168813D02*
X0044677Y0165333D01*
X0050245Y0170901D01*
X0046765Y0174381D02*
X0050245Y0170901D01*
X-0081258Y0088807D02*
X-0066032D01*
X-0046356Y0083872D02*
Y009214D01*
X-0051671Y0083872D02*
Y009214D01*
X-0046356D01*
X-0051671Y0083872D02*
X-0046356D01*
X-0032238Y0124222D02*
X-0026923D01*
X-0032238Y0115954D02*
X-0026923D01*
Y0124222D01*
X-0032238Y0115954D02*
Y0124222D01*
X0097379Y-0142259D02*
X0105647D01*
X0097379Y-0136944D02*
X0105647D01*
Y-0142259D02*
Y-0136944D01*
X0097379Y-0142259D02*
Y-0136944D01*
X0041834Y0096988D02*
X005706D01*
X-0061713Y0091934D02*
X-0056398D01*
X-0061713Y0083666D02*
X-0056398D01*
X-0061713D02*
Y0091934D01*
X-0056398Y0083666D02*
Y0091934D01*
X-0127308Y0151682D02*
X-0123828Y0155162D01*
X-0132876Y015725D02*
X-0127308Y0151682D01*
X-0132876Y015725D02*
X-0129396Y016073D01*
X-0127308Y0158642D01*
X-0129396Y016073D02*
X-0123828Y0155162D01*
X0046659Y0092472D02*
X0054927D01*
X0046659Y0087157D02*
X0054927D01*
X0046659D02*
Y0092472D01*
X0054927Y0087157D02*
Y0092472D01*
X-0049359Y0169672D02*
X-0045879Y0173152D01*
X-0040311Y0167584D01*
X-0043791Y0164104D02*
X-0040311Y0167584D01*
X-0045879Y0166192D02*
X-0043791Y0164104D01*
X-0049359Y0169672D02*
X-0043791Y0164104D01*
X-0040318Y0163939D02*
X-0034471Y0169786D01*
X-0044076Y0167698D02*
X-003823Y0173544D01*
X-0044076Y0167698D02*
X-0040318Y0163939D01*
X-003823Y0173544D02*
X-0034471Y0169786D01*
X0063202Y0111452D02*
X0071469D01*
X0063202Y0106137D02*
X0071469D01*
X0063202D02*
Y0111452D01*
X0071469Y0106137D02*
Y0111452D01*
X0035421Y0170772D02*
X0041267Y0164926D01*
X0039179Y017453D02*
X0045025Y0168684D01*
X0035421Y0170772D02*
X0039179Y017453D01*
X0041267Y0164926D02*
X0045025Y0168684D01*
X-0039751Y0070502D02*
X-0031483D01*
X-0039751Y0065187D02*
X-0031483D01*
Y0070502D01*
X-0039751Y0065187D02*
Y0070502D01*
X0103825Y-0094391D02*
Y-0086123D01*
X009851Y-0094391D02*
Y-0086123D01*
Y-0094391D02*
X0103825D01*
X009851Y-0086123D02*
X0103825D01*
X0097476Y-0117774D02*
X0105744D01*
X0097476Y-0123089D02*
X0105744D01*
X0097476D02*
Y-0117774D01*
X0105744Y-0123089D02*
Y-0117774D01*
X0085028Y-0127896D02*
X0090343D01*
X0085028Y-0119629D02*
X0090343D01*
X0085028Y-0127896D02*
Y-0119629D01*
X0090343Y-0127896D02*
Y-0119629D01*
X-0048548Y0113952D02*
Y0119267D01*
X-0056816Y0113952D02*
Y0119267D01*
Y0113952D02*
X-0048548D01*
X-0056816Y0119267D02*
X-0048548D01*
X011252Y0161792D02*
X0116278Y0158033D01*
X0118366Y0167638D02*
X0122124Y0163879D01*
X0116278Y0158033D02*
X0122124Y0163879D01*
X011252Y0161792D02*
X0118366Y0167638D01*
X-0120141Y0158169D02*
X-0116383Y0161928D01*
X-0125987Y0164016D02*
X-0122229Y0167774D01*
X-0116383Y0161928D01*
X-0125987Y0164016D02*
X-0120141Y0158169D01*
X0069909Y0112758D02*
Y0118073D01*
X0078176Y0112758D02*
Y0118073D01*
X0069909D02*
X0078176D01*
X0069909Y0112758D02*
X0078176D01*
X006804Y0107935D02*
X0073355D01*
X006804Y0116203D02*
X0073355D01*
Y0107935D02*
Y0116203D01*
X006804Y0107935D02*
Y0116203D01*
X0058199Y0107966D02*
X0063514D01*
X0058199Y0116234D02*
X0063514D01*
Y0107966D02*
Y0116234D01*
X0058199Y0107966D02*
Y0116234D01*
X0053465Y0114387D02*
Y0119702D01*
X0061733Y0114387D02*
Y0119702D01*
X0053465D02*
X0061733D01*
X0053465Y0114387D02*
X0061733D01*
X-0048615Y0113885D02*
Y01192D01*
X-0056883Y0113885D02*
Y01192D01*
X-0048615D01*
X-0056883Y0113885D02*
X-0048615D01*
X-0058101Y0071913D02*
Y0077228D01*
X-0066369Y0071913D02*
Y0077228D01*
X-0058101D01*
X-0066369Y0071913D02*
X-0058101D01*
X-0061343Y0096703D02*
X-0046117D01*
X-0051626Y0084719D02*
X-0046311D01*
X-0051626Y0076451D02*
X-0046311D01*
X-0051626D02*
Y0084719D01*
X-0046311Y0076451D02*
Y0084719D01*
X-0133301Y0157121D02*
X-0129543Y0160879D01*
X-0127455Y0151275D02*
X-0123697Y0155033D01*
X-0133301Y0157121D02*
X-0127455Y0151275D01*
X-0129543Y0160879D02*
X-0123697Y0155033D01*
X0061169Y0088954D02*
X0076395D01*
X0123214Y0151669D02*
X0128782Y0157237D01*
X0126694Y0155149D02*
X0128782Y0157237D01*
X0125302Y0160717D02*
X0128782Y0157237D01*
X0119734Y0155149D02*
X0125302Y0160717D01*
X0119734Y0155149D02*
X0123214Y0151669D01*
X0066652Y0075852D02*
Y008412D01*
X0061337Y0075852D02*
Y008412D01*
Y0075852D02*
X0066652D01*
X0061337Y008412D02*
X0066652D01*
X012354Y015086D02*
X0129386Y0156706D01*
X0119782Y0154618D02*
X0125628Y0160464D01*
X0119782Y0154618D02*
X012354Y015086D01*
X0125628Y0160464D02*
X0129386Y0156706D01*
X0069419Y-0114037D02*
X0077686D01*
X0069419Y-0108722D02*
X0077686D01*
X0069419Y-0114037D02*
Y-0108722D01*
X0077686Y-0114037D02*
Y-0108722D01*
X0077806Y-0094221D02*
Y-0088906D01*
X0069538Y-0094221D02*
Y-0088906D01*
X0077806D01*
X0069538Y-0094221D02*
X0077806D01*
X0077839Y-0104242D02*
Y-0098927D01*
X0069571Y-0104242D02*
Y-0098927D01*
X0077839D01*
X0069571Y-0104242D02*
X0077839D01*
X0103831Y-011114D02*
Y-0102872D01*
X0098516Y-011114D02*
Y-0102872D01*
Y-011114D02*
X0103831D01*
X0098516Y-0102872D02*
X0103831D01*
X0071124Y0084117D02*
X0076439D01*
X0071124Y007585D02*
X0076439D01*
X0071124D02*
Y0084117D01*
X0076439Y007585D02*
Y0084117D01*
X-0042177Y0115797D02*
Y0124065D01*
X-0036862Y0115797D02*
Y0124065D01*
X-0042177Y0115797D02*
X-0036862D01*
X-0042177Y0124065D02*
X-0036862D01*
M02*
