G04*
G04 #@! TF.GenerationSoftware,Altium Limited,Altium Designer,26.2.0 (7)*
G04*
G04 Layer_Color=128*
%FSTAX25Y25*%
%MOIN*%
G70*
G04*
G04 #@! TF.SameCoordinates,DDC7E0C6-02D7-4959-A8D0-6A7BEAAAFFDF*
G04*
G04*
G04 #@! TF.FilePolarity,Positive*
G04*
G01*
G75*
%ADD18R,0.05906X0.05512*%
%ADD19R,0.04724X0.05709*%
%ADD21R,0.05709X0.04724*%
%ADD23R,0.05512X0.05906*%
G04:AMPARAMS|DCode=74|XSize=57.09mil|YSize=47.24mil|CornerRadius=0mil|HoleSize=0mil|Usage=FLASHONLY|Rotation=135.000|XOffset=0mil|YOffset=0mil|HoleType=Round|Shape=Rectangle|*
%AMROTATEDRECTD74*
4,1,4,0.03689,-0.00348,0.00348,-0.03689,-0.03689,0.00348,-0.00348,0.03689,0.03689,-0.00348,0.0*
%
%ADD74ROTATEDRECTD74*%

G04:AMPARAMS|DCode=75|XSize=57.09mil|YSize=47.24mil|CornerRadius=0mil|HoleSize=0mil|Usage=FLASHONLY|Rotation=45.000|XOffset=0mil|YOffset=0mil|HoleType=Round|Shape=Rectangle|*
%AMROTATEDRECTD75*
4,1,4,-0.00348,-0.03689,-0.03689,-0.00348,0.00348,0.03689,0.03689,0.00348,-0.00348,-0.03689,0.0*
%
%ADD75ROTATEDRECTD75*%

G04:AMPARAMS|DCode=76|XSize=39.54mil|YSize=125.28mil|CornerRadius=17.2mil|HoleSize=0mil|Usage=FLASHONLY|Rotation=180.000|XOffset=0mil|YOffset=0mil|HoleType=Round|Shape=RoundedRectangle|*
%AMROUNDEDRECTD76*
21,1,0.03954,0.09088,0,0,180.0*
21,1,0.00514,0.12528,0,0,180.0*
1,1,0.03440,-0.00257,0.04544*
1,1,0.03440,0.00257,0.04544*
1,1,0.03440,0.00257,-0.04544*
1,1,0.03440,-0.00257,-0.04544*
%
%ADD76ROUNDEDRECTD76*%
G04:AMPARAMS|DCode=77|XSize=39.54mil|YSize=34.34mil|CornerRadius=17.17mil|HoleSize=0mil|Usage=FLASHONLY|Rotation=180.000|XOffset=0mil|YOffset=0mil|HoleType=Round|Shape=RoundedRectangle|*
%AMROUNDEDRECTD77*
21,1,0.03954,0.00000,0,0,180.0*
21,1,0.00520,0.03434,0,0,180.0*
1,1,0.03434,-0.00260,0.00000*
1,1,0.03434,0.00260,0.00000*
1,1,0.03434,0.00260,0.00000*
1,1,0.03434,-0.00260,0.00000*
%
%ADD77ROUNDEDRECTD77*%
%ADD78R,0.03954X0.03434*%
D18*
X-0059055Y009154D02*
D03*
Y008406D02*
D03*
X0101168Y-0093997D02*
D03*
Y-0086516D02*
D03*
X-0048968Y0084325D02*
D03*
Y0076845D02*
D03*
X0063994Y0076246D02*
D03*
Y0083726D02*
D03*
X0073782Y0083724D02*
D03*
Y0076243D02*
D03*
D19*
X-003168Y0067844D02*
D03*
X-0039554D02*
D03*
X-0048812Y0116542D02*
D03*
X-0056686D02*
D03*
X-0058298Y0074571D02*
D03*
X-0066172D02*
D03*
X0069615Y-011138D02*
D03*
X0077489D02*
D03*
D21*
X0070698Y0108132D02*
D03*
Y0116006D02*
D03*
X0060857Y0108163D02*
D03*
Y0116037D02*
D03*
X0101173Y-0110943D02*
D03*
Y-0103069D02*
D03*
D23*
X0077412Y-0091563D02*
D03*
X0069932D02*
D03*
X0077445Y-0101585D02*
D03*
X0069964D02*
D03*
D74*
X-0042057Y0165958D02*
D03*
X-003649Y0171526D02*
D03*
X0114538Y0160052D02*
D03*
X0120106Y0165619D02*
D03*
X01218Y0152878D02*
D03*
X0127368Y0158446D02*
D03*
D75*
X0037439Y0172512D02*
D03*
X0043007Y0166944D02*
D03*
X-0118401Y0160188D02*
D03*
X-0123969Y0165755D02*
D03*
X-0131283Y0158861D02*
D03*
X-0125715Y0153293D02*
D03*
D76*
X0080067Y-0130024D02*
D03*
D77*
X0106012Y-0139039D02*
D03*
Y-0130024D02*
D03*
D78*
Y-0121008D02*
D03*
M02*
