G04*
G04 #@! TF.GenerationSoftware,Altium Limited,Altium Designer,26.2.0 (7)*
G04*
G04 Layer_Color=255*
%FSTAX25Y25*%
%MOIN*%
G70*
G04*
G04 #@! TF.SameCoordinates,DDC7E0C6-02D7-4959-A8D0-6A7BEAAAFFDF*
G04*
G04*
G04 #@! TF.FilePolarity,Positive*
G04*
G01*
G75*
%ADD18R,0.05906X0.05512*%
%ADD19R,0.04724X0.05709*%
%ADD20R,0.04724X0.04724*%
%ADD21R,0.05709X0.04724*%
%ADD22P,0.06681X4X90.0*%
%ADD23R,0.05512X0.05906*%
%ADD24P,0.06681X4X360.0*%
%ADD48C,0.06102*%
%ADD49R,0.06102X0.06102*%
%ADD54C,0.04756*%
%ADD55R,0.05937X0.05937*%
%ADD56C,0.05937*%
%ADD57O,0.05906X0.11811*%
%ADD58C,0.13780*%
%ADD59C,0.07874*%
%ADD60C,0.09449*%
%ADD61C,0.05150*%
%ADD62R,0.05150X0.05150*%
%ADD63R,0.07874X0.06299*%
%ADD64O,0.07874X0.06299*%
%ADD65R,0.04134X0.04134*%
%ADD66C,0.04134*%
%ADD67R,0.05937X0.05937*%
%ADD68P,0.08396X4X360.0*%
%ADD69P,0.08396X4X90.0*%
%ADD70O,0.06787X0.07575*%
D18*
X0073746Y0083706D02*
D03*
Y0076225D02*
D03*
X0064086Y0076236D02*
D03*
Y0083716D02*
D03*
X-0038959Y0067602D02*
D03*
Y0075082D02*
D03*
X-0029581Y0123828D02*
D03*
Y0116348D02*
D03*
D19*
X0054497Y0079917D02*
D03*
X0046623D02*
D03*
X0046856Y0089814D02*
D03*
X005473D02*
D03*
X0063398Y0108795D02*
D03*
X0071272D02*
D03*
X-0048745Y0116609D02*
D03*
X-0056619D02*
D03*
X0070105Y0115416D02*
D03*
X0077979D02*
D03*
X0053662Y0117044D02*
D03*
X0061536D02*
D03*
D20*
X007785Y-0111048D02*
D03*
Y-0102781D02*
D03*
D21*
X-0058925Y0083961D02*
D03*
Y0091835D02*
D03*
X-0049013Y0091943D02*
D03*
Y0084069D02*
D03*
X0087686Y-01277D02*
D03*
Y-0119826D02*
D03*
X-003952Y0115994D02*
D03*
Y0123868D02*
D03*
D22*
X0042798Y0166934D02*
D03*
X0048644Y017278D02*
D03*
X0127181Y0159116D02*
D03*
X0121335Y015327D02*
D03*
D23*
X0105253Y-0139602D02*
D03*
X0097773D02*
D03*
X009787Y-0120431D02*
D03*
X010535D02*
D03*
D24*
X-0125429Y0153283D02*
D03*
X-0131275Y0159129D02*
D03*
X-0047758Y0171551D02*
D03*
X-0041912Y0165705D02*
D03*
D48*
X0064258Y-0132998D02*
D03*
D49*
X0054416D02*
D03*
D54*
X0053815Y-0109062D02*
D03*
Y-0103156D02*
D03*
Y-0097251D02*
D03*
Y-0091345D02*
D03*
Y-008544D02*
D03*
Y-0079534D02*
D03*
X-0069772Y-0112342D02*
D03*
Y-0106436D02*
D03*
Y-0100531D02*
D03*
Y-0094625D02*
D03*
Y-008872D02*
D03*
Y-0082814D02*
D03*
D55*
X0089675Y0058864D02*
D03*
D56*
X0079675D02*
D03*
X0069675D02*
D03*
X0059675D02*
D03*
X0049675D02*
D03*
X0039675D02*
D03*
X0029675D02*
D03*
X0019675D02*
D03*
X0009675D02*
D03*
X-0000325D02*
D03*
X-0010325D02*
D03*
X-0020325D02*
D03*
X-0030325D02*
D03*
X-0040325D02*
D03*
X-0050325D02*
D03*
X-0060325D02*
D03*
X-0070325D02*
D03*
X-0080325D02*
D03*
X-0090325D02*
D03*
X-0100325D02*
D03*
Y-0001136D02*
D03*
X-0090325D02*
D03*
X-0080325D02*
D03*
X-0070325D02*
D03*
X-0060325D02*
D03*
X-0050325D02*
D03*
X-0040325D02*
D03*
X-0030325D02*
D03*
X-0020325D02*
D03*
X-0010325D02*
D03*
X-0000325D02*
D03*
X0009675D02*
D03*
X0019675D02*
D03*
X0029675D02*
D03*
X0039675D02*
D03*
X0049675D02*
D03*
X0059675D02*
D03*
X0069675D02*
D03*
X0079675D02*
D03*
X0089675D02*
D03*
X0124062Y0105219D02*
D03*
X0010497Y0166232D02*
D03*
X-0017055Y0157136D02*
D03*
X-0136803Y0103561D02*
D03*
D57*
X0013353Y-0070485D02*
D03*
X0003353D02*
D03*
X-0006647D02*
D03*
X-0016647D02*
D03*
X-0026647D02*
D03*
X-0036647D02*
D03*
X0023353D02*
D03*
X0033353D02*
D03*
D58*
X-0032521Y-0025954D02*
D03*
X0029479D02*
D03*
X0014171Y0135293D02*
D03*
X-0014243Y0135217D02*
D03*
D59*
X-0102204Y0119367D02*
D03*
X-0112204D02*
D03*
X-0034131Y015192D02*
D03*
X-0041203Y0144849D02*
D03*
X0042239Y0143075D02*
D03*
X0035168Y0150146D02*
D03*
X0098884Y0119061D02*
D03*
X0108884D02*
D03*
D60*
X-0032087Y0092645D02*
D03*
X0031037Y0092837D02*
D03*
X0144329Y-0000878D02*
D03*
X-0148834Y-0000877D02*
D03*
X-0148835Y-0072574D02*
D03*
X0144331Y-0072575D02*
D03*
D61*
X0091714Y-0104676D02*
D03*
Y-0094833D02*
D03*
Y-0084991D02*
D03*
X0112974D02*
D03*
Y-0094833D02*
D03*
D62*
Y-0104676D02*
D03*
D63*
X-0106151Y-0121207D02*
D03*
D64*
Y-0111207D02*
D03*
Y-0101207D02*
D03*
Y-0091207D02*
D03*
Y-0081207D02*
D03*
Y-0071207D02*
D03*
D65*
X-0078645Y0094063D02*
D03*
X0044447Y0102244D02*
D03*
X-005873Y0101959D02*
D03*
X0063782Y009421D02*
D03*
D66*
X-0073645Y0094063D02*
D03*
X-0068645D02*
D03*
X0054447Y0102244D02*
D03*
X0049447D02*
D03*
X-004873Y0101959D02*
D03*
X-005373D02*
D03*
X0073782Y009421D02*
D03*
X0068782D02*
D03*
D67*
X0134062Y0105219D02*
D03*
X-0126803Y0103561D02*
D03*
D68*
X0017568Y0159161D02*
D03*
D69*
X-0009984Y0164207D02*
D03*
D70*
X0035521Y-0153802D02*
D03*
X0025521D02*
D03*
X0015521D02*
D03*
X0005521D02*
D03*
X-0004479D02*
D03*
X-0014479D02*
D03*
X-0024479D02*
D03*
X-0034979D02*
D03*
X0035521Y-0093408D02*
D03*
X0025521D02*
D03*
X0015521D02*
D03*
X0005521D02*
D03*
X-0004479D02*
D03*
X-0014479D02*
D03*
X-0024479D02*
D03*
X-0034479D02*
D03*
M02*
