M48
;Layer_Color=9474304
;FILE_FORMAT=2:4
INCH,LZ
;TYPE=PLATED
T01F00S00C0.0118
T02F00S00C0.0276
T03F00S00C0.0315
T04F00S00C0.0394
T05F00S00C0.0433
T06F00S00C0.0511
T07F00S00C0.0866
T08F00S00C0.1260
T09F00S00C0.1299
%
T01
X044272Y013307
X044783
X045295
X045807
X046319
X046831
X046575Y013819
X046063
X045551
X045039
X044528
X044016
X044272Y015354
X04376
X045807
X046319
X046831
X046575Y012795
X046063
X045551
X045039
X047087
X047598
X04811
X048622
X049134
X049646
X050157
X050669
X051181
X051693
X052205
X052717
X053228
X05374
X054252
X054764
X055276
X055787
X056299
X056811
X057323
X057835
X058346
X058858
X05937
X059882
X060394
X060906
X061417
X061929
X062441
X062185Y014331
X061673
X061161
X06065
X060138
X059626
X059114
X058602
X058091
X057579
X056811Y014843
X056299
X055787
X056043Y014331
X055531
X056555Y015354
X057067
X053996
X053484
X052972
X052461
X052205Y014843
X052717
X053228
X052972Y014331
X051181Y014843
X050157
X049646
X049134
X048622
X048878Y014331
X04939
X049902
X050413
X049646Y013819
X049134
X048622
X04811
X047598
X047087
X047343Y013307
X047854
X048366
X048878
X04939
X049902
Y015354
X04939
X048366Y014331
X047343Y015354
X061929Y014843
X062441
X062953
X063209Y015354
X062697
Y014331
X063209
X06372
X06479Y015038
X062953Y012795
X062957Y01696
X062953Y017913
X062697Y018425
X062953Y018937
X062697Y019449
X062953Y019961
X062697Y020472
X062953Y020984
X063465
X063976
X064488
X064232Y021496
X06372
X063209
X062697
X062953Y022008
X063465
X063976
X064488
X064232Y02252
X06372
X063209
X062697
X062953Y023031
X063465
X063976
X064488
X064232Y023543
X06372
X063209
X062697
X062953Y024055
X063465
X063976
X064488
X065512
X066024
X066535
X067047
X067559
X068071
X068583
X069094
X069606
X070118
X069862Y024567
X06935
X068839
X068327
X067815
X067303
X066791
X06628
X065768
X065256
X065Y025079
X065512
X066024
X066535
X067047
X067559
X068071
X068583
X069094
X069606
X070118
X069862Y025591
X06935
X068839
X068327
X067815
X067303
X066791
X06628
X065768
X065256
X064744
X064232
X063976Y026102
X064488
X065
X065512
X066024
X066535
X067047
X067559
X068071
X068583
X069094
X069606
X070118
X069862Y026614
X06935
X068839
X068327
X067815
X067303
X066791
X06628
X065768
X065256
X064744
X064232
X06372
X063209
X062953Y027126
X063465
X063976
X064488
X065
X065512
X066024
X066535
X067047
X067559
X068071
X068583
X069094
X069606
X070118
X069862Y027638
X06935
X068839
X068327
X067815
X067303
X066791
X06628
X065768
X065256
X064744
X064232
X06372
X063209
X062697
X062953Y02815
X063465
X063976
X064488
X065
X065512
X066024
X066535
X067047
X067559
X068071
X067815Y028661
X067303
X066791
X06628
X065768
X065256
X064744
X064232
X06372
X063976Y029173
X064488
X065
X065512
X066024
X066535
X067047
X067559
X069606
X069862Y028661
X06935
X069094Y02815
X069606
X070118
X069862Y023543
X06935
X068839
X068327
X067815
X067303
X066791
X06628
X065768
X065512Y023031
X066024
X066535
X067047
X067559
X068071
X068583
X069094
X069606
X070118
X069862Y02252
X06935
X068839
X068327
X067815
X067303
X066791
X06628
X065768
X065512Y022008
X066024
X066535
X067047
X067559
X067815Y021496
X067303
X066791
X06628
X065768
X065512Y020984
X066024
X066535
X067047
X067559
X068071
X068327Y020472
X067815
X067303
X066791
X06628
X067047Y019961
X067559
X067303Y019449
X066791
X067047Y018937
X067559
X067303Y018425
X066791
X067047Y017913
X067559
X067303Y017402
X066791
X06628
X066024Y01689
X066535
X067047
X06628Y016378
X066024Y015866
X06479Y016841
X06372Y024567
X063209
X062697
X062953Y025079
X063465
X062697Y025591
Y029685
X062953Y030197
X063209Y030709
X06372
X063465Y03122
X063976
X062953
X062697Y030709
X064488Y030197
X064744Y029685
X065256
X064232
X069606Y022008
X06935Y021496
X062185
X061673
X061161
X06065
X060138
X060394Y020984
X060906
X061417
X061929
X062441
X062185Y020472
X061673
X061161
X06065
X06193Y019786
X061973Y018664
Y017837
X061929Y01689
X059882
X059626Y016378
X058858Y015866
X058346Y01689
X057835
X057323
X056811
X057579Y017402
X058091
X058602
X059114
X056043
X055531
X05502
X054508
X053996
X053484
X052972
X052461
X051949
X051437
X051181Y01689
X051693
X052205
X052717
X053228
X05374
X054252
X054764
X055276
X05502Y016378
X054508
X053996
X053484
X052972
X052461
X051949
X051437
X051693Y015866
X052205
X052717
X053228
X05374
X054252
Y017913
X054764
X055276
X055787
X056299
X05374
X053228
X052717
X052205
X051693
X050669Y01689
Y015866
X049134Y01689
X048622
X04811
X048366Y016378
X047598Y015866
X047087
X047854Y018425
X048366
X048878
X04939
X049134Y018937
X049646
Y017913
X048622Y018937
X050669Y020984
X051181
X051693
X052717
X053228
X05374
X054252
X054764
X055276
X055787
X056299
X056555Y020472
X056043
X055531
X05502
Y02252
X054764Y023031
X055276
X055787
X056043Y02252
X055531Y023543
X05502
X054508
X053996
X054252Y024055
X054764
X054508Y024567
X054764Y025079
X056811
X057323
X057835
X058091Y025591
Y026614
X057835Y027126
X058091Y027638
X057579
X058346Y02815
X058858
X05937
X059626Y029685
X060138
X061161
X061673
X062185
X061929Y030197
X062441
X062185Y030709
X061673
X061161
X06065
X060394Y03122
X060906
X061417
X061929
X062441
X061417Y030197
X060906
X05937
X058858
X058346
X057835
X057323
X056811
X056299
X055787
X055276
X054764
X054252
X05374
X053228
X052717
X052205
X051693
X051181
X050669
X050157
X049646
X049134
X04939Y029685
X049902
X050413
X050925
X051437
X051949
X052461
X052972
X053484
Y030709
X053996
X054508
X05502
X055531
X056043
X056555
X057067
X057579
X058091
X058602
X059114
Y029685
X058602
X058091
X057579
X057067
X056811Y03122
X057323
X057835
X058346
X059882
X056299
X055787
X055276
X054764
X054252
X05374
X053228
X052717
X052205
X051693
X051181
X050669
X050157
X050413Y030709
X050925
X051437
X051949
X052461
X052972
X053228Y02815
X05374
X054252
X054764
X054508Y027638
X053996
X053484
X053228Y027126
X05374
X054252
X053484Y026614
X053228Y026102
X051693Y027126
X051437Y027638
X050925
X050413
X049902
X050157Y027126
X049902Y026614
Y025591
X050157Y025079
X050669
X051181
X050413Y024567
X049902
X050157Y024055
X049902Y023543
X051693Y023031
X052972Y023543
X054252Y023031
X053996Y02252
X057835Y024055
X058091Y024567
X057579
X059114Y021496
X061929Y022008
X062441
Y023031
Y024055
Y025079
Y026102
Y02815
X050669Y029173
X049646
X048878Y029685
X048366Y030709
X047854
X047598Y030197
X047087
X047343Y029685
X047087Y02815
X047598
X04811
Y03122
X048622
X049902Y030709
X046831Y029685
X046575Y02815
X046063
X045551
X045039
X044528
X044016
X043504
X04376Y027638
X044272
X044783
X045295
X045807
X046319
X046063Y027126
X046575
X046319Y026614
X045807
X045295
X044783
X044272
X04376
X043248
X042992Y027126
X043504
X044016
X044528
X045039
X045551
Y026102
X046063
X046575
X046319Y025591
X045807
X045295
X044783
X044272
X04376
X043248
X042992Y026102
X043504
X044016
X044528
X045039
Y025079
X045551
X046063
X046575
X046319Y024567
X045807
X045295
X044783
X044272
X04376
X043248
X042992Y025079
X043504
X044016
X044528
Y024055
X045039
X045551
X046063
X046575
X046319Y023543
X045807
X045295
X044783
X044272
X04376
X043248
X042992Y024055
X043504
X044016
Y023031
X044528
X045039
X045551
X046063
X046575
X046319Y02252
X045807
X045295
X044783
X044272
X04376
X043248
X042992Y023031
X043504
X041968
X041457
X040945
X040433
X039921
X039409
X038898
X039154Y023543
X039665
X040177
X040689
X041201
X041713
X041457Y024055
X041968
X041713Y024567
X041201
X040689
X040177
X039665
X039154
X038898Y025079
X039409
X039921
X040433
X040945
X041457
X041968
X041713Y025591
X041201
X040689
X040177
X039665
X039154
X038898Y026102
X039409
X039921
X040433
X040945
X041457
X041968
X041713Y026614
X041201
X040689
X040177
X039665
X039154
X038898Y027126
X039409
X039921
X040433
X040945
X041457
X041968
X043248Y027638
X042992Y030197
X043248Y030709
X045039Y03122
X041968Y029173
X041457
X040945
X040433
X040177Y028661
X03813
X037874Y02815
X038386Y029173
X038898Y024055
X039409
X039921
X040433
X040945
X041201Y02252
X041713
X041457Y022008
X041968
X041713Y021496
X041201
X040689
X040433Y022008
X040945
X040689Y02252
X040177
X040433Y020984
X040945
X041457
X041968
X041713Y020472
X041201
X040689
X040945Y019961
X041457
X041968
X041713Y019449
X041457Y018937
X041968
X041713Y018425
X041457Y017913
X041968
X041713Y017402
X041968Y01689
X04248
X042736Y016378
X042992Y015866
X043504
X044016
X044528
X044272Y016378
X045807
X046319
X046831
X046575Y01689
X046063
X045551
X045807Y017402
X045295
X044783
X044528Y017913
X045039
X045551
X045295Y018425
X045551Y018937
X046575
X046319Y018425
Y020472
X045807
X044783
X044272
Y019449
X046575Y020984
Y015866
X046063
X045551
X045807Y031732
X045295
X045039Y032244
X045551
X046063
X046319Y032756
X045807
X045295
X043248
X043504Y033268
X04376Y03378
X043248
X043504Y034291
X043248Y034803
X043504Y035315
X04376Y035827
X043248
X043504Y036339
X04376Y03685
X043248
X044783
X044528Y037362
X045295Y037874
X046063Y037362
X046575Y036339
X046831Y035827
X046575Y035315
X045551
X045039Y036339
X045807Y038898
X046319
X046831
Y039921
X046575Y040433
X046063
X046319Y040945
X046831
X046575Y041457
X046063
X045551
X045039
X045295Y041968
X045807
X046319
X046831
X046575Y04248
X046063
X045551
X045807Y042992
X046319
X046831
Y044016
X046319
X045807
X045295
X044783
X044272
X04376
X043248
X042992Y044528
X043504
X044016
X044528
X045039
X045551
X046063
X046575
X046831Y045039
X046319
X045807
X045295
X044783
X044272
X04376
X043248
Y046063
X04376
X044272
X044783
X045295
X045807
X045551Y046575
X046063
X046575
X045039
X044528
X044016
X043504
X042992
X042736Y046063
X042224
X041061Y044855
X040199Y044264
X039921Y043504
X040177Y042992
X040689
X040433Y04248
X040945
X040689Y041968
X040177
X039921Y04248
Y041457
X040433
X040177Y040945
X039921Y040433
X040945
X041457
X041713Y039921
X041201
Y040945
X040945Y038386
X041457
X040433
X039921Y039409
X044016
X044528
X044272Y039921
X04376
X044528Y040433
X045295Y039921
X045551Y039409
X045807Y040945
X044783Y041968
X044016Y04248
X044272Y042992
X04376
X043504Y043504
X044016
X044528
X045039
X042992
X042322Y043689
X042992Y04248
X044272Y038898
X042736Y037874
X043248Y031732
X048878
X049558Y031996
X049225Y03572
X049292Y036627
X049287Y037349
X050669Y037362
X051181
X051693
X052205
X052461Y03685
X051949
X051437
X051693Y036339
X052205
X052717
X053228
X053484Y035827
X052972
X05374Y035315
X054252Y036339
X053996Y03685
X05374Y037362
X054252
X053996Y037874
X053484
X052972
X052717Y038386
X053228
X05374
X054252
X053996Y038898
X053484
X052972
X052461
X051949
X051693Y039409
X052205
X052717
X053228
X052972Y039921
X052461
X051949
X052205Y040433
X051949Y040945
X051227Y040564
X049314Y040603
X048622Y041457
X04811
X047598
X047087
X047343Y041968
X047854
X048366
X048878
X048622Y04248
X04811
X047598
X047087
X047343Y042992
X047854
X048366
Y044016
X048878
X048622Y044528
X049134
X049646
X04939Y045039
X048878
X048366
X047854
X047343
X047087Y045551
X047598
X04811
X048622
X049134
X049997Y045513
X050527Y046099
X050157Y046575
X049646
X049134
X048622
X04811
X048366Y046063
X047854
X047343
X047087Y044528
X047598
X04811
X047854Y044016
X047343
Y040945
X047854
X047598Y040433
X047087
X047343Y039921
X047242Y039545
X047343Y038898
X048296Y038126
X048358Y036394
X048366Y039921
X049902Y038898
X052205Y038386
X053228Y037362
X055276
X055787
X056299
X056811
X056555Y037874
X056043
X055531
X05502
X055276Y038386
X055787
X056299
X056555Y038898
X056043
X055531
X05502
X054764Y039409
X055276
X055787
X056299
X056811
X057579Y039921
X058091
X058602
X058346Y040433
X057835
X058091Y040945
X058602
X058346Y041457
Y04248
X057835
X057323
X057579Y041968
X057067
X057323Y041457
X056299
X055787
X055276
X054764
X054252
X05374
X053228
X052717
X053484Y040945
X053996
X054508
X05502
X055531
X056043
X055787Y040433
X056299
X056043Y039921
X055531
X05502
X054508
X054252Y040433
X054764
X055276
X05374
X053996Y041968
X054508
X054252Y04248
X05374
X053996Y042992
X054508
X054252Y043504
X054764
X055276
X055787
X056043Y044016
X055531
X05502
X054508
X053996
X053484
X053228Y043504
X05374
X054252Y044528
X054764
X055276
X054508Y045039
X053996
X054252Y045551
X054508Y046063
X053996
X053484
X052972
X052461
X051949
X051693Y045551
X052205
X050925Y045039
X051181Y046575
X055229Y046707
X055787Y046575
X056299
X056811
X057323
X057067Y046063
X056555
X057932Y046193
X058468Y045636
X05937Y045551
X059882
X060394
X060906
X061417
Y044528
X061929
X062441
X061673Y044016
X061161
X06065
X060138
X059882Y044528
X060394
X060906
Y043504
X061417
X061161Y042992
X06065
X060138
X059882Y043504
X060394
X05937Y044528
X059626Y046063
X060138
X06065
X060394Y046575
X059882
X061929
X062441
Y041457
X061993Y040449
X061258Y039756
X060567Y039183
X060597Y037314
Y036566
X06065Y035827
X061161
X061673
X062185
X062441Y036339
X061563Y036565
Y037313
X061673Y037874
X061161
X059662Y036925
X058858Y036339
X058602Y035827
X057835Y035315
X060138Y035827
Y032756
X06065
X061161
X061673
X062185
X061929Y032244
X062441
X062185Y031732
X061673
X061161
X06065
X060138
X059626
X05937Y032244
X059882
X060394
X060906
X061417
X061673Y03378
X062185
X062441Y034291
X059626Y032756
X059114
X058602
X058091
X057579
X057067
X056555
X056043
X055013Y032619
X05502Y035827
X055531
X055276Y036339
X055787
X056043Y03685
X056555
X055531
X05502
X058858Y032244
X05929Y041597
X059114Y041968
X050546Y041911
X062697Y042992
X063508Y043236
X064232Y042992
X064744
X065256
X065768
X06628
X066791
X066535Y043504
X066024
X065512
Y04248
X066024
X066535
X067047
X067559
X067815Y041968
X067303
X066791
X06628
X065768
X066535Y041457
X067047
X067559
X067815Y040945
X067303
X066791
X066024Y040433
X065768Y039921
X065256
Y038898
X065768
X06628
X066791
X067559Y040433
X068327Y042992
X068071Y043504
X068327Y044016
X067815
X067303
X067559Y044528
X068071
X068327Y045039
X067815
X067559Y045551
X067047
X066939Y044827
X065Y044528
X064488
X063976
X064232Y046063
X064744
X065256
X065768
X065Y046575
X064488
X063976
X063465
X062953
X063209Y046063
X06372
X062697
X062953Y039409
X063209Y038898
X062953Y038386
X063465
X063976
X06372Y037874
X063209
X062953Y037362
X063465
X06372Y03685
X063209
X062697
X062953Y036339
X063465
X06372Y035827
X063209
X062697
Y03378
X063209
Y032756
X06372
X063465Y032244
X063976
X06372Y031732
X063209
X062697
X062953Y032244
X062697Y032756
X065256Y037874
X064072Y039176
X064232Y047087
X06372
X063209
X062697
X062953Y047598
X062441
X061929
X061417
X060906
X061161Y04811
X06065
X05937Y048622
X058858
X058346
X057835
X057323
X056811
X056299
X055787
X055276
X054764
X054252
X05374
X053228
X052717
X052205
X051693
X051181
X050669
X050157
X050413Y047087
X050925
X051437
X051949
X052461
X052972
X053484
X053996
X054508
X049902
X04939
X048878
X048366
X047598Y047598
X047087
X047854Y04811
X061673Y047087
X062185
X046831
X046319
X045807
X045295
X044783
X046063Y047598
X046575
T02
X047211Y017708
Y018299
Y018889
Y01948
Y02007
Y020661
X05957Y020398
Y019808
Y019217
Y018627
Y018036
Y020989
T03
X06336Y018475
Y019459
Y020443
X065486
Y019459
Y018475
X046824Y038349
X046324
X047324
X048315Y039138
X048815
X049315
X058633Y039167
X059133
X059633
X060567Y038363
X061067
X061567
T04
X063156Y028829
X062156
X061156
X060156
X059156
X058156
X057156
X056156
X055156
X054156
X053156
X052156
X051156
X050156
X049156
X048156
X047156
X050524Y021894
X051524
X052524
X053524
X054524
X055524
X056524
X057524
X05963Y015642
X060614
X046156Y028829
X045156
X044156
Y034829
X045156
X046156
X043968Y040879
X042968
X041508Y039298
X040508
X047156Y034829
X048156
X049156
X050156
X051156
X052156
X053156
X054156
X055156
X056156
X057156
X058156
X059156
X060156
X061156
X062156
X058412Y04325
X057705Y043957
X055945Y044858
X055238Y045565
X05319Y045363
X052483Y044656
X050775Y044134
X050068Y043427
X064077Y040848
X065077
X066595Y039464
X067595
X063156Y034829
T05
X043573Y016822
Y017822
Y018822
Y019822
Y020822
Y021822
T06
X050691Y013562
X051741
X052741
X053741
X054741
X055741
X056741
X057741
Y019601
X056741
X055741
X054741
X053741
X052741
X051741
X050741
T07
X068622Y021685
X068621Y028854
X039305Y028855
X039305Y021685
X05098Y038207
X057292Y038226
T08
X052764Y042464
X055605Y042472
T09
X050936Y026347
X057136
M30
