G04*
G04 #@! TF.GenerationSoftware,Altium Limited,Altium Designer,26.2.0 (7)*
G04*
G04 Layer_Color=16711935*
%FSTAX25Y25*%
%MOIN*%
G70*
G04*
G04 #@! TF.SameCoordinates,DDC7E0C6-02D7-4959-A8D0-6A7BEAAAFFDF*
G04*
G04*
G04 #@! TF.FilePolarity,Positive*
G04*
G01*
G75*
%ADD10C,0.00787*%
G36*
X0062009Y-0132496D02*
X0062056Y-0132503D01*
X0062114Y-0132514D01*
X006218Y-0132532D01*
X0062245Y-0132554D01*
X0062311Y-0132583D01*
X0062314D01*
X0062318Y-0132587D01*
X006234Y-0132597D01*
X0062373Y-0132619D01*
X0062409Y-0132645D01*
X0062453Y-0132681D01*
X0062497Y-0132721D01*
X006254Y-0132769D01*
X0062577Y-0132823D01*
X006258Y-013283D01*
X0062591Y-0132849D01*
X0062606Y-0132881D01*
X0062624Y-0132922D01*
X0062642Y-0132969D01*
X0062657Y-0133023D01*
X0062668Y-0133085D01*
X0062671Y-0133147D01*
Y-0133154D01*
Y-0133176D01*
X0062668Y-0133205D01*
X006266Y-0133245D01*
X0062649Y-0133293D01*
X0062631Y-0133344D01*
X0062609Y-0133395D01*
X006258Y-0133446D01*
X0062577Y-0133453D01*
X0062566Y-0133467D01*
X0062544Y-0133493D01*
X0062515Y-0133522D01*
X0062478Y-0133555D01*
X0062435Y-0133591D01*
X0062384Y-0133624D01*
X0062322Y-0133657D01*
X0062325D01*
X0062333Y-013366D01*
X0062344Y-0133664D01*
X0062358Y-0133668D01*
X0062398Y-0133682D01*
X0062449Y-0133704D01*
X0062507Y-0133733D01*
X0062566Y-013377D01*
X006262Y-0133817D01*
X0062671Y-0133871D01*
X0062675Y-0133879D01*
X0062689Y-0133901D01*
X0062711Y-0133937D01*
X0062733Y-0133984D01*
X0062755Y-0134043D01*
X0062777Y-0134112D01*
X0062791Y-0134192D01*
X0062795Y-0134279D01*
Y-0134283D01*
Y-0134294D01*
Y-0134312D01*
X0062791Y-0134334D01*
X0062788Y-0134363D01*
X006278Y-0134396D01*
X0062773Y-0134432D01*
X0062766Y-0134472D01*
X0062737Y-0134559D01*
X0062715Y-0134607D01*
X0062693Y-0134651D01*
X0062664Y-0134698D01*
X0062631Y-0134745D01*
X0062595Y-0134792D01*
X0062551Y-0134836D01*
X0062547Y-013484D01*
X006254Y-0134847D01*
X0062526Y-0134858D01*
X0062507Y-0134872D01*
X0062486Y-0134891D01*
X0062456Y-0134909D01*
X0062424Y-0134931D01*
X0062384Y-0134949D01*
X0062344Y-0134971D01*
X0062296Y-0134993D01*
X0062249Y-0135011D01*
X0062194Y-0135029D01*
X0062136Y-0135044D01*
X0062074Y-0135055D01*
X0062012Y-0135062D01*
X0061943Y-0135065D01*
X006191D01*
X0061889Y-0135062D01*
X006186Y-0135058D01*
X0061827Y-0135055D01*
X006179Y-0135047D01*
X006175Y-013504D01*
X0061663Y-0135018D01*
X0061572Y-0134982D01*
X0061525Y-013496D01*
X0061481Y-0134934D01*
X0061437Y-0134902D01*
X0061394Y-0134869D01*
X006139Y-0134865D01*
X0061383Y-0134858D01*
X0061372Y-0134847D01*
X0061361Y-0134832D01*
X0061343Y-0134814D01*
X0061324Y-0134789D01*
X0061303Y-0134763D01*
X0061281Y-0134731D01*
X0061259Y-0134694D01*
X0061237Y-0134658D01*
X0061197Y-013457D01*
X0061164Y-0134468D01*
X0061153Y-0134414D01*
X0061146Y-0134356D01*
X0061455Y-0134316D01*
Y-0134319D01*
X0061459Y-0134327D01*
X0061463Y-0134341D01*
X0061466Y-0134359D01*
X006147Y-0134381D01*
X0061477Y-0134407D01*
X0061496Y-0134461D01*
X0061521Y-0134527D01*
X0061554Y-0134589D01*
X006159Y-0134647D01*
X0061634Y-0134698D01*
X0061641Y-0134701D01*
X0061656Y-0134716D01*
X0061685Y-0134734D01*
X0061721Y-0134752D01*
X0061765Y-0134774D01*
X0061819Y-0134792D01*
X0061881Y-0134807D01*
X0061947Y-0134811D01*
X0061969D01*
X0061983Y-0134807D01*
X0062023Y-0134803D01*
X0062074Y-0134792D01*
X0062133Y-0134774D01*
X0062194Y-0134749D01*
X0062256Y-0134712D01*
X0062314Y-0134661D01*
X0062322Y-0134654D01*
X006234Y-0134632D01*
X0062362Y-0134599D01*
X0062391Y-0134556D01*
X006242Y-0134501D01*
X0062442Y-0134439D01*
X006246Y-0134367D01*
X0062467Y-0134286D01*
Y-0134283D01*
Y-0134275D01*
Y-0134265D01*
X0062464Y-013425D01*
X006246Y-013421D01*
X0062449Y-0134163D01*
X0062435Y-0134104D01*
X0062409Y-0134046D01*
X0062373Y-0133988D01*
X0062325Y-0133933D01*
X0062318Y-0133926D01*
X00623Y-0133912D01*
X0062271Y-013389D01*
X0062231Y-0133864D01*
X006218Y-0133839D01*
X0062118Y-0133817D01*
X0062049Y-0133802D01*
X0061972Y-0133795D01*
X006194D01*
X0061914Y-0133799D01*
X0061881Y-0133802D01*
X0061845Y-013381D01*
X0061801Y-0133817D01*
X0061754Y-0133828D01*
X006179Y-0133555D01*
X0061809D01*
X0061823Y-0133558D01*
X006187D01*
X006191Y-0133551D01*
X0061958Y-0133544D01*
X0062012Y-0133533D01*
X0062074Y-0133515D01*
X0062133Y-0133489D01*
X0062194Y-0133457D01*
X0062198D01*
X0062202Y-0133453D01*
X006222Y-0133438D01*
X0062245Y-0133413D01*
X0062274Y-013338D01*
X0062304Y-0133333D01*
X0062329Y-0133278D01*
X0062347Y-0133216D01*
X0062354Y-013318D01*
Y-013314D01*
Y-0133136D01*
Y-0133133D01*
Y-0133111D01*
X0062347Y-0133082D01*
X006234Y-0133042D01*
X0062325Y-0132998D01*
X0062307Y-0132951D01*
X0062278Y-0132903D01*
X0062238Y-013286D01*
X0062234Y-0132856D01*
X0062216Y-0132841D01*
X0062191Y-0132823D01*
X0062158Y-0132801D01*
X0062114Y-0132783D01*
X0062063Y-0132765D01*
X0062005Y-013275D01*
X006194Y-0132747D01*
X006191D01*
X0061878Y-0132754D01*
X0061834Y-0132761D01*
X0061787Y-0132776D01*
X0061739Y-0132794D01*
X0061688Y-0132823D01*
X0061641Y-013286D01*
X0061637Y-0132863D01*
X0061623Y-0132881D01*
X0061601Y-0132907D01*
X0061576Y-0132943D01*
X006155Y-0132991D01*
X0061525Y-0133049D01*
X0061503Y-0133118D01*
X0061488Y-0133198D01*
X0061179Y-0133143D01*
Y-013314D01*
X0061182Y-0133129D01*
X0061186Y-0133114D01*
X006119Y-0133092D01*
X0061197Y-0133067D01*
X0061208Y-0133038D01*
X006123Y-0132969D01*
X0061266Y-0132889D01*
X006131Y-0132809D01*
X0061364Y-0132732D01*
X0061434Y-0132663D01*
X0061437Y-0132659D01*
X0061444Y-0132656D01*
X0061455Y-0132649D01*
X006147Y-0132638D01*
X0061488Y-0132623D01*
X0061514Y-0132608D01*
X0061539Y-0132594D01*
X0061572Y-0132576D01*
X0061645Y-0132546D01*
X0061728Y-0132517D01*
X0061827Y-0132499D01*
X0061878Y-0132492D01*
X0061969D01*
X0062009Y-0132496D01*
D02*
G37*
G36*
X0060724Y-0134221D02*
Y-0134225D01*
Y-0134236D01*
Y-013425D01*
Y-0134272D01*
X006072Y-0134301D01*
Y-013433D01*
X0060713Y-0134399D01*
X0060706Y-0134479D01*
X0060691Y-0134563D01*
X0060669Y-013464D01*
X0060644Y-0134712D01*
Y-0134716D01*
X006064Y-013472D01*
X0060629Y-0134741D01*
X0060611Y-0134771D01*
X0060585Y-0134811D01*
X0060549Y-0134851D01*
X0060509Y-0134894D01*
X0060458Y-0134938D01*
X00604Y-0134974D01*
X0060393Y-0134978D01*
X0060371Y-0134989D01*
X0060338Y-0135003D01*
X0060291Y-0135018D01*
X0060232Y-0135036D01*
X0060167Y-0135051D01*
X0060094Y-0135062D01*
X0060014Y-0135065D01*
X0059981D01*
X0059959Y-0135062D01*
X005993Y-0135058D01*
X0059901Y-0135055D01*
X0059825Y-013504D01*
X0059745Y-0135018D01*
X0059661Y-0134985D01*
X0059617Y-0134964D01*
X0059577Y-0134938D01*
X0059541Y-0134909D01*
X0059504Y-0134876D01*
X0059501Y-0134872D01*
X0059497Y-0134869D01*
X005949Y-0134854D01*
X0059479Y-013484D01*
X0059464Y-0134821D01*
X005945Y-0134796D01*
X0059435Y-0134767D01*
X0059417Y-0134734D01*
X0059403Y-0134698D01*
X0059388Y-0134654D01*
X0059373Y-013461D01*
X0059359Y-0134559D01*
X0059351Y-0134505D01*
X0059341Y-0134443D01*
X0059337Y-0134381D01*
Y-0134312D01*
X0059639Y-0134268D01*
Y-0134272D01*
Y-0134279D01*
Y-0134294D01*
X0059643Y-0134316D01*
X0059646Y-0134337D01*
Y-0134363D01*
X0059657Y-0134425D01*
X0059668Y-013449D01*
X005969Y-0134556D01*
X0059712Y-0134614D01*
X0059726Y-013464D01*
X0059745Y-0134661D01*
X0059748Y-0134665D01*
X0059763Y-0134676D01*
X0059785Y-0134694D01*
X0059814Y-0134712D01*
X0059854Y-0134734D01*
X0059898Y-0134749D01*
X0059952Y-0134763D01*
X006001Y-0134767D01*
X0060032D01*
X0060054Y-0134763D01*
X0060087Y-013476D01*
X006012Y-0134752D01*
X0060156Y-0134745D01*
X0060192Y-0134731D01*
X0060229Y-0134712D01*
X0060232Y-0134709D01*
X0060243Y-0134701D01*
X0060258Y-0134687D01*
X006028Y-0134672D01*
X0060298Y-0134647D01*
X006032Y-0134621D01*
X0060338Y-0134592D01*
X0060352Y-0134556D01*
Y-0134552D01*
X006036Y-0134538D01*
X0060363Y-0134512D01*
X0060371Y-0134479D01*
X0060378Y-0134436D01*
X0060382Y-0134381D01*
X0060389Y-0134316D01*
Y-0134239D01*
Y-0132503D01*
X0060724D01*
Y-0134221D01*
D02*
G37*
D10*
X0044376Y-0146778D02*
Y-0123353D01*
Y-0146778D02*
X0074298D01*
Y-0123353D01*
X0044376D02*
X0074298D01*
M02*
