M48
;Layer_Color=9474304
;FILE_FORMAT=2:4
INCH,LZ
;TYPE=PLATED
T10F00S00C0.0118
%
T10
X06479Y015038
Y016841
X062957Y01696
X061973Y017837
Y018664
X06193Y019786
X041061Y044855
X040199Y044264
X049997Y045513
X050527Y046099
X050546Y041911
X051227Y040564
X049314Y040603
X047242Y039545
X048296Y038126
X049287Y037349
X049292Y036627
X049225Y03572
X048358Y036394
X049558Y031996
X059662Y036925
X060597Y036566
Y037314
X061563Y037313
Y036565
X061258Y039756
X060567Y039183
X061993Y040449
X05929Y041597
X058468Y045636
X057932Y046193
X055229Y046707
X063508Y043236
X064072Y039176
X066939Y044827
M30
